/* XPM */
static char *f8c16ac12c9f4486f27bf5bf7e47f008GquXOLRYvbTF3uMx[] = {
/* columns rows colors chars-per-pixel */
"46 47 232 2 ",
"   c #147E13",
".  c #764D3D",
"X  c #7A513F",
"o  c #2F3D47",
"O  c #323E47",
"+  c #3A3D47",
"@  c #333F48",
"#  c #473C48",
"$  c #573B48",
"%  c #663748",
"&  c #6B3749",
"*  c #6B3A49",
"=  c #703D4B",
"-  c #344047",
";  c #354048",
":  c #3B4549",
">  c #474648",
",  c #584846",
"<  c #515551",
"1  c #624B45",
"2  c #754847",
"3  c #6D5649",
"4  c #7C5542",
"5  c #766653",
"6  c #825948",
"7  c #8A6A51",
"8  c #946C58",
"9  c #997655",
"0  c #A27D59",
"q  c #8C7D61",
"w  c #997E62",
"e  c #A67E62",
"r  c #1A9405",
"t  c #0C8D18",
"y  c #1C951B",
"u  c #2B8C0C",
"i  c #299907",
"p  c #389906",
"a  c #278B19",
"s  c #29961A",
"d  c #3C9C13",
"f  c #359819",
"g  c #3B9C1B",
"h  c #12AB14",
"j  c #2CA404",
"k  c #39A703",
"l  c #3CA20C",
"z  c #27B109",
"x  c #39B509",
"c  c #2AA918",
"v  c #3CA313",
"b  c #39AB17",
"n  c #35A31B",
"m  c #3DA31B",
"M  c #33AB1B",
"N  c #2AB117",
"B  c #3CB215",
"V  c #37B419",
"C  c #3DB31C",
"Z  c #148924",
"A  c #039926",
"S  c #1C9628",
"D  c #288B23",
"F  c #269627",
"G  c #2C9824",
"H  c #349422",
"J  c #349B24",
"K  c #3A9B27",
"L  c #0FA526",
"P  c #2AA626",
"I  c #36A727",
"U  c #3CA322",
"Y  c #3CAC24",
"T  c #3AA629",
"R  c #2BB323",
"E  c #3AB424",
"W  c #439D02",
"Q  c #449C0B",
"!  c #419C14",
"~  c #429E1A",
"^  c #44A401",
"/  c #4CA501",
"(  c #43AB02",
")  c #4DAB01",
"_  c #42A40C",
"`  c #4CA50C",
"'  c #45AA0C",
"]  c #4CAA0C",
"[  c #52A600",
"{  c #53AD02",
"}  c #5AAD01",
"|  c #50A70E",
" . c #54AD0B",
".. c #5AAC0B",
"X. c #4CB201",
"o. c #4AB706",
"O. c #48B80A",
"+. c #55B201",
"@. c #5BB401",
"#. c #55BA01",
"$. c #5DB902",
"%. c #54B30C",
"&. c #5CB50C",
"*. c #54BC0D",
"=. c #5DB90C",
"-. c #43A314",
";. c #4BA514",
":. c #45AB13",
">. c #4DAB14",
",. c #42A41C",
"<. c #4BA51B",
"1. c #45AB1C",
"2. c #4CAC1B",
"3. c #54AB13",
"4. c #52AE1C",
"5. c #59AE1C",
"6. c #4DB313",
"7. c #48B917",
"8. c #43B31B",
"9. c #4CB21C",
"0. c #54B213",
"q. c #5AB413",
"w. c #54BA14",
"e. c #5CBB13",
"r. c #54B31C",
"t. c #5AB41B",
"y. c #54BA1C",
"u. c #5CBA1B",
"i. c #62AE00",
"p. c #62B302",
"a. c #6AB600",
"s. c #63BC01",
"d. c #6BBD01",
"f. c #63B50B",
"g. c #6BB70B",
"h. c #63BB0C",
"j. c #6BBC0B",
"k. c #71BE03",
"l. c #64B612",
"z. c #63BB13",
"x. c #6CBD13",
"c. c #62B31C",
"v. c #63BC1B",
"b. c #6ABC1A",
"n. c #71BD15",
"m. c #419D25",
"M. c #439D34",
"N. c #43A522",
"B. c #4BA623",
"V. c #44AA24",
"C. c #4BAC23",
"Z. c #42A42A",
"A. c #45A82D",
"S. c #4AAC2A",
"D. c #53AE22",
"F. c #58AD25",
"G. c #45B725",
"H. c #4DB322",
"J. c #4FB22A",
"K. c #54B323",
"L. c #5AB423",
"P. c #54B923",
"I. c #5BBB23",
"U. c #54B32A",
"Y. c #58B82A",
"T. c #4EB132",
"R. c #63BA26",
"E. c #6CBD22",
"W. c #61BE30",
"Q. c #4DC105",
"!. c #5BC203",
"~. c #4FC113",
"^. c #5AC219",
"/. c #65C201",
"(. c #6BC401",
"). c #6EC901",
"_. c #65C20C",
"`. c #6BC40C",
"'. c #72C501",
"]. c #79C700",
"[. c #75C900",
"{. c #7ACC00",
"}. c #72C50B",
"|. c #74CB0C",
" X c #7BCC0C",
".X c #7BD004",
"XX c #65C314",
"oX c #6BC414",
"OX c #6CC815",
"+X c #65C21B",
"@X c #6BC41B",
"#X c #72C513",
"$X c #74CA13",
"%X c #7ACA15",
"&X c #73C41A",
"*X c #73CA1B",
"=X c #7BCC1A",
"-X c #7CD115",
";X c #4DC129",
":X c #5BC225",
">X c #65C223",
",X c #6BC323",
"<X c #6AC62A",
"1X c #74C824",
"2X c #74D035",
"3X c #81CF05",
"4X c #83D207",
"5X c #84D015",
"6X c #85CE28",
"7X c #A8855D",
"8X c #978564",
"9X c #AA8B65",
"0X c #B18C64",
"qX c #AA946A",
"wX c #B69768",
"eX c #B9A971",
"rX c #C3A86F",
"tX c #CAA772",
"yX c #C5AA72",
"uX c #CDAB73",
"iX c #D1AD74",
"pX c #CBB577",
"aX c #D4B778",
"sX c #CFC17D",
"dX c #D7C37D",
"fX c #DBCB81",
"gX c #DFD785",
"hX c #E2D886",
"jX c #EAE58B",
"kX c #EDEA8D",
"lX c #F0EE8F",
"zX c #F2F190",
/* pixels */
"/.(.(.`.OX/.(.(.(.`.`.(.'.|. X|.|.[.[.)./.s.s./.oXoX`.|.#X=X*X$X#X@X(.(.oX$.+.&.} @.d.'.{.-X",
"(././.(.(.(./././.(.`.).).[.[.[.[.).)././.=.$.s.s.z.@.+.s.d.d.d.d.d.d.d.j.(.'.$X=X-X5X5X5X'.",
"/.(.(.(.(.(.(././.`.(.).[.(.).).)./././././.$.s.s.b.,X,XoXoX).|.$X.X.X.X.X.X4X-X-X=XoXoXoX/.",
"/./.XX(.(.(.(./.(.(.).'.[.).).(././.(./.(././.d.(.oXXXh.z.u.e.h.v.v.oX(.@X(.j.z.&.} @.s./.$.",
"(.$.@.s.d././././.`.).(.).(.(.(.).'.}.'.).(.(./.(.`._.oX>X+X>X<XJ.4. .&.q.q.&.+.t.E.v.@.$.,X",
"+.z.v.j.d.d.s.$.s./.(.(.(.).(.#X& # O ; ; @ @ , 6 $X*X*X#X>Xt.>.1.>.t.&.@.z.z.z.z.@.@.h.v.>X",
"+.^ } @.`.oX).$X|.'.}.].].].].& & # O ; @ O o , 4 4 } @.@. ./ { L.u.v.z.h.z.s.s.@.f.s.s.s.h.",
"*X1Xv.+.+.@.p.s.(.].{.{.].].& 8 e 9 8X3 , 5 9 5 2 1 ; z.z.e.z.s.h.s.s.s.z.s.e.@.s.v.z.d._.>X",
"s./.#X1X*X[.}.(.(.'.].].].& % 9XiXuXpX9 4 7XiX8X& # O ; d.s.s.h.h.h.h.z.z.@.@.@.s.(.(.oX_.+.",
"s.$.s.h.s.s.d.d.d.d.s.(.& 8 8 yXfXgXdXwX0 rXfXyX0Xq , , o s.s.z.h.h.h.z.@.@.@._./.`.'.d.+.z.",
"z.h._.XX@XoX(.c.I.@.d.& & wXiXhXlXlXlXdXiXhXkXlXzXeX. 1 O @ z.z.s.h.s.@.+.@.,XOX`.oXz.@.v.j.",
"@.@.#.s.s.h.L.<.^ @.(.& * wXfXhXkXkXlXyX0 pXkXkXlXuX9 5 O O f.h.s.s.=.+.z.+X(./.oXd.s.b.b.d.",
"t.&.@.s.v.Y.N.v ) (.'.& * pXzXlXjXkXlX7X. eXzXkXkXfXiXq o O $.h.h.v.} $.h.d.d.d.d.s.`.k.d.h.",
"K.q.=.h.q.k d r.`.(.(.$ # sXzXkXkXkXlXeX8 eXdXkXlXhXfX8X# > #.#.q.&.q.v.z.h.h.s.s.j.oXd.d.s.",
"C.Y.r.L.^ ^ r.v.f.d.(.- o eXzXlXlXkXkXdXuXuXiXdXlXkXkXeX& & +.t.%.) R.c.v.z.z.s.d.}.(.d.d.s.",
"C.S.C.:.-.K.R.@.@.@.p.- o qXfXsXpXfXhXiX0X0XwXaXkXkXlXwX& & %.K.) q.z.z.s.z.=.@.s.(.(.d.s.s.",
">.>.>.' } e.0.&.q.} +.; - , 1 : o w tX9 X X 4 wXzXkXlXeX& & K.r.{ e.z.s.s.z.@.$.s.d.(.s.s.s.",
",.<.2.+.%.1.) L.+.} 0.< < 5 9 , ; 8XiX0 7 6 X wXzXjXjXwX% * K.;.r.h.XXz.z.@.@.s.h.d.d.s.s.z.",
"U K V.0.<.,.U.; - O O qXuXhXzX9 % e iXtXiX8 % qXzXfXuX9X% * ^ ) - > X 3 O ; f.z.v.z.s.s.s.$.",
",.N.m.V.d ,.V.- - + + qXiXhXzXw 2 9XiXiXtX8 $ 8XhXaXwXw % % ^ 3.: , 7 5 > > h.s.h.h.s.s.s.s.",
",.,.Z.K g m.f - - % % sXkXkXkXaXtXgXkXfXiX5 ; , = 2 6 1 O > & 2 4 9 jXgXuXqX; ; h.z.v.v.z.s.",
"v ,.,.-.! -.5.@ @ * 2 pXkXkXjXdXiXdXkXdXuXq : , = 2 4 1 : # = 2 4 9 lXhXiXqX: ; h.z.v.z.&.e.",
"_ -.` } &.v.z.; @ qXtXhXkXkXkXkXkXdXuXgXkXsXtX0 2 4 4 2 1 * * 2 4 8 iXaXkXsX% * =.&.h.h.@.e.",
"2.t.z.h.j.z.s.; @ qXuXhXkXjXkXkXkXdXtXdXkXdXtXe 4 6 4 2 = 2 * 2 6 8 uXaXlXdX& & h.p.@.@.&.u.",
"s.z.s.s.s.z.h.; @ 3 6 wXiXhXkXkXkXdXtXuXiXuXtXdXhXgXgXhXhXgXgXhXhXhXjXkXkXfX$ & @.q.@.@.@.@.",
"s.s.h.h.h.b.@X@ @ 3 4 wXtXhXkXlXkXsXtXtXtXtXtXfXlXjXkXkXkXkXkXkXlXjXkXkXkXdX* * &. ..... .{ ",
"s.s.h.h.z.h.j.p.+.# > > < < < < < 3 7 6 2 e iXiXaXfXkXkXkXkXkXhXpXfXkXhXaXwX; ;  . .{ { { / ",
"z.h.h.f.f.v.s.{ $.O o O O ; O - ; 1 6 2 % 0 iXuXtXfXkXkXkXkXkXfXtXsXkXhXiXqX; @ >.;.3.3.3.` ",
"z.s.h.z.=.=./ +.z.h.b.z.h.s.s.- - > # 1 2 6 7 9XuXiXaXaXaXfXkXgXtXuXaXeX< < @ + ` ` | | 3.| ",
"z.h.z.z.q./ ) h.z.v.v.z.z.s.@.- - + ; 1 4 X X 7XuXtXtXuXiXdXlXhXtXuXiX9XO O @ @ <.<.;.` | / ",
"z.v.u.q.-.~ y.s.@.@.h.z.v.%.@ - - @ O , X 9 wXwXuXiXuXwX7 7XaXaXuXwX9 5 O - p W ^ ;.;.;.| [ ",
"z.z.L.-.p r.=.@.@.$.z.v.+.; ; - - @ @ 1 X 7XiXuXiXiXiX0XX 8 uXuXiX0XX 1 - - p p _ W W ` ;.;.",
"z.&.,.p ..=.@.@.@.h.; ; ; ; ; - @ , , 9 9X7X9 9 7 5 5 3 2 6 9 7XaXwXX . $ $ + @ ^ 2.2.` ` >.",
"@.,.H ;.q.&.@.@.@.; ; ; ; ; ; ; O 1 4 0XaX0 X 2 & $ o + = 2 X 8 aX0X4 . * % ; : f ! ,.B.C.F.",
"N.H p @.@.@.@.@.z.; ; ; ; ; ; ; O 5 7X0 0 3 , $ # # ; # # $ 2 6 0 0 7X9 $ > ; ; N.Z.g d ~ ! ",
"H H K.@.@.@.@.@.u.; ; ; ; ; ; ; o 8XaX9 4 , ; - - - ; - - # * 2 X 7 aXqX; ; + o a i S.C.1.V.",
"H D.$.@.&.@.&.=.%.k @ + ; ; ; ; O 5 q 5 , > - - - ; ; ; - # , $ , 3 q 5 - ; ;   D a a d V.S.",
"F.@.@.@.+.%.y.t.] ' 9.; ; ; ; ; ; O o o O ; ; : ; ; ; ; ; ; ; O O O O O @ + m.a a D J s s f ",
"@.@.@.%.) L.>.:.>.:.1.m ; ; ; ; ; ; ; ; ; ; ; ; ; ; ; ; ; ; ; ; ; ; ; + @ + a M.A.m m N.-.d ",
"%.@.5.) 2.1.k 2.>.:.n n M I N ; ; ; ; O ; ; - ; ; ; ; ; ; ; ; ; ; ;   a Z a a   f K Z.Z.A.S.",
"t.F.K g ,.! k H.:.b b N R M c P ; ; ; ; ; ; ; ; ; ; ; ; ; ; ; ; ; + H a f K K H H H g d p p ",
"5.g f p l :.S.1.:.b M N R N h c 8.k 8.w.X.*.7.C i :.y.2XN.I P.r S t y K m.m.m.f f g ~ ~ J a ",
"^ -.>.U.D.C._ k M M Y N N z c I y.Y.P.w.^.^.#.X.#.^.OXw.p :XX.G.s R V.m S.S.! g M.d ! ! f f ",
"K.K.4.^ -.,.k B M N V N N x 7.k Y.^.+XXXXX^.!.!._././.+.#.#.^.^.7.o.X.I.K.k B.m d p p d p T ",
"4.] 1.1.r.9.8.:.M z h h E x #.#.u.XXOXoXXX/.XX/./.>X>X!.OX+X/.^.~.o.~.6.X.Y.^ C T ! d p f I ",
"^ _ H.G.j b M M N N N R G.8.#.XX+XXXoXoXoXOXXX^.OX,XXX/.!.^.^.!.Q.Q.*.y.:XX.G.G.M s i n A.s ",
"m r P E R h L h h R c x u.>X+X/.oX@XoXoXoXOXXXOXOXOXXXoX+X!.!.Q.Q.Q.~.~.7.P.8.x j i j M s I "
};
