/* XPM */
static char *a12b1189032144ade07cafba31fc2008MIPTprubi8fdzaJo[] = {
/* columns rows colors chars-per-pixel */
"46 47 232 2 ",
"   c #147E13",
".  c #764D3D",
"X  c #7A513F",
"o  c #2F3D47",
"O  c #323E47",
"+  c #3A3D47",
"@  c #333F48",
"#  c #473C48",
"$  c #573B48",
"%  c #663748",
"&  c #6B3749",
"*  c #6B3A49",
"=  c #703D4B",
"-  c #344047",
";  c #354048",
":  c #3B4549",
">  c #474648",
",  c #584846",
"<  c #515551",
"1  c #624B45",
"2  c #754847",
"3  c #6D5649",
"4  c #7C5542",
"5  c #766653",
"6  c #825948",
"7  c #8A6A51",
"8  c #946C58",
"9  c #997655",
"0  c #A27D59",
"q  c #8C7D61",
"w  c #997E62",
"e  c #A67E62",
"r  c #1A9405",
"t  c #0C8D18",
"y  c #1C951B",
"u  c #2B8C0C",
"i  c #299907",
"p  c #389906",
"a  c #278B19",
"s  c #29961A",
"d  c #3C9C13",
"f  c #359819",
"g  c #3B9C1B",
"h  c #12AB14",
"j  c #2CA404",
"k  c #39A703",
"l  c #3CA20C",
"z  c #27B109",
"x  c #39B509",
"c  c #2AA918",
"v  c #3CA313",
"b  c #39AB17",
"n  c #35A31B",
"m  c #3DA31B",
"M  c #33AB1B",
"N  c #2AB117",
"B  c #3CB215",
"V  c #37B419",
"C  c #3DB31C",
"Z  c #148924",
"A  c #039926",
"S  c #1C9628",
"D  c #288B23",
"F  c #269627",
"G  c #2C9824",
"H  c #349422",
"J  c #349B24",
"K  c #3A9B27",
"L  c #0FA526",
"P  c #2AA626",
"I  c #36A727",
"U  c #3CA322",
"Y  c #3CAC24",
"T  c #3AA629",
"R  c #2BB323",
"E  c #3AB424",
"W  c #439D02",
"Q  c #449C0B",
"!  c #419C14",
"~  c #429E1A",
"^  c #44A401",
"/  c #4CA501",
"(  c #43AB02",
")  c #4DAB01",
"_  c #42A40C",
"`  c #4CA50C",
"'  c #45AA0C",
"]  c #4CAA0C",
"[  c #52A600",
"{  c #53AD02",
"}  c #5AAD01",
"|  c #50A70E",
" . c #54AD0B",
".. c #5AAC0B",
"X. c #4CB201",
"o. c #4AB706",
"O. c #48B80A",
"+. c #55B201",
"@. c #5BB401",
"#. c #55BA01",
"$. c #5DB902",
"%. c #54B30C",
"&. c #5CB50C",
"*. c #54BC0D",
"=. c #5DB90C",
"-. c #43A314",
";. c #4BA514",
":. c #45AB13",
">. c #4DAB14",
",. c #42A41C",
"<. c #4BA51B",
"1. c #45AB1C",
"2. c #4CAC1B",
"3. c #54AB13",
"4. c #52AE1C",
"5. c #59AE1C",
"6. c #4DB313",
"7. c #48B917",
"8. c #43B31B",
"9. c #4CB21C",
"0. c #54B213",
"q. c #5AB413",
"w. c #54BA14",
"e. c #5CBB13",
"r. c #54B31C",
"t. c #5AB41B",
"y. c #54BA1C",
"u. c #5CBA1B",
"i. c #62AE00",
"p. c #62B302",
"a. c #6AB600",
"s. c #63BC01",
"d. c #6BBD01",
"f. c #63B50B",
"g. c #6BB70B",
"h. c #63BB0C",
"j. c #6BBC0B",
"k. c #71BE03",
"l. c #64B612",
"z. c #63BB13",
"x. c #6CBD13",
"c. c #62B31C",
"v. c #63BC1B",
"b. c #6ABC1A",
"n. c #71BD15",
"m. c #419D25",
"M. c #439D34",
"N. c #43A522",
"B. c #4BA623",
"V. c #44AA24",
"C. c #4BAC23",
"Z. c #42A42A",
"A. c #45A82D",
"S. c #4AAC2A",
"D. c #53AE22",
"F. c #58AD25",
"G. c #45B725",
"H. c #4DB322",
"J. c #4FB22A",
"K. c #54B323",
"L. c #5AB423",
"P. c #54B923",
"I. c #5BBB23",
"U. c #54B32A",
"Y. c #58B82A",
"T. c #4EB132",
"R. c #63BA26",
"E. c #6CBD22",
"W. c #61BE30",
"Q. c #4DC105",
"!. c #5BC203",
"~. c #4FC113",
"^. c #5AC219",
"/. c #65C201",
"(. c #6BC401",
"). c #6EC901",
"_. c #65C20C",
"`. c #6BC40C",
"'. c #72C501",
"]. c #79C700",
"[. c #75C900",
"{. c #7ACC00",
"}. c #72C50B",
"|. c #74CB0C",
" X c #7BCC0C",
".X c #7BD004",
"XX c #65C314",
"oX c #6BC414",
"OX c #6CC815",
"+X c #65C21B",
"@X c #6BC41B",
"#X c #72C513",
"$X c #74CA13",
"%X c #7ACA15",
"&X c #73C41A",
"*X c #73CA1B",
"=X c #7BCC1A",
"-X c #7CD115",
";X c #4DC129",
":X c #5BC225",
">X c #65C223",
",X c #6BC323",
"<X c #6AC62A",
"1X c #74C824",
"2X c #74D035",
"3X c #81CF05",
"4X c #83D207",
"5X c #84D015",
"6X c #85CE28",
"7X c #A8855D",
"8X c #978564",
"9X c #AA8B65",
"0X c #B18C64",
"qX c #AA946A",
"wX c #B69768",
"eX c #B9A971",
"rX c #C3A86F",
"tX c #CAA772",
"yX c #C5AA72",
"uX c #CDAB73",
"iX c #D1AD74",
"pX c #CBB577",
"aX c #D4B778",
"sX c #CFC17D",
"dX c #D7C37D",
"fX c #DBCB81",
"gX c #DFD785",
"hX c #E2D886",
"jX c #EAE58B",
"kX c #EDEA8D",
"lX c #F0EE8F",
"zX c #F2F190",
/* pixels */
"-X{.'.d.@.} &.+.$.oX(.(.@X#X$X*X=X#X|.`.oXoX/.s.s./.).[.[.|.|. X|.'.(.`.`.(.(.(./.OX`.(.(./.",
"'.5X5X5X-X=X$X'.(.j.d.d.d.d.d.d.d.s.+.@.z.s.s.$.=././.).).[.[.[.[.).).`.(./././.(.(.(././.(.",
"/.oXoXoX=X-X-X4X.X.X.X.X.X$X|.).oXoX,X,Xb.s.s.$./././././.).).).(.[.).(.`././.(.(.(.(.(.(./.",
"$./.s.@.} &.z.j.(.@X(.oXv.v.h.e.u.z.h.XXoX(.d././.(./.(././.(.).).[.'.).(.(./.(.(.(.(.XX/./.",
",X$.@.v.E.t.+.&.q.q.&. .4.J.<X>X+X>XoX_.`.(./.(.(.).'.}.'.).(.(.(.).(.).`././././.d.s.@.$.(.",
">Xv.h.@.@.z.z.z.z.@.&.t.>.1.>.t.>X#X*X*X$X6 , @ @ ; ; O # & #X(.).(.(.(./.s.$.s.d.d.j.v.z.+.",
"h.s.s.s.f.@.s.s.z.h.z.v.u.L.{ /  .@.@.} 4 4 , o O @ ; O # & & ].].].].}.'.|.$X).oX`.@.} ^ +.",
">X_.d.z.v.s.@.e.s.z.s.s.s.h.s.z.e.z.z.; 1 2 5 9 5 , 3 8X9 e 8 & ].].{.{.].(.s.p.@.+.+.v.1X*X",
"+._.oX(.(.s.@.@.@.z.z.h.h.h.h.s.s.d.; O # & 8XiX7X4 9 pXuXiX9X% & ].].].'.(.(.}.[.*X1X#X/.s.",
"z.+.d.'.`./._.@.@.@.z.h.h.h.z.s.s.o , , q 0XyXfXrX0 wXdXgXfXyX8 8 & (.s.d.d.d.d.s.s.h.s.$.s.",
"j.v.@.z.oX`.OX,X@.+.@.s.h.s.z.z.@ O 1 . eXzXlXkXhXiXdXlXlXlXhXiXwX& & d.@.I.c.(.oX@XXX_.h.z.",
"d.b.b.s.d.oX/.(.+Xz.+.=.s.s.h.f.O O 5 9 uXlXkXkXpX0 yXlXkXkXhXfXwX* & (.@.^ <.L.h.s.s.#.@.@.",
"h.d.k.`.s.d.d.d.d.h.$.} v.h.h.$.O o q iXfXkXkXzXeX. 7XlXkXjXlXzXpX* & '.(.) v N.Y.v.s.@.&.t.",
"s.d.d.oXj.s.s.h.h.z.v.q.&.q.#.#.> # 8XfXhXlXkXdXeX8 eXlXkXkXkXzXsX# $ (.(.`.r.d k q.h.=.q.K.",
"s.d.d.(.}.d.s.z.z.v.c.R.) %.t.+.& & eXkXkXlXdXiXuXuXdXkXkXlXlXzXeXo - (.d.f.v.r.^ ^ L.r.Y.C.",
"s.s.d.(.(.s.@.=.z.s.z.z.q.) K.%.& & wXlXkXkXaXwX0X0XiXhXfXpXsXfXqXo - p.@.@.@.R.K.-.:.C.S.C.",
"s.s.s.(.d.s.$.@.z.s.s.z.e.{ r.K.& & eXlXkXzXwX4 X X 9 tXw o : 1 , - ; +.} q.&.0.e.} ' >.>.>.",
"z.s.s.d.d.h.s.@.@.z.z.XXh.r.;.K.* % wXjXjXzXwXX 6 7 0 iX8X; , 9 5 < < 0.} +.L.) 1.%.+.2.<.,.",
"$.s.s.s.z.v.z.f.; O 3 X > - ) ^ * % 9XuXfXzXqX% 8 iXtXiXe % 9 zXhXuXqXO O - ; U.,.<.0.V.K U ",
"s.s.s.s.h.h.s.h.> > 5 7 , : 3.^ % % w wXaXhX8X$ 8 tXiXiX9X2 w zXhXiXqX+ + - - V.,.d V.m.N.,.",
"s.z.v.v.z.h.; ; qXuXgXjX9 4 2 & > O 1 6 2 = , ; 5 iXfXkXgXtXaXkXkXkXsX% % - - f m.g K Z.,.,.",
"e.&.z.v.z.h.; : qXiXhXlX9 4 2 = # : 1 4 2 = , : q uXdXkXdXiXdXjXkXkXpX2 * @ @ 5.-.! -.,.,.v ",
"e.@.h.h.&.=.* % sXkXaXiX8 4 2 * * 1 2 4 4 2 0 tXsXkXgXuXdXkXkXkXkXkXhXtXqX@ ; z.v.&.} ` -._ ",
"u.&.@.@.p.h.& & dXlXaXuX8 6 2 * 2 = 2 4 6 4 e tXdXkXdXtXdXkXkXkXjXkXhXuXqX@ ; s.z.j.h.z.t.2.",
"@.@.@.@.q.@.& $ fXkXkXjXhXhXhXgXgXhXhXgXgXhXdXtXuXiXuXtXdXkXkXkXhXiXwX6 3 @ ; h.z.s.s.s.z.s.",
"{  ..... .&.* * dXkXkXkXjXlXkXkXkXkXkXkXjXlXfXtXtXtXtXtXsXkXlXkXhXtXwX4 3 @ @ @Xb.h.h.h.s.s.",
"/ { { {  . .; ; wXaXhXkXfXpXhXkXkXkXkXkXfXaXiXiXe 2 6 7 3 < < < < < > > # +.p.j.h.z.h.h.s.s.",
"` 3.3.3.;.>.@ ; qXiXhXkXsXtXfXkXkXkXkXkXfXtXuXiX0 % 2 6 1 ; - O ; O O o O $.{ s.v.f.f.h.h.z.",
"| 3.| | ` ` + @ < < eXaXuXtXgXkXfXaXaXaXiXuX9X7 6 2 1 # > - - s.s.h.z.b.h.z.+./ =.=.z.h.s.z.",
"/ | ` ;.<.<.@ @ O O 9XiXuXtXhXlXdXiXuXtXtXuX7XX X 4 1 ; + - - @.s.z.z.v.v.z.h.) / q.z.z.h.z.",
"[ | ;.;.;.^ W p - O 5 9 wXuXaXaX7X7 wXuXiXuXwXwX9 X , O @ - - @ %.v.z.h.@.@.s.y.~ -.q.u.v.z.",
";.;.` W W _ p p - - 1 X 0XiXuXuX8 X 0XiXiXiXuXiX7XX 1 @ @ - - ; ; +.v.z.$.@.@.=.r.p -.L.z.z.",
">.` ` 2.2.^ @ + $ $ . X wXaX7X9 6 2 3 5 5 7 9 9 7X9X9 , , @ - ; ; ; ; ; h.@.@.@.=...p ,.&.z.",
"F.C.B.,.! f : ; % * . 4 0XaX8 X 2 = + o $ & 2 X 0 aX0X4 1 O ; ; ; ; ; ; ; @.@.@.&.q.;.H ,.@.",
"! ~ d g Z.N.; ; > $ 9 7X0 0 6 2 $ # # ; # # $ , 3 0 0 7X5 O ; ; ; ; ; ; ; z.@.@.@.@.@.p H N.",
"V.1.C.S.i a o + ; ; qXaX7 X 2 * # - - ; - - - ; , 4 9 aX8Xo ; ; ; ; ; ; ; u.@.@.@.@.@.K.H H ",
"S.V.d a a D   ; ; - 5 q 3 , $ , # - ; ; ; - - - > , 5 q 5 O ; ; ; ; + @ k %.=.&.@.&.@.$.D.H ",
"f s s J D a a m.+ @ O O O O O ; ; ; ; ; ; ; : ; ; O o o O ; ; ; ; ; ; 9.' ] t.y.%.+.@.@.@.F.",
"d -.N.m m A.M.a + @ + ; ; ; ; ; ; ; ; ; ; ; ; ; ; ; ; ; ; ; ; ; ; ; m 1.:.>.:.>.L.) %.@.@.@.",
"S.A.Z.Z.K f   a a Z a   ; ; ; ; ; ; ; ; ; ; ; - ; ; O ; ; ; ; N I M n n :.>.2.k 1.2.) 5.@.%.",
"p p d g H H H K K f a H + ; ; ; ; ; ; ; ; ; ; ; ; ; ; ; ; ; P c M R N b b :.H.k ! ,.g K F.t.",
"a J ~ ~ g f f m.m.m.K y t S r P.I N.2Xy.:.i C 7.*.X.w.8.k 8.c h N R N M b :.1.S.:.l p f g 5.",
"f f ! ! d M.g ! S.S.m V.R s G.X.:Xp w.OX^.#.X.#.^.^.w.P.Y.y.I c z N N Y M M k _ C.D.U.>.-.^ ",
"T p d p p d m B.k K.I.X.o.7.^.^.#.#.+././._.!.!.^.XXXX+X^.Y.k 7.x N N V N M B k ,.-.^ 4.K.K.",
"I f p d ! T C ^ Y.X.6.~.o.~.^./.+XOX!.>X>X/./.XX/.XXoXOXXXu.#.#.x E h h z M :.8.9.r.1.1.] 4.",
"s A.n i s M G.G.X.:Xy.*.Q.Q.!.^.^.!./.XX,XOX^.XXOXoXoXoXXX+XXX#.8.G.R N N N M M b j G.H._ ^ ",
"I s M j i j x 8.P.7.~.~.Q.Q.Q.!.!.+XoXXXOXOXOXXXOXoXoXoX@XoX/.+X>Xu.x c R h h L h R E P r m "
};
