/* XPM */
static char *fc21d795bf5d4ad099339b6c664dddf3x1tjYtAVPpyf9Txs[] = {
/* columns rows colors chars-per-pixel */
"50 50 224 2 ",
"   c #127C0E",
".  c #1A7D12",
"X  c #167E1B",
"o  c #6C3C4A",
"O  c #354048",
"+  c #7D5643",
"@  c #1D870A",
"#  c #0E8915",
"$  c #1B8415",
"%  c #1C861A",
"&  c #2A8F0E",
"*  c #2B9602",
"=  c #219A02",
"-  c #249A0D",
";  c #389706",
":  c #339E01",
">  c #3D9C05",
",  c #3B9B0B",
"<  c #218515",
"1  c #248B13",
"2  c #2B8D12",
"3  c #24851C",
"4  c #258B1B",
"5  c #2B8D1C",
"6  c #2C9014",
"7  c #2D9A17",
"8  c #25961D",
"9  c #259D1B",
"0  c #349415",
"q  c #379C13",
"w  c #3D9B14",
"e  c #34921C",
"r  c #3A9419",
"t  c #3B9B1B",
"y  c #1BA708",
"u  c #0EA718",
"i  c #15AA1A",
"p  c #2BA507",
"a  c #2BA10C",
"s  c #3FA302",
"d  c #36AD00",
"f  c #36A30C",
"g  c #3BA40D",
"h  c #3AAC0C",
"j  c #26B10B",
"k  c #39B50A",
"l  c #25A315",
"z  c #2DAD14",
"x  c #26A51A",
"c  c #2CA21D",
"v  c #25AC19",
"b  c #2BAC19",
"n  c #35A314",
"m  c #3CA314",
"M  c #34AB14",
"N  c #38AC15",
"B  c #32A218",
"V  c #3DA21B",
"C  c #36AC1A",
"Z  c #3BAA1B",
"A  c #2BB216",
"S  c #22B118",
"D  c #2CB31B",
"F  c #37B71B",
"G  c #3BB31B",
"H  c #198C22",
"J  c #1E8228",
"K  c #0A9424",
"L  c #18992A",
"P  c #268B24",
"I  c #2B8D28",
"U  c #239727",
"Y  c #2A9523",
"T  c #2D9C23",
"R  c #2B912A",
"E  c #329523",
"W  c #3A9425",
"Q  c #3B9C22",
"!  c #31942B",
"~  c #379928",
"^  c #3C9D2B",
"/  c #3C9D32",
"(  c #2BAD22",
")  c #3CA323",
"_  c #37A928",
"`  c #2AB323",
"'  c #33B223",
"]  c #39BA20",
"[  c #439D06",
"{  c #439E0A",
"}  c #419E1D",
"|  c #44A303",
" . c #4CA504",
".. c #44A901",
"X. c #4CAD03",
"o. c #44A40D",
"O. c #4BA50B",
"+. c #45AC0C",
"@. c #4DA90C",
"#. c #54AC03",
"$. c #55AA07",
"%. c #52AC0D",
"&. c #59AD0B",
"*. c #4DB704",
"=. c #45B902",
"-. c #4CBD00",
";. c #45B60B",
":. c #4DB30A",
">. c #4DBB09",
",. c #55B102",
"<. c #5BB402",
"1. c #5DBA01",
"2. c #54B30B",
"3. c #5CB40C",
"4. c #54BD09",
"5. c #5DB90A",
"6. c #43A415",
"7. c #4BA514",
"8. c #44AC14",
"9. c #4CAA13",
"0. c #42A31C",
"q. c #4AA41B",
"w. c #45A91C",
"e. c #4CAB1B",
"r. c #51A614",
"t. c #52AB14",
"y. c #54AD1C",
"u. c #45BA14",
"i. c #4DBB14",
"p. c #46B11C",
"a. c #4CB11C",
"s. c #49BA1D",
"d. c #56B414",
"f. c #5BB513",
"g. c #54BC17",
"h. c #5DBB14",
"j. c #54B21B",
"k. c #5AB41B",
"l. c #5DBB1A",
"z. c #60B500",
"x. c #63BC03",
"c. c #69BE03",
"v. c #61B60D",
"b. c #63BB0C",
"n. c #69BD0B",
"m. c #61B710",
"M. c #63BB14",
"N. c #68BD11",
"B. c #61B71B",
"V. c #64BC1A",
"C. c #68BB1A",
"Z. c #419C23",
"A. c #40982A",
"S. c #43A423",
"D. c #4AA423",
"F. c #44AA21",
"G. c #4CAB23",
"H. c #44A32B",
"J. c #46A92A",
"K. c #4BAD2C",
"L. c #51AC20",
"P. c #51AD29",
"I. c #43B423",
"U. c #4DB122",
"Y. c #4CB826",
"T. c #46B72A",
"R. c #4CBB29",
"E. c #54B323",
"W. c #5BB425",
"Q. c #51BC24",
"!. c #5ABB25",
"~. c #51B129",
"^. c #47A236",
"/. c #4AB73A",
"(. c #57B331",
"). c #64BC24",
"_. c #6BBE21",
"`. c #4CC201",
"'. c #5CC304",
"]. c #52C109",
"[. c #5BC20E",
"{. c #4CC417",
"}. c #5CC212",
"|. c #56C11B",
" X c #66C201",
".X c #6BC403",
"XX c #6DC802",
"oX c #65C20A",
"OX c #6BC30B",
"+X c #6BC80E",
"@X c #72C603",
"#X c #79C701",
"$X c #73CA02",
"%X c #7ACC03",
"&X c #71C40E",
"*X c #76CB0B",
"=X c #7ACD0A",
"-X c #7BD202",
";X c #7CD403",
":X c #7CD20C",
">X c #65C313",
",X c #6AC413",
"<X c #69C916",
"1X c #65C21C",
"2X c #6AC31C",
"3X c #6BC918",
"4X c #72C513",
"5X c #73CA13",
"6X c #79CC13",
"7X c #73C518",
"8X c #76CA1A",
"9X c #79CC1A",
"0X c #7DD112",
"qX c #79D217",
"wX c #5AC423",
"eX c #5CC521",
"rX c #66C223",
"tX c #6BC525",
"yX c #71CB22",
"uX c #71D22D",
"iX c #4EB444",
"pX c #80D40D",
"aX c #CCAA73",
"sX c #ECE98D",
/* pixels */
" XOX.X X.X X X X X X.X.X.X@X$X$X@X$X$X@X@X$XXXXX@X$X$X#X$X$X#X$X#X=X=X=X%X%X%X*X%XpXpX;X6X9X8Xz.#.O.",
"'. X X.X X.XXX.X X.X.X+XXX@X@X$X*X*X=XXXXXXXXX XXX@X*X#X#X%X*X=X6X8X9X6X-X;X0X0X-X$X4Xc.<.$.#.z.b.rX",
" XXX'..X.X X.XoX.X.X.XOXOXXXXX$X*X5X*X$X$XXX X1.x..XOX6X&Xn.6X8X8X7X8X,XOX.Xn.v.z.<.$.<.c.@X=X=X5XoX",
" X.XOX X X.X.X.X X X XOX.XXXXX$X$X$X$XXX.X X X1.1.x.x.5.<.<.<.c.c.c.c. Xc.x.c..X@X6X9X0X0XpXpX6X+X+X",
".X XOX.X.XOX.X.X X X XOXXXXX@X$X$XXX.X X X X XoXx.x.b.tX2X2X,X4X&X*X*X:X:X;X;X;X=X:X0X8X7X4X>Xn.c.c.",
"l..Xx.oXoX.X.X.X X X X.XXX@XXX@XXXXX.X.X X X.X X Xx.x.V.C.C.V.h.h.V.V.B.N.,X,XN.b.m.m.&.<.z..X5.x. X",
"y.,X X1.1.x. X X X X X.X.X.X.X.X X XXXXX@X.XXX.X.X.X.X.X+X,X1X1XrX!.!.y.2.<.f.f.<.2.W._.B.<.5.1X<X X",
"d.$.,.V.C.N.x. Xc.5.x..X.X.X.X@X@Xo o O O O O O O + + 5X5X5XyX1Xj.e.9.t.f.2.3.M.V.N.N.<.<.N.).1X>XrX",
"V.b.<.| #.1.n.+X@X$XqXXX@X@X#X#X$Xo o O O O O O O + + b.<.<.#.#.X.%.d.l.C.B.m.b.x.<.<.v..X1.1.1XrX1.",
"oX X,XyXV.,.,.3.v.z.x.*X%X%X%Xo o aXaXaXaX+ + aXaXo o O O x.b.b.5.b.N.b.b.x.n.M.v.<.b.C.3. X>X2X1.z.",
"1.x.x. X,XyX5X@X.X.X@X@X#X#X#Xo o aXaXaXaX+ + aXaXo o O O c.x.x.b.b.b.x.b.N.b.<.<.<.x.oX.X,XN.&.M.,X",
"b.b.z.b..X Xz.c.c.c.n.c.c.o o aXaXsXsXsXsXaXaXsXsXsXsX+ + O O n.n.b.b.x.oXm.2.<.<. Xx..XXX.X#.n.x.OX",
"h.m.N.<.>X7X,X&X.XM.).<.z.o o aXaXsXsXsXsXaXaXsXsXsXsX+ + O O n.b.b.5.b.1.<.<.h.1X8X+X,XM.&.C.n..Xz.",
"l.h.&.x.<.<.x.1XW.7.| <.c.o o sXsXsXsXsXsX+ + sXsXsXsXaXaXO O b.b.b.b.oX3.f.5.x..X.X.Xc.c._.C.c.c..X",
"d.f.k.2.1.1.1X(.D.} +..X@Xo o sXsXsXsXsXsX+ + sXsXsXsXaXaXO O b.5.b.b.b.<.<.b.OXc.n.c.x..Xc.n.b.c.z.",
"a.U.E.g.4.1.5., , k.OX.X.XO O sXsXsXsXsXsXaXaXaXaXsXsXsXsXo o b.1.1.f.&.f.).C.m.x.c.x.n.c.c.c.b.v.x.",
"e.G.e.(.k.k.| g E.f.x.c..XO O sXsXsXsXsXsXaXaXaXaXsXsXsXsXo o <.2.k.y.&.f.V.b.M.N.z..X.Xn.c.c.c.x.z.",
"G.G.L.P.D.9.o.j.1Xf.3.<.<.O O + + O O aXaX+ + + + sXsXsXsXo o ,.d.j.X.f.V.b.b.V.v.<.x.@Xc.x.n.c.x.c.",
"G.G.G.w.@.9.2.h.y.,.&.$.x.O O + + O O aXaX+ + + + sXsXsXsXo o 2.j.j.,.f.1Xb.z.b.<.<.b..X.Xc.x.x.x.b.",
"w.0.0.6.a.4.9.9.d.O O O O aXaXsXsXo o aXaXaXaXo o sXsXaXaXo o j.L.O O + + O O 5.<.x.M.c..Xx.x.b.N.m.",
"Z V V ^ 6.E.o.6.K.O O O O aXaXsXsXo o aXaXaXaXo o sXsXaXaXo o j.| O O + + O O <.<..XB.b.x.x.z.b.B.l.",
"V V S.H.^ q.Z.S.w.O O o o sXsXsXsXaXaXsXsXaXaXO O o o + + O O o o + + sXsXaXaXO O b.b.b.b.b.b.b.b.3.",
"V 0.0.V S.Z.r 0.q O O o o sXsXsXsXaXaXsXsXaXaXO O o o + + O O o o + + sXsXaXaXO O z.x.N.N.M.b.x.x.<.",
"0.m g S.6.0.q.} y.O O aXaXsXsXsXsXsXsXaXaXsXsXaXaX+ + + + o o o o + + aXaXsXsXo o 1.M.B.1XV.2.h.m.[ ",
"0.0.6.O.q.,.f.h.B.O O aXaXsXsXsXsXsXsXaXaXsXsXaXaX+ + + + o o o o + + aXaXsXsXo o <.m.3.b.5.3.m.h. .",
"0.6.9.B.5.x. Xx.n.O O + + aXaXsXsXsXsXaXaXaXaXaXaXsXsXsXsXsXsXsXsXsXsXsXsXsXsXo o <.3.x.<.<.<.h.%.%.",
"7.t.5.V.x.b.x.b.x.O O + + aXaXsXsXsXsXaXaXaXaXaXaXsXsXsXsXsXsXsXsXsXsXsXsXsXsXo o v.<.3.<.<.<.3. .t.",
"f.5.oXz.M.b.b.N.2Xb.M.O O O O O O O O + + o o aXaXaXaXsXsXsXsXsXsXaXaXsXsXaXaXO O f.<.%.3.$.#.$. .&.",
"5.1.x.z.OXb.5.1X>X<.<.O O O O O O O O + + o o aXaXaXaXsXsXsXsXsXsXaXaXsXsXaXaXO O t.<.r.&.%.$.%. .f.",
"<.5.b.b.x.m.v.b.<.2.<.b.n.n.z.b.b.O O O O + + + + aXaXaXaXaXaXsXsXaXaXaXaXO O r.r.7.%.r.r.%.t. .t.t.",
"3.m.V.x.M.b.M.v.#.#.C.m.N.N.x.x.x.O O O O + + + + aXaXaXaXaXaXsXsXaXaXaXaXO O r.@.6.@.O.@.9.y.r.y.y.",
"V.b.b.M.B.V.f.| X.oXm.V.V.V.b.O O O O O O + + aXaXaXaXaXaX+ + aXaXaXaX+ + O O q.D.7.7.q.7.7.%. . .$.",
"oXx.V.>Xm.2.7.0.f.x.<.<.b.V.B.O O O O O O + + aXaXaXaXaXaX+ + aXaXaXaX+ + O O , [ > o.7.r.r.O. .$.&.",
"1.z.M.h.k.[ > L.M.<.<.O O O O O O O O O O + + + + aXaX+ + O O + + aXaXO O O O O O ; | [ [ { 9.t.{ [ ",
"<.b.V.d.D.t  .5.5.<.<.O O O O O O O O O O + + + + aXaX+ + O O + + aXaXO O O O O O ; | e.y.7.7.r.r.%.",
"<.5.h.o.e D.V.<.<.<.,.O O O O O O O O O O + + aXaX+ + O O o o aXaX+ + O O O O O O 0 w t 0.q.e.L.t.r.",
"1.:.o.e } 2.1.<.<.<.h.O O O O O O O O O O + + aXaX+ + O O o o aXaX+ + O O O O O O 5 / S.t r 0.6.o.o.",
":.V r W E.1.,.b.<.,.l.X.o.O O O O O O O O O O O O O O O O O O O O O O O O O O 5 ^ R P t H.J.G.w.G.w.",
"V ! Y t.f.<.<.3.f.5.2.g 9.O O O O O O O O O O O O O O O O O O O O O O O O O O < . . 4 1 6 q S.F.F.K.",
"e W P.z.3.<.,.d.k.W.X.+.a.8.m +.* O O O O O O O O O O O O O O O O O O 7 E E & r Z.& 3 P E E & q w.V ",
"A.G.2.<.1.#.O.E.e.9.9.w.8.n Z F.C O O O O O O O O O O O O O O O O O O ~ W I R < < ^.^.S.) ) 0.V V V ",
"y.j.,.<.9.2.P.q...e.e.F.n a ' _ _ ( x 9 = Z /.7 - ' U H Y $ 9 U X / !   < 3 . 4 4 . 0 V 0.S.G.w.G.K.",
"2.l.W.E.A., m g s ~.+.w.m j D b c b v = p R.U.n R.B 8 l * f iX% T.T # L P 0 r W ^ t e e r t t 0 } V ",
"2.l.y.t r r o.9.F.p.8.M C A A v l l ] d F.Q.X.|.R.Z p +.2.uXH.) |.@ L K H r D.^.^ E W t Z.} t 5 2 2 ",
"<.,.O.w.j.U.~.S.n g f b ' D S D M M R.Q.!.g.h.}.4.-.-.V.,Xk.: eX;.Y.L 7 ] S.K.K.Q Z.Z.w w w 0 e 4 $ ",
"<.2.j.j.q.| F.V h I.G A D ` D M ;.@.E.rX1X<X2X4.'.1.oXoX.X*.4.4.5.[.u.>...wXa.g e.t { , , g q _ R I ",
"f.y.y.+.~.8.j.i.;.m N j S v F d `.,.V.,X,X+XoXoXoX>X.XwX[. X3Xb.OX[.{.4.l.:.2.f.9.Z _ t , * q _ $ Y ",
"q.o...6.j.e.f Z z D D S A ` T.i.d..X2X>X>X,X,X>X<X<X<XtX>XoXoX}.}.].`.>.].Q.|.:.Q.I.m 7 * ) _ 8 T 8 ",
") Q 0.- l ` ` i u u i D A h wXwX[.oXC.,X,X,X,X,X<X,X3X3X<X1XoX[.].].>.`.|.u.i.s.s.h l - N n 7 _ P J ",
"5 4 J.G = p ] D S y j F u.>.l.V.+XOXOX,X,X,X2X,X,X,X3XrX<XoX<X>X[.].`.`.=.`.{.k k F M F N d F.m n P "
};
