/* XPM */
static char *_989f9267ef54e78873278c3786cf00cuIoIbBgHOAbJvbRf[] = {
/* columns rows colors chars-per-pixel */
"50 50 222 2 ",
"   c #127C0E",
".  c #197D14",
"X  c #363F47",
"o  c #6C3C4A",
"O  c #354048",
"+  c #3A4248",
"@  c #4F5153",
"#  c #7D5643",
"$  c #745E56",
"%  c #6A7C5F",
"&  c #676465",
"*  c #717174",
"=  c #86695E",
"-  c #876D65",
";  c #168810",
":  c #1C8518",
">  c #2A8F0E",
",  c #259906",
"<  c #399B04",
"1  c #3B9B0B",
"2  c #218515",
"3  c #268A18",
"4  c #2B8D1C",
"5  c #348F16",
"6  c #299919",
"7  c #389617",
"8  c #379C13",
"9  c #3A9419",
"0  c #3B9B1B",
"q  c #0EA718",
"w  c #18A911",
"e  c #2BA30A",
"r  c #39A905",
"t  c #3BA40D",
"y  c #26B10B",
"u  c #39B50A",
"i  c #29A718",
"p  c #35A616",
"a  c #38AC15",
"s  c #3DA21B",
"d  c #3BAA1B",
"f  c #2BB216",
"g  c #29B21A",
"h  c #39B51B",
"j  c #1B8924",
"k  c #0A9424",
"l  c #18992A",
"z  c #298C27",
"x  c #299526",
"c  c #3A9425",
"v  c #369826",
"b  c #3B9C22",
"n  c #31942B",
"m  c #3C9D32",
"M  c #2BAD22",
"N  c #3CA323",
"B  c #37A928",
"V  c #2AB323",
"C  c #33B223",
"Z  c #39BA20",
"A  c #439D06",
"S  c #439E0A",
"D  c #419E1D",
"F  c #4CA504",
"G  c #4CAD03",
"H  c #44A408",
"J  c #4BA50B",
"K  c #45AC0C",
"L  c #4DA90C",
"P  c #54AB05",
"I  c #52AC0D",
"U  c #59AD0B",
"Y  c #49B607",
"T  c #4DBB09",
"R  c #55B102",
"E  c #5BB402",
"W  c #5DBA01",
"Q  c #54B30B",
"!  c #5CB40C",
"~  c #54BD09",
"^  c #5DB90A",
"/  c #43A415",
"(  c #4BA514",
")  c #44AC14",
"_  c #4CAA13",
"`  c #42A31C",
"'  c #4AA41B",
"]  c #45A91C",
"[  c #4CAB1B",
"{  c #51A614",
"}  c #52AB14",
"|  c #55A61A",
" . c #54AD1C",
".. c #46B11C",
"X. c #4AB719",
"o. c #56B414",
"O. c #5BB513",
"+. c #54BC17",
"@. c #5DBB14",
"#. c #54B21B",
"$. c #5BB41B",
"%. c #5DBB1A",
"&. c #60B500",
"*. c #63BC03",
"=. c #69BE03",
"-. c #61B60D",
";. c #63BB0C",
":. c #69BD0B",
">. c #60AF1A",
",. c #61B710",
"<. c #63BB14",
"1. c #68BD11",
"2. c #61B71B",
"3. c #64BC1A",
"4. c #68BB1A",
"5. c #449926",
"6. c #5B9934",
"7. c #619A3E",
"8. c #43A423",
"9. c #44AA21",
"0. c #4CAB23",
"q. c #46A328",
"w. c #46A92A",
"e. c #4BAD2C",
"r. c #51AC20",
"t. c #57AB27",
"y. c #4AB827",
"u. c #54B323",
"i. c #51BC24",
"p. c #5BB825",
"a. c #51B129",
"s. c #47A236",
"d. c #4AB73A",
"f. c #57B331",
"g. c #64BB25",
"h. c #6BBE21",
"j. c #63A731",
"k. c #4CC202",
"l. c #5CC304",
"z. c #52C109",
"x. c #5BC20E",
"c. c #4CC417",
"v. c #5CC212",
"b. c #56C11B",
"n. c #66C201",
"m. c #6BC403",
"M. c #6DC802",
"N. c #65C20A",
"B. c #6BC30B",
"V. c #6BC80E",
"C. c #72C603",
"Z. c #79C701",
"A. c #73CA02",
"S. c #7ACC03",
"D. c #76CB0B",
"F. c #76C90C",
"G. c #7BD302",
"H. c #7CD20C",
"J. c #65C313",
"K. c #6AC413",
"L. c #69C916",
"P. c #65C21C",
"I. c #6AC31C",
"U. c #6BC918",
"Y. c #73C614",
"T. c #73CA13",
"R. c #79CC13",
"E. c #73C518",
"W. c #79CC1A",
"Q. c #7DD112",
"!. c #5AC423",
"~. c #66C223",
"^. c #6BC525",
"/. c #75CC22",
"(. c #71D22D",
"). c #598444",
"_. c #649847",
"`. c #6A8A57",
"'. c #4EB444",
"]. c #6FA35A",
"[. c #7A8970",
"{. c #80D40D",
"}. c #828C78",
"|. c #889C7E",
" X c #BAA07D",
".X c #C3A36F",
"XX c #C5A575",
"oX c #CCAA73",
"OX c #8A8585",
"+X c #928481",
"@X c #8D9884",
"#X c #929C88",
"$X c #9C9798",
"%X c #A0928F",
"&X c #A29A99",
"*X c #9FA896",
"=X c #B9A387",
"-X c #A7A39D",
";X c #A2B893",
":X c #ABA6A5",
">X c #B7ABA6",
",X c #B2ABAC",
"<X c #B1B3A8",
"1X c #BBB4B4",
"2X c #BEB8B7",
"3X c #C8AE8C",
"4X c #C5B7AE",
"5X c #C1B6B5",
"6X c #C3BCBC",
"7X c #DAD78C",
"8X c #E0DD8F",
"9X c #E9E68B",
"0X c #ECE98D",
"qX c #C8C4BE",
"wX c #C6BFC0",
"eX c #C7C0C1",
"rX c #CBC3C4",
"tX c #D7CECF",
"yX c #D7D0CF",
"uX c #D8CFD0",
"iX c #DCD4D4",
"pX c #E2D9DA",
/* pixels */
"J P *.T./.R.{.{.G.G.S.S.G.S.H.S.D.S.Z.Z.S.S.Z.Z.C.S.M.m.A.C.C.Z.A.A.A.D.M.C.M.B.n.n.n.n.n.n.m.n.B.n.",
"~.^ E P P &.:.F.A.S.R.Q.G.G.R.W.W.Y.D.D.H.S.Z.F.M.m.n.m.M.A.M.F.D.F.A.M.M.M.B.M.m.n.m.m.m.m.m.n.n.l.",
"N.T.H.H.Z.*.E U E &.;.:.B.B.1.E.W.W.W.Y.:.B.D.B.n.*.*.n.M.M.A.F.F.A.A.M.n.m.B.m.m.m.m.B.m.m.m.*.M.n.",
"V.B.T.H.{.{.R.W.T.C.=.*.=.=.=.=.=.n.=.&.E E -.*.*.W W n.n.M.M.D.F.S.A.A.M.m.N.n.n.n.N.m.n.n.m.B.n.n.",
"B.n.1.:.Y.E.E.{.H.H.G.G.G.H.H.D.F.F.J.K.U.I.^.*.*.W n.n.n.n.n.M.M.A.A.A.M.m.M.n.n.n.m.M.B.m.n.B.n.N.",
"*.*.=.N.*.E P O.@.1.1.K.L.J.3.2.2.2.%.3.3.4.3.n.*.n.n.m.n.n.n.M.m.m.M.M.M.M.m.n.n.m.m.m.m.N.N.N.m.<.",
"m.U.3.~ E 2.^.$.! E O.O.R Q } p.!.~.3.J.K.B.B.n.m.m.m.M.M.m.C.m.m.n.m.m.M.C.M.N.n.n.n.n.*.W W n.B.#.",
"I.J.3.g.:.U &.4.<.J.;.! ! O.} [ ( $.~./.T.T.T.# # O O O O X X o o C.C.C.B.n.n.W *.*.*.*.;.4.3.P U #.",
"W ~.J.W W n.,.E W *.;.,.3.3.2.o.I L P P P W *.# # O O O O O O o o S.S.Z.C.C.C.R.A.M.B.;.W P F E ;.3.",
"W E I.J.n.,.4.*.-.,.1.:.*.;.;.J.;.;.;.;.*.O O o o oXoX# # oXoXoXoXo o S.S.S.D.*.*.;.! P E J.^.B.m.n.",
"K.1.P K.K.M.=.*.W E E -.;.:.*.*.^ ;.:.=.=.O O o o oXoX# # oXoXoXoXo o Z.Z.Z.C.C.m.M.S.T./.K.n.*.*.W ",
":.;.:.P n.M.n.N.*.W E P @.:.;.;.;.;.;.O O # # 0X0X0X0XoXoX0X0X0X0XoXoXo o =.=.:.=.=.*.*.*.*.! *.*.^ ",
"W n.:.4.P 4.E.B.U.4.@.E E W ^ W ;.:.:.O O # # 0X0X0X0XoXoX0X0X0X0XoXoXo o *.P g.2.B.B.Y.U.1.E J.%.@.",
"m.=.:.4.h.&.=.=.M.m.;.! ! ! 1.;.;.;.;.O O oXoX0X0X0X0X# # 0X0X0X0X0X0Xo o *.-.H J p.<.*.E W *.U @.%.",
"&.=.1.=.C.C.*.=.=.=.:.B.W E -.;.;.^ ;.O O oXoX0X0X0X0X# # 0X0X0X0X0X0Xo o C.M._ / w.f.3.*.E ! $.o.O.",
"*.;.-.=.=.=.:.*.*.;.,.3.g.$.E O.W W ;.o o 0X0X0X0XoXoXoXoX0X0X0X0X0X0XO X n.n.B.$.1 1 ! l.~ o.a.u...",
"*.*.*.=.:.C.C.*.*.1.3.,.<.$.Q  .#.Q E o o 0X0X0X0XoXoXoXoX0X0X0X0X0X0XO O B.n.-.! u.H H #.$.f.[ [ [ ",
"*.*.*.*.:.=.M.*.W ;.3.*.;.3.O.R o.o.R o o 0X0X0X0X# # # # oXoXO X # # O O &.&.-.O.P.#./ _ 0.a.0.0.0.",
"*.*.*.*.=.=.n.;.E P <.*.;.3.! G #.u.Y o o 0X0X0X0X# # # # oXoXO X # # + O ,.J ! E #.@.Q _ L [ 0.0.0.",
"<.<.;.*.*.=.=.<.*.W E O O # # O O r.#.o o oXoX0X0Xo o oXoXoXoXo o 0X0XoXoXO O O X _ _ Q Q X./ 8.] N ",
"2.2.;.*.*.*.;.<.:.W E O O # # O O J #.o o oXoX0X0Xo o oXoXoXoXo o 0X0XoXoXX X X O f.0 L u./ N 0 d s ",
"! ,.;.*.;.;.;.;.*.O O oXoX0X0X# # o o O O # # o o O O oXoX0X0XoXoX0X0X0X0Xo o X O s 8.b ] m q.` s s ",
"E *.*.,.1.<.1.;.*.O O oXoX0X0X# # o o O O # # o o O O oXoX0X0XoXoX0X0X0X0Xo o X O 8 s s 5.9.5.` ` s ",
"A %.%.! <.P.2.;.W o o 0X0XoXoX# # o o o o # # # # oXoX0X0XoXoX0X0X0X0X0X0XoXoXX + ].-X-X|.5.` 1 s s ",
"F O.%.E ! ;.-.O.&.o o 0X0XoXoX# # o o o o # # # = .XoX0X0XoXoX0X0X0X0X0X0XoXoXX & ;XqX1X#X)._ / ` ` ",
"P U @.E E E E -.W o o 0X0X0X0X0X0X0X0X0X0X0X0X0X9XoXoX3X3X3X.X0X0X9X9X.XXX= - * $XqXiX6X@X).2._ ' ` ",
"} F ! E E E -.E ! o o 0X0X0X0X0X0X0X0X0X0X0X0X0X9XoX X4X6X4X=X8X8X8X7X=X=X%X:X:X2XyXiX2X|.6.3.^ Q _ ",
"o.F P P P U U E O.O O oXoX0X0XoXoX0X0X0X0X0X0XoXoXoX>X6XpXtX5X&X$X,X1XwXwXwX6X1X1XeXiXyX<X`.W *.! O.",
"} P F P I U { R  .O O oXoX0X0XoXoX0X0X0X0X0X0XoXoXoX>XrXpXpXiXwX5X2X2X1X,X:X&X@X|.*XqXqX-X% *.*.E ^ ",
"} { L } I { _ I { ( { O X oXoXoXoX0X0XoXoXoXoXoXoX# +X6XpXpXuX6X>X-X@X}.[.% ).6.5._.#X#X[.% *.;.^ E ",
" . .{  .I _ J _ ( J  .X X oXoXoXoX0X0XoXoXoXoXoXoX# = >XpXiX>XOX& `._.6.t.g.>.2.I | j._.7.t.*.3.2.^ ",
"P F F I ( ( ' J ( q.' X X # # oXoXoXoX# # oXoXoXoXoX=X1XuXrX+X@ + + X U <.4.4.@.;.G < | g.$.-.:.;.<.",
"U P J J } { ( J < S 8 O O # # oXoXoXoX# # oXoXoXoXoX X&X:X&X& + X X X 2.3.^ E W *.o.D ( Q ,.J.<.;.*.",
"S J { ( S A A H < X X X O O O oXoX# # O O # # oXoX# # $ & & @ X X X O O O O O E E 3. .< S $.3.<.*.W ",
"I } } ( ( [ [ < < X X X O O O oXoX# # O O # # oXoX# # # # O O O O O O O O O O E R ! ^ G 0 8.o.<.;.E ",
"L } r.' ' / ` 0 5 X X X O O O # # oXoXo o O O # # oXoX# # O O O O O O O O O O E W E W %.b 9 H @.^ R ",
"S S / D 0 0 N s.4 X O O O O O # $ XXXXo # O O # # oXoX# # O O O O O O O O O O @.W E E W $.D 5 J Q W ",
"0.0.[ w.w.q.b 3 n b 4 O O O O O X X O O X O O O X X O O O O O O O O O O O J L %.R E -.R W u.c 7 ` Y ",
"e.w.9.] 0 > 2 3 . . 2 O O O O O X X X X X X O O X O O O O O O O O O O O O _ 1 Q ! ! ! W E O.#.v n b ",
"s / 8 > 9 n x : > 0 0 > x n 5 O X X X X X X O O O O O O O O O O O < ) t ) ..K G p.u.o.P E ! E 0.c 5 ",
"8.s s ` N N 8.s.s.2 2 z z 9 c X X X O O O O O O O O O O X X X X O a d ] p d ] _ L #.u.J T W W Q r.q.",
"e.0.` w.` 8.` 5 2 3 2 . 3 2   n m . x x ; x : l g e 6 d.N , i w M C B C , p 9. .0.H ' e.I } E P o.[ ",
"s 0 8 0 0 0 5 5 0 v c 9 4 x l ; i i.: '.p , 6 6 p y.p y.y.e , i i i i f a a d K e.r t / 1 5.a.p.$.Q ",
"> > 4 9 D D D c n m s.0.n j k l ; +.b w.(.~ K e d y.b.G i.9.u h i 6 f g g a a ) ..[ J H 8 9 9  .%.o.",
": 3 c 5 8 A D D b b e.e.9.) i l y.K b.< %.I.J.Y ~ T v.! #.!.i.i.i a f g V C i t t s 9.a.r. .] J R E ",
"z n B 8 < D < 7 0 [ t ..p.Y Y X.x.@.x.T G B.n.V.W l.~ P.K.J.g.p.K K u V V g f p ..r 0 ] H [ o.#.Q E ",
"x : N 7 , < 0 B ] K O.Q Q +.z.c.x.M.<.U.n.x.!.N.N.J.V.N.B.K.K.3.E T r h g w y a a Y X.#._ e.K  . .o.",
"x n 6 B ] , 6 a y.i.Y b.i.z.T k.z.b.x.n.N.J.^.L.U.J.J.U.K.K.K.I.N.z.X.y.V g g g g i h t [ o./ H t [ ",
"j z B , i p 6 6 r X.y.c.z.b.k.k.k.z.x.J.J.J.U.U.L.J.L.K.K.K.K.P.N.x.!.i.a y f q q q q V Z q , ` N b ",
"z p 8 ] r h h u h Y u h k.Y Y k.k.v.J.L.V.L.~.U.L.L.K.K.K.K.K.K.V.V.P.v.T X...y w g g h e , a e.4 4 "
};
