/* XPM */
static char *c63a4f9856f64af4be36961fc2470741NdbGPTJOAFVkYGYG[] = {
/* columns rows colors chars-per-pixel */
"54 48 247 2 ",
"   c #3A170D",
".  c #201C16",
"X  c #291E19",
"o  c #3D250E",
"O  c #2C2114",
"+  c #372417",
"@  c #333D11",
"#  c #272625",
"$  c #32342F",
"%  c #440D0A",
"&  c #4F0B09",
"*  c #5B0301",
"=  c #451109",
"-  c #640200",
";  c #6D0300",
":  c #6D0801",
">  c #6F0A01",
",  c #452D0A",
"<  c #492E0B",
"1  c #5E2A03",
"2  c #4C3106",
"3  c #4B310B",
"4  c #52310E",
"5  c #442511",
"6  c #4A2613",
"7  c #4B2A14",
"8  c #522E16",
"9  c #56211F",
"0  c #4C3119",
"q  c #543515",
"w  c #553119",
"e  c #5C341B",
"r  c #5D3A1B",
"t  c #663204",
"y  c #61371C",
"u  c #63391D",
"i  c #683D1E",
"p  c #422B22",
"a  c #4C3528",
"s  c #5D3920",
"d  c #653E22",
"f  c #374715",
"g  c #304B10",
"h  c #3A5915",
"j  c #3A6416",
"k  c #347A15",
"l  c #3D4A2B",
"z  c #3B6226",
"x  c #47520B",
"c  c #474914",
"v  c #58411A",
"b  c #6F5211",
"n  c #4C750E",
"m  c #407312",
"M  c #696E10",
"N  c #485333",
"B  c #6D4322",
"V  c #66412B",
"C  c #714422",
"Z  c #794C27",
"A  c #7C4D27",
"S  c #7A502E",
"D  c #696A24",
"F  c #796225",
"G  c #3E4342",
"H  c #535556",
"J  c #745550",
"K  c #64695D",
"L  c #707271",
"P  c #950900",
"I  c #9E0800",
"U  c #A40A00",
"Y  c #AD0B02",
"T  c #AB0E09",
"R  c #B10700",
"E  c #B10B00",
"W  c #A51903",
"Q  c #A91612",
"!  c #942903",
"~  c #94390C",
"^  c #A3211E",
"/  c #A63834",
"(  c #844A0D",
")  c #85532B",
"_  c #8A572C",
"`  c #8E592D",
"'  c #915B2F",
"]  c #825232",
"[  c #945E31",
"{  c #985F31",
"}  c #A1413E",
"|  c #87692A",
" . c #9D6333",
".. c #986235",
"X. c #A26635",
"o. c #A56836",
"O. c #A86B37",
"+. c #AD6E39",
"@. c #B5733C",
"#. c #97564F",
"$. c #A44846",
"%. c #B54B4A",
"&. c #B45756",
"*. c #BA5554",
"=. c #896349",
"-. c #9B7372",
";. c #A17D7D",
":. c #359A0C",
">. c #28891C",
",. c #2C9510",
"<. c #2B9A19",
"1. c #379817",
"2. c #36991C",
"3. c #3B9C1B",
"4. c #18A919",
"5. c #36AC0E",
"6. c #2BA918",
"7. c #35AB17",
"8. c #3DA31B",
"9. c #39A818",
"0. c #2AB115",
"q. c #2BB11A",
"w. c #39B117",
"e. c #199522",
"r. c #278D21",
"t. c #318925",
"y. c #299422",
"u. c #359625",
"i. c #3C9C23",
"p. c #2BA424",
"a. c #37A423",
"s. c #2FB023",
"d. c #4A970D",
"f. c #439B19",
"g. c #559D14",
"h. c #4CA50C",
"j. c #4BA90B",
"k. c #59AF04",
"l. c #55A909",
"z. c #53AB0C",
"x. c #4AB80C",
"c. c #55B204",
"v. c #5CB505",
"b. c #5DBA06",
"n. c #56B20C",
"m. c #5BB50C",
"M. c #55BB0A",
"N. c #5EBA0B",
"B. c #44A515",
"V. c #4BA513",
"C. c #4BA915",
"Z. c #43A41B",
"A. c #47A818",
"S. c #45AB1C",
"D. c #4DAB1C",
"F. c #53AC13",
"G. c #57A916",
"H. c #4AB617",
"J. c #4CB31D",
"K. c #54B315",
"L. c #5BB413",
"P. c #5DBB13",
"I. c #59B41A",
"U. c #56B91A",
"Y. c #62A90D",
"T. c #62B506",
"R. c #63BC05",
"E. c #69BE04",
"W. c #61B50C",
"Q. c #63BB0C",
"!. c #6ABD0B",
"~. c #62A415",
"^. c #62B613",
"/. c #63BB13",
"(. c #68B917",
"). c #64BC1A",
"_. c #449B22",
"`. c #529735",
"'. c #649228",
"]. c #43A422",
"[. c #48A424",
"{. c #44A922",
"}. c #4CAB23",
"|. c #49AB2B",
" X c #50AC22",
".X c #47B622",
"XX c #55B423",
"oX c #48A732",
"OX c #70BA32",
"+X c #4DC209",
"@X c #5CC209",
"#X c #59C112",
"$X c #66C203",
"%X c #6BC404",
"&X c #6EC802",
"*X c #65C20B",
"=X c #6BC30B",
"-X c #6AC80F",
";X c #71C504",
":X c #73C903",
">X c #79CA07",
",X c #72C50C",
"<X c #75CB0A",
"1X c #7AD009",
"2X c #65C214",
"3X c #6AC413",
"4X c #6AC917",
"5X c #66C21B",
"6X c #6AC519",
"7X c #76C814",
"8X c #76C914",
"9X c #56C121",
"0X c #67C222",
"qX c #73C12D",
"wX c #59964C",
"eX c #6A934F",
"rX c #6E8856",
"tX c #73AE50",
"yX c #6F8D6C",
"uX c #76A264",
"iX c #8A977C",
"pX c #7A878B",
"aX c #838A89",
"sX c #869B86",
"dX c #95968A",
"fX c #A79996",
"gX c #96A68F",
"hX c #A0AD9E",
"jX c #BEA49D",
"kX c #99A4A7",
"lX c #ABB0AB",
"zX c #ADB8B5",
"xX c #C1A5A0",
"cX c #CFB1AF",
"vX c #CBB5B3",
"bX c #D2B5B4",
"nX c #B6C2BF",
"mX c #B9C6C8",
"MX c #BFCFD0",
"NX c #CACBCC",
"BX c #C9D3D4",
"VX c #D6DADB",
"CX c #DDE1E1",
"ZX c #E3E7E8",
"AX c #EBECED",
"SX c #EBEFF0",
"DX c #EDF1F1",
/* pixels */
"6X0X0X0X2Xb.v.k.v.R.;X:X;X8X1X<X1X8X8X8X8X,X<X>X>X>X:X:X%X$X&X&X&X&X<X<X<X<X:X%X%X=X%X%X$X%X%X%X$X%X$X$X@Xb.",
"5X4X*X3X-X<X;X;XE.E.W.T.R.=X=X=X,X7X7X7X8X8X7X!.!.;X=X%XR.b.$X&X:X&X<X<X<X:X:X&X%X=X%X&X%X%X%X%X%X%X$X%X$X$X",
"3X4X-X-X7X7X8X1X8X8X7X7X;X%X=X%X=X=X3X=X;X=XE.W.T.^.R.R.b.R.R.$X&X&X&X:X:X:X&X%X%X*X$X$X$X$X%X%X%X%X%X$X$X$X",
"*X4X3X=XR.!.,X8X6X8X8X8X<X>X>X>X>X<X=X,X=X3X(.6X6X0XQ.R.R.R.$X$X$X$X&X&X:X:X:X&X%X%X$X$X$X&X%X=X$X$X*X$X$X$X",
"*X=X=X$X*XN.*XR.W.^.^.!.!.3X3X3X3X/.(.P.).)./.).6X2XE.E.R.$X%X$X$X$X&X%X;X;X;X;X&X%X$X$X$X&X%X$X$X*X$X$XN.L.",
"=X*X/.=X3X2XP.v.L.).I.W.W./.L.N.K.I.XXI.0X5X6X3X3X=X%X;X%X%X&X&X&X:X%X%X%X%X%X;X%X%X$X$X$X$X$X*Xb.N.R.2XU.K.",
"%XQ.).2X2X).).Q.N.N.^.^./.Q.R.m.z.F.V.B.D.P.).3X!.;X=X%X=X0X0XOXqXqXqXOX(.;X>X;X$X$XR.b.R.E.E.Q.).P.c.L.K.I.",
"*X*XN.N.5X5XN.R.R.Q.T.v.T.I.`.wXeXtXrXeXeXrXrXrXK rXrXrXuXiXiXiXdXgXgXsXL OX!.>X:X;X,X<X%X$XT.N.m.z.b.T.).L.",
"=X*X$XR.Q.2X3X$X/.).Q.T.Y.'.iXfXjXxXjXxXxXcXcXcXbXcXcXbXvXbXbXbXbXbXvXlXmXkXtX(.>X>X=XR.!./.m.Q./.5X*XR.Q.P.",
"!.,X6X2X/.W./.%X$XQ.R.v.Y.F / %.%.%.%.%.%.*.*.*.*.*.*.*.&.*.*.*.*.&.;.NXDXZXzXtX!.;X%XE.E.;X3X6X3X*XR.R.R.N.",
"E.!.!.!.Q.!.W.$X%X=XR.Y.b W E E R R R R E R R R E E E R R R Y R T #.zXAXZXNXVXhXtX!.(.E.E.E.E.!.E.R.R.Q.R.N.",
"!.T.E.T.R.!.(.^.Q.3X!.'.~ R E E E E E E E E E E E E E E E E E T $.jXAXZXkXL zXVXhXeX^.(.Q.=X3X2X/.b.Q.Q./.#X",
"!.T.W.$XE.!.(.).!.!.~.( T E E E E E E E E E E E E E E E E E Y } fXAXDXzXH # H zXVXhXwXG.I.P.P.b.W.b.m.P.U.L.",
"!.T.E.R.R.W.!.E.!.Y.M W E E E E E E E E E E E E E E E E E R / dXVXDXNXL a # # L mXVXhXwX[.XX).b.v.m.I.I.K.K.",
"W.T.R.R.R.!.E.E.(.n ! E E E E E E E E E E E E E E E Y E R Q ;.VXDXmXL ] C a . # K mXCXgXwX9.m.M.m.XXXXXXJ.J.",
"W.!.Q.R.R.E.E.W.'.~ E E E E E E E E E E E E E E E E Y R Q -.NXSXBXaX=.O.O.Z 0 . $ L mXVXgX`.B.K.I.XX.X}.}. X",
"m.).Q.R.R.R.E.T.b W E E E E E E E E E E E E E E E E E Q #.bXDXCXdX=.+.@.@. .C 0 X $ L mXBXsXwXB.}.}.}.}.}.S.",
"F.L.Q.Q.R.R.T.M ! U E E E E E E E E E E E E E E E R T $.zXDXCXkXJ +.@.@.@.@.X.C 5 # $ L nXBXsX`.C.S.}.}.}.S.",
"v.v.W.^.W.W.d.t W Y E E E E E E E E E E E E E E E Y } fXZXZXlXJ X.@.@.@.O.@.@...d + # $ L MXMXsXoXZ.Z.Z.].{.",
"m.k.m.^.^.G.n ! Y E E E E E Y R Y Y E E E E E E R / fXCXAXnXL X.@.@.@.@.'  .@.+.{ d # # G pXmXMXyX_.8.8.8.8.",
"c.k.k.m.W.n t P P I I U I I I U U I U U U U U U ^ -.VXSXmXL [ +.@.@.@.+.[ X.@.@.@.` y + X G pXmXmXrX2.a.8.8.",
"c.k.k.v.T.h = * * * * * * * * * - - - - ; - - - J NXSXBX-.S O.@.@.@.@...d ] +.@.@.+.) 6 . # N pXzXyX_.8.8.Z.",
"c.k.c.j.n.n 1 : ; ; ; ; ; ; ; ; ; ; ; ; ; ; ; - L VXBXdX=.S +.@.@.@.@.o.] { @.@.@.@.O.e 5 X # N K `.Z.B.8.Z.",
"c.k.k.l.m.g.x > > ; ; ; ; ; ; ; ; ; ; ; ; ; ; ; J kXaX=...] @.@.@.@.@.+.+.+.@.@.@.@.+.d d r k d.1.Z.B.B.8.].",
"v.k.L.z.z.F.n h o =   = = = % % % & & & & & & * 9 H a [ .._ +.@.@.@. ._ Z _ X.+.@.@.O.B { | Y.m.c.I.F.Z.Z.].",
"k.k.F.z.j.m.k.d.c 8   5 a p p p p p p p + + + + = 5 w ` X._ @.@.@...s 0 < 4 q Z +.@.O.C o.| ~.T.Q.^.L.F.C.}.",
"k.m.z.F.j.l.k.h.c e 7 0 s w e s e e s s s s w 5 0 e e `  ._ +.@.+.B 3 2 2 , 2 q { @.+.C o.| ~.W.Q.N.R.N.K.L.",
"k.z.z.F.j.l.z.g.x w 7 5 5 6 6 7 7 6 7 7 8 9 8 5 8 s y ` X.` +.@.' q 2 2 2 , 2 2 i O.O.C O.| ~.T.*XR.R.b.W.R.",
"z.F.F.F.z.G.z.h.x v q 5 8 e e w e w w w 8 w 8 5 8 e r _ O.` +.+.B O O O O O O O + _ X.C o._ G.W.R.R.T.N.v.v.",
"j.h.F.F.F.C.G.h.j r q 7 y y y y d e y d y y y 8 8 y r ) O.` +.+.i . . . . . . . . A o.B X.| G.W./.Q.).P.N.c.",
"l.j.j.j.h.h.z.h.n r e 5 e y y y y y y y y u y w 7 r u A o.) @.+.i O O O O O X O O Z X.C o.| G.).)./.Q./.Q.v.",
"l.l.l.l.h.h.h.h.k r e o 6 8 9 e e w e e e y e 8 6 y i Z o.) +.+.u 2 2 2 2 2 , 2 2 )  .C o.F g.z.P././.Q.R.b.",
"j.j.h.h.V.G.V.d.k r w 5 6 8 6 7 6 6 7 6 5 5 5 = o r u C X.A +.+.i 3 2 2 2 2 2 2 3 _  .C X.F g.B.F.)./.N.b.b.",
"h.V.F.h.C.G.V.B._.c e 5 e y y u y r r e e e y w 5 r y B X.A +.+.r o o o + + O o o ) X.C  .F g.f.}.F.^.Q.v.N.",
"F.F.F.h.G.G.D.Z._.0 w 6 w y y y y y y y e e e 8 5 e r i X.A +.+.0 . O . . . . . . S o.C  .F G.Z.3.B.K.N.b.v.",
"F.C.C.V.V.Z.f.Z.1.c e 7 8 w 8 8 8 8 6 6 6 6 5 o   y e e X.) +.+.a . . . . . . . . S  .B  .D Y.F.Z.2.j.n.c.M.",
"C.V.Z.S.}.].{.a.u.h r 0 o 6 6 8 8 w e w w y y 8 5 e r r  .Z O.O.r o , , , , , , 4 '  .B X.D k.v. X_.2.8.x.c.",
"S.S.|.|.}.].a.2.>.h r w 6 e y y y y y y y y y y 6 q e r { B ' ' q 2 2 2 2 3 , 2 4 ` [ B  .D l.b.L.C.i.u.8.B.",
"oX|.{.Z.Z.3.1.2.2.j r 0 6 e y s e e y y y y y e 5 7 q 8 _ u u y o o 3 3 2 3 , 2 3 V V 0 i m k.v.v.m. Xi.1.:.",
"|.|.|.{.Z.8.9.i.a.t.z h @ c N l l f 0 @ @ @ @ @ @ @ f g c f f g g g g f h f h l l N N z h k V.c.v.v.F. X].f.",
"3.|.|.}.}.Z.].].a.i.>.>.>.k t.t.k k e.t.r.e.y.>.>.r.r.6.<.<.a.8.,.,.<.p.p.y.s.<.8.[.[.[.d.f.G.F.F.n.n.I.}.}.",
"8.].{.8.8.2.3.3.3.2.2.2.u.u.2.>.r.e.e.y.].y.oX].,.6.<.7..X{..XH.5.6.6.6.q.q.6.q.9.9.V.}.9.B.B.B.[. XI.I.K.F.",
"u.2.a.1.>.1.2._.f.f.i.i.i.oX].2.y.e.e.<.}.a..X0XU.H.5.S..XU.H.XXw.5.w.6.6.q.q.0.w.7.w.H.S.C.B.2.3.f.D.K.m.m.",
">.2.u.>.>.2.,.3.1.3._._._.|.oX].9.7.a..XJ.U.H.U.2XP.x.x.x.#XP.U.U.U.J.8.7.q.0.q.s.6.9.9.8.].}.D.C.A.F.n.c.m.",
",._.y.t.y.u.2.:.:.:.3.8.A.A.J.XXx.x.H.U.U.M.x.c.R.#X*Xb.@X#X2X2X5X0XJ.H.x.0.q.s.q.0.7.S.w.8.S.C.J.K.K.L.m.c.",
"3.a.>.y.r.a.9.:.:.f.a.9.S.x.K.K.U.+X+X#X*X*X*X*X2X5X*X*X3X*X*X3X3X2X/.M.+Xw.w.q.0.0.7.w.x.A.J.C. XC.C.K.L.m.",
"oXt.<.<.y.<.a.9.:.1.9..X.XH.#XXX+X+X+X@X#X#X@X3X4X0X4X3X2X3X3X3X3X3X2XQ.#XH..Xq.q.0.q.6.7.w.w.A.J.B.B.B.D.K.",
"i.u.u.e.r.a.<.7.7.,.6.w.+XH.H.#X#X+X+X+X@X@X@X2X4X4X4X-X3X2X4X3X2X3X3X2X2X9X.Xw.6.q.4.4.4.4.q.s.6.:.8.i.].S."
};
