/* XPM */
static char *_7913688277640c78035928e5668f30c00t65ZERy9gMcFXU[] = {
/* columns rows colors chars-per-pixel */
"46 47 197 2 ",
"   c #147E13",
".  c #764D3D",
"X  c #7A513F",
"o  c #2F3D47",
"O  c #323E47",
"+  c #3A3D47",
"@  c #333F48",
"#  c #473C48",
"$  c #573B48",
"%  c #663748",
"&  c #6B3749",
"*  c #6B3A49",
"=  c #703D4B",
"-  c #344047",
";  c #384146",
":  c #354048",
">  c #3B4549",
",  c #464648",
"<  c #46494B",
"1  c #584846",
"2  c #565856",
"3  c #624B45",
"4  c #754847",
"5  c #6D5649",
"6  c #755040",
"7  c #7C5542",
"8  c #665957",
"9  c #766653",
"0  c #6A7A5F",
"q  c #6F6A6C",
"w  c #825948",
"e  c #8A6A51",
"r  c #946C58",
"t  c #997655",
"y  c #A27D59",
"u  c #826860",
"i  c #8B7B62",
"p  c #997E62",
"a  c #A67E62",
"s  c #17930F",
"d  c #299907",
"f  c #389906",
"g  c #278B19",
"h  c #29961A",
"j  c #3C9C13",
"k  c #359819",
"l  c #3B9C1B",
"z  c #12AB14",
"x  c #2AA906",
"c  c #39A703",
"v  c #3CA20C",
"b  c #39B509",
"n  c #2AA918",
"m  c #3AA519",
"M  c #33AB1B",
"N  c #2AB117",
"B  c #3BB31A",
"V  c #189026",
"C  c #288B23",
"Z  c #349422",
"A  c #349B24",
"S  c #3A9B27",
"D  c #0FA526",
"F  c #36A727",
"G  c #3BA726",
"H  c #32AD25",
"J  c #2BB323",
"K  c #439D02",
"L  c #419C14",
"P  c #429E1A",
"I  c #44A401",
"U  c #4DAB01",
"Y  c #48A608",
"T  c #4CA50C",
"R  c #55AC07",
"E  c #5AAD01",
"W  c #50A70E",
"Q  c #4CB302",
"!  c #55B201",
"~  c #5BB401",
"^  c #55BA01",
"/  c #5DB902",
"(  c #54B50C",
")  c #5CB50C",
"_  c #5DB90C",
"`  c #4BA514",
"'  c #45AB13",
"]  c #4DAB14",
"[  c #42A41C",
"{  c #49A719",
"}  c #45AB1C",
"|  c #57AC18",
" . c #47B519",
".. c #5AB413",
"X. c #5BB31B",
"o. c #58B818",
"O. c #63BC01",
"+. c #6BBD01",
"@. c #66B709",
"#. c #63BB0C",
"$. c #71BE03",
"%. c #63BB13",
"&. c #65B71B",
"*. c #63BC1B",
"=. c #419D25",
"-. c #58992F",
";. c #449A33",
":. c #619A3E",
">. c #46A825",
",. c #4AAC2A",
"<. c #57AD25",
"1. c #48B525",
"2. c #54B323",
"3. c #58B624",
"4. c #58B82A",
"5. c #64A82E",
"6. c #65B824",
"7. c #4DC105",
"8. c #5BC203",
"9. c #4FC113",
"0. c #5AC219",
"q. c #65C201",
"w. c #6BC401",
"e. c #6EC901",
"r. c #65C20C",
"t. c #6BC40C",
"y. c #72C501",
"u. c #79C700",
"i. c #75C900",
"p. c #75CA09",
"a. c #7BD004",
"s. c #65C314",
"d. c #6BC414",
"f. c #6CC815",
"g. c #67C31B",
"h. c #74C916",
"j. c #7CD115",
"k. c #5BC225",
"l. c #65C223",
"z. c #6BC424",
"x. c #74CB2A",
"c. c #568442",
"v. c #679451",
"b. c #71AC50",
"n. c #77896B",
"m. c #83D207",
"M. c #84D015",
"N. c #A8855D",
"B. c #978564",
"V. c #8C947D",
"C. c #AA8B65",
"Z. c #B18C64",
"A. c #AA946A",
"S. c #B69768",
"D. c #AA9578",
"F. c #B9A971",
"G. c #C3A86F",
"H. c #CAA772",
"J. c #C4A874",
"K. c #CDAB73",
"L. c #D1AD74",
"P. c #CBB577",
"I. c #D4B778",
"U. c #CFC17D",
"Y. c #D7C37D",
"T. c #8C7E82",
"R. c #8C8E85",
"E. c #919B88",
"W. c #9D9795",
"Q. c #A39C9D",
"!. c #9FA796",
"~. c #A9B092",
"^. c #ACA9A6",
"/. c #B4ACAB",
"(. c #BBB4B4",
"). c #BBB4B5",
"_. c #CDB990",
"`. c #C5B7AE",
"'. c #C4BCBA",
"]. c #DBCB81",
"[. c #DFD785",
"{. c #D0CC92",
"}. c #E2D886",
"|. c #E3DF8C",
" X c #E5E28A",
".X c #EAE58B",
"XX c #EDEA8D",
"oX c #F0EE8F",
"OX c #F2F190",
"+X c #CDC5B1",
"@X c #C7C3BB",
"#X c #C8BFC0",
"$X c #CBC2C3",
"%X c #D2C8C7",
"&X c #D8D0D0",
"*X c #DCD4D4",
"=X c #E2D9DA",
/* pixels */
"q.w.w.t.f.q.w.w.w.t.t.w.y.p.j.p.p.i.i.e.q.O.O.q.d.d.t.p.h.h.h.h.f.g.w.w.f./ ! ) E ~ +.y.a.j.",
"w.q.q.w.w.w.q.q.q.w.t.e.e.i.i.i.i.e.e.q.q._ / O.O.%.~ ! O.+.+.+.+.+.+.+.@.w.y.h.j.j.M.M.M.y.",
"q.w.w.w.w.w.w.q.q.t.w.e.i.w.e.e.e.q.q.q.q.q.~ O.O.*.z.z.f.f.i.p.h.a.a.a.m.a.m.j.j.j.g.d.d.q.",
"q.q.s.w.w.w.w.q.w.w.e.y.i.e.e.w.q.q.q.q.w.q.q.+.w.d.d.#.%.o.o.%.*.*.d.w.g.w.$.%.) E ~ O.q./ ",
"w./ ~ O.+.q.q.q.q.t.e.w.e.w.w.w.e.y.p.y.w.w.w.q.w.t.s.f.l.g.l.z.2.<.R ) ...._ ! X.6.*.~ ~ z.",
"! %.*.@.+.+.O./ O.q.w.w.w.e.w.h.& # O @ @ @ O 1 w h.h.h.h.l.X.] } ] X.) ~ %.%.%.%.~ ~ #.*.z.",
"! I E ~ t.d.e.h.p.u.t.u.u.u.u.& & # o O @ @ O 1 7 7 E ~ ~ R U U 3.o.*.%.#.%.O.O.~ @.O.O.O.#.",
"h.x.&.! ! ~ O.O.w.u.u.a.u.u.& r C.t B.5 1 9 t 9 4 3 : %.%...%.O.#.O.O.O.%.O.o.~ O.*.%.+.r.l.",
"O.q.h.z.h.u.p.w.w.y.u.u.u.& % C.L.K.P.t 7 N.L.B.& # - : +.O.O.#.#.#.#.%.%.~ ~ ~ O.w.w.d.r.! ",
"O./ O.@.O.O.+.+.+.+.O.w.& r r J.Y.}.Y.S.y G.].J.Z.i 1 1 o O.O.%.#.#.#.%.~ ~ ~ r.q.t.y.+.! %.",
"%.#.t.s.g.d.+.6.3.~ +.& & S.L.}.OXoXoXY.L.}.XXoXOXF.. 3 O O %.%.O.#.O.~ ! ~ z.f.t.d.%.O.*.@.",
"~ ~ ^ O.O.#.3.{ I ~ w.& & S.].}.XXXXoXJ.y P.XXXXoXK.t 9 O O @.#.O.O._ ! %.s.w.q.d.+.+.*.&.w.",
"X.) ~ O.*.4.G v U w.y.& & P.OXOXXXXXoXN.. F.OXXXXX].L.i o O / #.#.&.! / #.+.+.+.+.+.t.$.+.#.",
"2..._ #...c j X.t.w.w.$ # U.OXXXXXXXoXF.r F.Y.XXXX}.].B.# , ^ ^ ......&.%.#.#.O.O.@.d.+.+.O.",
">.4.X.X.I I o.*.@.+.w.O o F.OXXXoXXXXXY.K.K.L.Y.OXXXXXF.& & ! X.( U 6.&.*.%.%.O.+.p.w.+.+.O.",
"1.,.>.' { 2.6.! ~ ~ @.O o A.].U.P.].}.L.Z.Z.S.I.XXXXoXS.& & ( 2.U ..%.%.O.%.) ~ O.w.w.+.O.O.",
"] ] ] ' E o.......E ! - : 1 3 > - p J.t X X 7 S.OXXXoXF.& & 2.X.U _ %.O.O.%.~ / O.+.w.O.O.O.",
"[ { { ! ( } U 3.! E ( 2 2 9 t 1 - B.L.y e w X S.OX.X.XS.% * 2.` X.#.g.%.%.~ ~ O.#.+.+.O.O.%.",
"G S >.( { [ 4.: O O O A.K.}.OXt % a L.H.L.r & A.OX].K.C.% * I U : , 6 5 - ; @.%.*.%.O.O.O./ ",
"[ >.=.>.j [ G - O + + A.L.}.OXt 4 C.L.L.H.r $ B.}.I.S.p % % I ] > 1 e 9 < , #.O.#.#.O.O.O.O.",
"[ P >.S H A k : : % % U.oX.XoXI.H.}.XXY.L.9 @ 1 = 4 w 3 O , & 4 7 t .X[.K.A.: : #.%.*.*.%.O.",
"v ;.V.^.!.b.<.- O & 4 P..XoX.XY.L.Y.XXY.K.i > 1 = 4 7 3 > # = 4 7 t OX}.L.A.> : #.%.*.%.) o.",
"v c.E.).@X~.b.- o A.H.}.oX.XXXoXXXY.K.[.XXU.H.t 4 7 7 4 3 * * 4 7 r K.I.XXU.% * _ ) #.#.~ %.",
" .c.E.).*X$X~.q q D.J.[.|..XXX.X X_._._. XY.H.C.7 w 7 4 = 4 * 4 w r K.I.OXY.& & #.~ ~ ~ ) o.",
"O.:.V.(.*X&X@X^.Q.W.T.D.~.]..X|.{.`.$X`.~.K.K.Y.}.}.[.}.}.[.[.}.}.}.XXXXXX].$ & ~ ..~ @.~ ~ ",
"O.v./.&X*X$X).).#X$X#X$X+X`.`.`.%X&X*X$X_.H.H.Y.oX.XXXXXXXXXXXXXoX.XXXXXXXY.* & ) R R R R E ",
"O.0 ^.'.(.!.E.E.Q././.).'.'.'.#X*X=X=X%XQ.a L.L.I.].XXXXXXXXXX}.P.]..X}.I.S.; : R W E U R U ",
"&.c.V.R.V.v.-.;.c.2 q i R.Q./.#X&X=X*X'.T.y L.K.H.].XXXXXXXXXX].H.I.oX}.K.A.- O ] ` ] | W T ",
"%.| :.v.5.3.T R 6.X.5.:.v.v.n.T./.&X*X/.q w r Z.K.L.I.I.I.].XX[.H.K.I.F.2 2 O + W W W W W W ",
"%.@.X.&.( U U #.%.*.&...| | ;.2 R.$X&X`.u X X N.K.H.H.K.L.Y.oX}.H.K.L.C.o O @ O { { ` ` W U ",
"%.&.o...[ l o.O.~ ~ #.%.&.R @ < q Q./.W.u t S.S.K.L.K.S.e N.I.I.K.S.t 9 o O f K I ` ` ` W U ",
"%.%.2.` f o._ ~ ~ / %.*.! + @ @ + 8 8 8 6 N.L.K.L.L.L.Z.X r K.K.L.Z.X 3 @ @ f f Y K K T ` ` ",
"%.) [ f R ../ ~ ~ @.: : : : : - - 1 1 t C.N.t t e 9 9 5 4 w t N.I.S.6 X $ $ + @ I ] ] T T ] ",
"~ [ Z ` ..) ~ ~ ~ : : : : : : : O 3 7 Z.I.y 6 4 * $ O + * 4 7 r I.Z.7 . * % : > k P [ >.,.<.",
">.Z f ~ ~ ~ ~ ~ %.: : : : : : : - 9 N.y y 5 1 $ # # @ # # $ 4 w y y N.t $ , : @ >.>.k j P L ",
"Z Z 2.~ ~ ~ ~ ~ o.> : : : : : : o B.I.t 7 1 - - - : : : - # & 4 X e I.A.: : + O g d ,.,.{ >.",
"Z <.~ ~ ) ~ .._ ( c @ + : : : : O 9 i 9 1 , - - - : : : - # 1 $ 1 5 i 9 ; ; @   C g g j >.,.",
"<.! ~ ~ ! ( o.X.W Y 1.- : : : : : O o o O - - > : : : : : : : O O O O @ O + S g g C A h h k ",
"~ ~ ~ ( U 3.] ' ] ' [ m : : : : : : : : : : - - : : : : : : : : @ : : + O + g ;.>.m G >.' j ",
"( ~ | U { } c | ] ' m M M F N : : : : O : : - - : : : : : : : : ; @   g V g g   k S S >.>.,.",
"X.<.S A [ L c 1.' m M N N M n H : : : - : : ; > - > : : - - ; ; O O Z g k S S k Z Z l j f f ",
"| l k f v ' >.} ' B M N J N z n B c  .o.Q 9. .B d ' 1.x.>.F o.s V s g S =.=.S k k S P P A g ",
"I ` ] 2.<.>.Y c M M G N N x n F o.4.3.o.0.0.^ Q ^ 0.f.o.f k.Q 1.h J ,.m ,.,.L l ;.j L L k k ",
"2.2.| I ' [ c B M N B N N b  .c 4.0.s.s.s.0.8.8.r.q.q.! ^ ^ 0.0. .Q Q 3.2.c ,.m j f f j f G ",
"| ] } } X.}  .' M N z z J b 7.^ o.s.f.d.s.q.s.q.q.l.l.8.d.g.q.0.9.Q 9. .Q 4.I B F P j f k F ",
"I v 1.1.x B M M N N N J 1. .^ d.g.s.f.d.d.f.s.0.f.z.s.q.8.0.0.8.7.7.9.k.k.Q 1.1.M h d l >.h ",
"m s H H J z D z z N n b o.l.g.q.d.g.d.d.d.f.s.f.f.f.s.d.s.8.8.7.7.7.9.9. .3.} b x d x M h F "
};
