/* XPM */
static char *c8761320e5694a63b5145e05f34e9f0bjJ19vHuP1MGnUa0P[] = {
/* columns rows colors chars-per-pixel */
"46 47 200 2 ",
"   c #147E13",
".  c #764D3D",
"X  c #7A513F",
"o  c #2F3D47",
"O  c #323E47",
"+  c #3A3D47",
"@  c #333F48",
"#  c #473C48",
"$  c #573B48",
"%  c #663748",
"&  c #6B3749",
"*  c #6B3A49",
"=  c #703D4B",
"-  c #344047",
";  c #384146",
":  c #354048",
">  c #3B4549",
",  c #464648",
"<  c #46494B",
"1  c #584846",
"2  c #565856",
"3  c #624B45",
"4  c #754847",
"5  c #6D5649",
"6  c #7C5542",
"7  c #665957",
"8  c #5D7F4A",
"9  c #766653",
"0  c #6A7A5F",
"q  c #6F6A6C",
"w  c #825948",
"e  c #8A6A51",
"r  c #946C58",
"t  c #997655",
"y  c #A27D59",
"u  c #826860",
"i  c #8B7B62",
"p  c #997E62",
"a  c #A67E62",
"s  c #17930F",
"d  c #299907",
"f  c #389906",
"g  c #278B19",
"h  c #29961A",
"j  c #3C9C13",
"k  c #359819",
"l  c #3B9C1B",
"z  c #12AB14",
"x  c #2AA906",
"c  c #39A703",
"v  c #3CA20C",
"b  c #39B509",
"n  c #2AA918",
"m  c #3AA519",
"M  c #33AB1B",
"N  c #2AB117",
"B  c #3BB31A",
"V  c #189026",
"C  c #288B23",
"Z  c #349422",
"A  c #349B24",
"S  c #3A9B27",
"D  c #0FA526",
"F  c #36A727",
"G  c #3BA726",
"H  c #32AD25",
"J  c #2BB323",
"K  c #439D02",
"L  c #419C14",
"P  c #429E1A",
"I  c #44A401",
"U  c #4DAB01",
"Y  c #48A608",
"T  c #4CA50C",
"R  c #55AC07",
"E  c #5AAD01",
"W  c #50A70E",
"Q  c #4CB302",
"!  c #55B201",
"~  c #5BB401",
"^  c #55BA01",
"/  c #5DB902",
"(  c #54B50C",
")  c #5CB50C",
"_  c #5DB90C",
"`  c #4BA514",
"'  c #45AB13",
"]  c #4DAB14",
"[  c #42A41C",
"{  c #49A719",
"}  c #45AB1C",
"|  c #57AC18",
" . c #47B519",
".. c #5AB413",
"X. c #5BB31B",
"o. c #58B818",
"O. c #63BC01",
"+. c #6BBD01",
"@. c #66B709",
"#. c #63BB0C",
"$. c #71BE03",
"%. c #63BB13",
"&. c #65B71B",
"*. c #63BC1B",
"=. c #419D25",
"-. c #58992F",
";. c #449A33",
":. c #619A3E",
">. c #46A825",
",. c #4AAC2A",
"<. c #57AD25",
"1. c #48B525",
"2. c #54B323",
"3. c #58B624",
"4. c #58B82A",
"5. c #5FA438",
"6. c #64A82E",
"7. c #65B824",
"8. c #4DC105",
"9. c #5BC203",
"0. c #4FC113",
"q. c #5AC219",
"w. c #65C201",
"e. c #6BC401",
"r. c #6EC901",
"t. c #65C20C",
"y. c #6BC40C",
"u. c #72C501",
"i. c #79C700",
"p. c #75C900",
"a. c #75CA09",
"s. c #7BD004",
"d. c #65C314",
"f. c #6BC414",
"g. c #6CC815",
"h. c #67C31B",
"j. c #74C916",
"k. c #7CD115",
"l. c #5BC225",
"z. c #65C223",
"x. c #6BC424",
"c. c #74CB2A",
"v. c #568442",
"b. c #679451",
"n. c #71AC50",
"m. c #77896B",
"M. c #83D207",
"N. c #84D015",
"B. c #A8855D",
"V. c #978564",
"C. c #8C947D",
"Z. c #AA8B65",
"A. c #B18C64",
"S. c #AA946A",
"D. c #B69768",
"F. c #AA9578",
"G. c #B9A971",
"H. c #C3A86F",
"J. c #CAA772",
"K. c #C4A874",
"L. c #CDAB73",
"P. c #D1AD74",
"I. c #CBB577",
"U. c #D4B778",
"Y. c #CFC17D",
"T. c #D7C37D",
"R. c #8C7E82",
"E. c #8C8E85",
"W. c #919B88",
"Q. c #9D9795",
"!. c #A39C9D",
"~. c #9FA796",
"^. c #A9B092",
"/. c #ACA9A6",
"(. c #B4ACAB",
"). c #BBB4B4",
"_. c #BBB4B5",
"`. c #CDB990",
"'. c #C5B7AE",
"]. c #C4BCBA",
"[. c #DBCB81",
"{. c #D7CE89",
"}. c #DFD785",
"|. c #D0CC92",
" X c #E2D886",
".X c #E3DF8C",
"XX c #E5E28A",
"oX c #EAE58B",
"OX c #EDEA8D",
"+X c #F0EE8F",
"@X c #E7E390",
"#X c #F2F190",
"$X c #CDC5B1",
"%X c #C7C3BB",
"&X c #C8BFC0",
"*X c #CBC2C3",
"=X c #D2C8C7",
"-X c #D8D0D0",
";X c #DCD4D4",
":X c #E2D9DA",
/* pixels */
"k.i.u.+.~ E ) ! #.f.e.e.h.j.j.j.k.f.a.y.f.f.w.O.O.w.r.p.p.a.a.k.a.u.e.y.y.e.e.e.w.g.y.e.e.w.",
"u.N.N.N.k.k.j.u.u.@.+.+.+.+.+.e.+.O.! ~ %.O.O./ _ w.w.u.r.p.p.u.p.r.r.f.e.w.w.w.e.e.e.w.w.e.",
"w.g.f.f.k.k.k.M.s.s.s.s.i.j.a.r.f.f.x.x.*.O.O./ w.w.w.w.w.r.r.r.e.p.r.e.y.w.w.e.e.e.e.e.w.w.",
"/ w.O.~ E ) %.@.e.h.e.g.h.*.#.o.X.%.#.d.g.e.+.w.w.e.w.e.w.w.e.r.r.p.u.r.e.e.w.e.e.e.e.d.w.w.",
"x./ ~ *.7.X.! ) ....) R 2.2.x.z.h.z.h.t.y.e.w.e.w.r.i.y.u.r.e.e.e.r.e.r.y.w.w.w.w.w.O.~ O.e.",
"7.*.#.~ @.%.%.%.%.~ ) X.` } ] X.z.j.j.j.j.w 1 - @ @ @ @ # * j.e.r.e.e.e.w.O.~ O.+.+.@.*.%.! ",
"#.O.O.O.#.~ O.O.%.#.%.*.o.3.R I R ~ ~ E 6 6 1 - @ @ @ @ # & & i.i.i.p.a.i.a.j.e.g.y.~ E I ! ",
"z.t.+.%.*.O.~ _ O.%.O.O.O.#.O.%.o.%.%.; 3 4 9 t 9 1 5 V.t a r & i.i.i.i.i.e.O.@.~ ! ! *.c.j.",
"! t.g.e.e.O.~ ~ ~ %.%.#.#.#.#.O.O.+.: @ # * V.P.B.6 t I.L.U.Z.% & i.i.i.u.e.e.a.p.j.x.j.O.O.",
"%.! +.u.y.w.t.~ ~ ~ %.#.#.#.%.O.O.o 1 1 i A.H.[.H.y D.T.}.T.H.r r & e.O.+.+.+.+.O.O.@.O./ O.",
"$.*.~ %.f.y.g.x.~ ! ~ O.#.O.%.%.- @ 3 . G.#X+XOX XP.T.+X+X+X XP.D.& * +.~ 3.&.w.g.h.d.t.#.%.",
"+.&.*.O.+.g.w.e.h.%.~ ) O.O.#.#.@ @ 9 t L.+XOXOXI.y J.+XOXOX X[.D.* & e.~ I { 3.#.O.O.^ ~ ~ ",
"#.+.$.y.O.+.+.+.+.#./ E *.#.#./ @ o i P.[.OXOX#XG.. B.+XOXoX+X#XI.* * u.e.U v >.4.*.O.~ ) o.",
"O.+.+.g.@.O.O.#.#.%.X...) ..^ ^ , # V.[. X+XOXT.G.r G.#XOXOXOX#XU.# $ e.e.d.| j c ..#.#...2.",
"O.+.+.e.a.+.O.%.%.*.&.7.U ( X.! & & G.OXOX+XT.P.L.L.T.OXOXOX+X#XG.o - w.+.#.*.o.I I 3.X.4.2.",
"O.O.+.e.e.O./ ..%.O.%.%...U 2.( & * D.OXOXOXU.D.A.A.P. X[.I.T.[.S.o @ @.~ ~ ~ 7.2.[ ' >.,.>.",
"O.O.O.w.+.O./ ~ %.O.O.%.o.U o.2.& & G.+XOX#XD.6 X X t J.p @ > 3 1 @ @ ! E ..) o._ R Y ] ] ] ",
"%.O.O.+.+.#.O.~ ~ %.%.d.#.| ` 2.* % D.oXoX#XD.X w e y P.V.: 1 t 9 2 2 W E ! 2.U } ( ! } ` [ ",
"O.O.O.O.%.*.%.@.; @ 5 X < ; U I * % Z.L.[.#XS.% r P.J.P.a % t #X XL.S.@ @ - ; 2.>.{ ..>.S S ",
"O.O.O.O.#.#.O.#., , 9 e 1 > | I % % p D.U. XV.$ r J.P.P.Z.4 p #X XP.S.@ + - - >.[ v >.S >.[ ",
"O.%.*.*.%.#.@ : S.L.}.oXt 6 4 * , @ 3 w 4 = 1 @ 9 P.[.OX}.J.U.OXOXOXT.% % - : m =.k F ,.G m ",
"..) %.*.#.#.@ > S.P. X+Xt 6 4 * # > 3 6 4 = 1 > i L.T.OXT.P.T.oXOXOXI.4 * - : 4.b.~./.m.;.m ",
"o.~ #.#.) ) * % Y.OXU.P.r X 4 * * 3 4 6 6 4 y J.T.OX}.J.T.OXOXOXOXOX XK.S.- - n.^.%X_.W.v.' ",
"o.) ~ ~ @.#.& * T.+XU.L.r w 4 * 4 = 4 6 w 6 a J.T.XX`.`.`.XXoXOXXXXX{.G.F.q q ^.*X;X%XW.v.] ",
"O.~ @.E ..~ & $ T.+XOXOX X X X}.}. X X X X XT.J.J.^.'.*X'.|..X@X{.K.Q.F.Q.!./.%X-X;X_.C.:.O.",
"R R R R R ) * * T.OXOXOXoX+XOXOXOXOXOXOXoX+X[.J.J.(.*X:X;X%X$X'.].*X].].&X]._.(.*X;X;X(.b.O.",
"U R ! ! R R @ @ D.U. XOXT.I. XOXOXOXOXOX[.U.P.P.y !.=X:X:X:X%X]._._.'.(.!.!.W.E.~.%X].!.0 @.",
"T W W | { ] @ : S.L. XOXT.K.}.OXOXOXOXOX[.J.L.P.y p &X:X:X-X].(.Q.E.R.q 7 8 -.-.n.W.E.C.8 %.",
"T | W T T W + + 2 2 G.U.L.J.}.OX[.U.U.U.P.L.Z.e w 9 _.;X-X(.R.0 b.b.-.6.<.&.W T o.5.b.5.<.%.",
"U W T ` { >.@ @ @ @ B.J.L.J. X+XT.P.L.J.J.L.B.X w q _.;X*XE.2 -.<.X.) &.*.%.#.U I W X.X.#.%.",
"U W ` ` ` I K f ; @ 9 t D.L.U.U.B.e D.L.P.L.D.D.t u Q.(.Q.q , - ( *.%.#.~ ~ O.o.L L ..X.*.%.",
"` L T K K Y f f @ @ 3 X A.P.L.L.r X A.P.P.P.L.P.B.4 7 7 2 < ; - : ! *.%.O.~ ~ _ o.f ` 3.%.d.",
"| W W ] ] I @ + $ $ . X D.U.B.t w 4 5 9 9 e t t B.Z.t 1 1 @ @ @ ; @ : : #.~ ~ ~ _ ) f [ ) %.",
"<.>.>.[ j k > @ % * X 6 A.U.r X 4 * > @ $ & 4 X y U.A.6 3 @ @ @ @ ; : : : ~ ~ ~ ) ..` Z [ ~ ",
"L P L l ;.>.@ @ , $ t B.y y w 4 $ # # : # # $ 1 5 y y B.9 @ : : : : : : : *.~ ~ ~ ~ ~ f Z >.",
">.{ >.,.d g O + @ : S.U.e X 4 * # - - : @ @ @ @ 1 6 t U.V.@ : : : : : : : o.~ ~ ~ ~ ~ 2.Z Z ",
",.>.j g g C   @ ; - 9 i 5 1 $ 1 , - : : : - - - , 1 9 i 9 @ : : : : + @ c ( _ _ ~ ) ~ / <.Z ",
"k h h A C g g =.+ @ @ @ @ O @ @ : : : : : : > : @ @ @ @ @ @ @ ; : : @  .Y T X.o.( ! ~ ~ ~ <.",
"j ' >.m m ;.;.g + @ + : : : @ @ : : : : : : : : ; : : : @ ; @ @ : : m >.' ] ' ] 3.U ( ~ ~ ~ ",
",.,.S >.S k s g g V g   : : : + : : : : : : : - @ : @ @ @ @ ; N F M m m ' ] } c } { U | ~ R ",
"f f j l Z Z Z S A k g Z @ : : : - ; - - - - : : - - - - : @ H n M J N m m ' 1.c L [ l S <.X.",
"g A P [ l k k =.=.=.A h s V s 4.F >.c.3.' d B  .0.Q o. .c B n z N J N M M ' } ,.' v f k l X.",
"k k L L j ;.l L ,.,.l >.N h 1.Q l.f o.g.q.^ Q ^ q.q.o.2.4.o.F n x N N B M M c ' ,.2.<.] ` I ",
"G f j f f j m >.c 2.3.Q Q  .q.q.^ ^ ! w.w.t.9.9.q.d.d.z.q.4.c  .b N N B N M B c [ ` I } 2.2.",
"F k f j L G B I 4.Q  .0.Q 0.q.t.h.g.9.z.z.w.w.d.w.d.f.g.d.o.^ ^ b J z z x M '  . .o.} } T ] ",
"h ,.m d h M 1.1.Q l.0.0.8.8.9.q.0.9.w.d.x.g.q.d.g.f.f.f.d.h.d.^  .1.J N N N M M M d 1.1.' I ",
"F h M d d x b  .3. .0.0.8.8.8.9.9.h.f.d.g.g.g.d.g.f.f.f.h.g.w.h.x.o.b n J z z D z J B F s m "
};
