/* XPM */
static char *_36a1e53edcc448986f699160c2333cbkGKoqnAwDTS6dzAV[] = {
/* columns rows colors chars-per-pixel */
"54 49 218 2 ",
"   c #475700",
".  c #475800",
"X  c #495B00",
"o  c #456303",
"O  c #4C6100",
"+  c #476807",
"@  c #4A6B06",
"#  c #526C00",
"$  c #4B7201",
"%  c #45770D",
"&  c #4A7A0B",
"*  c #567300",
"=  c #587600",
"-  c #5C7D00",
";  c #198E01",
":  c #1D8315",
">  c #298E0E",
",  c #359F00",
"<  c #3D9C0A",
"1  c #288B18",
"2  c #378E1B",
"3  c #2E9017",
"4  c #339514",
"5  c #3A9614",
"6  c #3C9C13",
"7  c #33921C",
"8  c #39941D",
"9  c #38981A",
"0  c #2EA100",
"q  c #3BA30C",
"w  c #35A908",
"e  c #27A416",
"r  c #29A513",
"t  c #2CAD19",
"y  c #36A615",
"u  c #37A917",
"i  c #3DA31C",
"p  c #2BB316",
"a  c #2CB11B",
"s  c #1A8E23",
"d  c #0A9424",
"f  c #189827",
"g  c #219526",
"h  c #339523",
"j  c #3A9324",
"k  c #369927",
"l  c #3C9D2D",
"z  c #3DA123",
"x  c #3EA820",
"c  c #2AB220",
"v  c #36B421",
"b  c #5F8200",
"n  c #548C03",
"m  c #459B08",
"M  c #549C0D",
"N  c #5F9F09",
"B  c #4B8715",
"V  c #429417",
"C  c #419F17",
"Z  c #409D1F",
"A  c #638500",
"S  c #658A01",
"D  c #6C8C00",
"F  c #708F00",
"G  c #6B9200",
"H  c #669E03",
"J  c #619E0A",
"K  c #739200",
"L  c #799700",
"P  c #769A00",
"I  c #7B9900",
"U  c #46A403",
"Y  c #4CA504",
"T  c #48AF06",
"R  c #44A40D",
"E  c #4CA40A",
"W  c #44AE0E",
"Q  c #4DAA0A",
"!  c #54AC03",
"~  c #5BAD01",
"^  c #51A50E",
"/  c #5AA70A",
"(  c #52AB0D",
")  c #4DB903",
"_  c #4EB20C",
"`  c #56B101",
"'  c #5BB402",
"]  c #5DBA01",
"[  c #54B30B",
"{  c #5BB40C",
"}  c #5CBA0A",
"|  c #44A515",
" . c #4CA613",
".. c #4CAA13",
"X. c #42A31C",
"o. c #47A918",
"O. c #46A81C",
"+. c #4BAB1D",
"@. c #52A614",
"#. c #53AC14",
"$. c #54A51B",
"%. c #5CA119",
"&. c #54AC1A",
"*. c #46B11C",
"=. c #4EB21D",
"-. c #55B414",
";. c #5BB413",
":. c #54B914",
">. c #5CBB13",
",. c #54B21A",
"<. c #5AB41C",
"1. c #52BE1D",
"2. c #5CBA1B",
"3. c #66AC04",
"4. c #6BA804",
"5. c #65AD0C",
"6. c #75A805",
"7. c #61B002",
"8. c #63BC03",
"9. c #6ABE03",
"0. c #61B50D",
"q. c #64BC0B",
"w. c #6ABD0C",
"e. c #73BD06",
"r. c #76BC0B",
"t. c #66AF15",
"y. c #73AF13",
"u. c #62B512",
"i. c #64BC14",
"p. c #68BD11",
"a. c #60B71A",
"s. c #63BC1B",
"d. c #68BC1B",
"f. c #7BBB1B",
"g. c #449A25",
"h. c #44A323",
"j. c #4AA324",
"k. c #44AA23",
"l. c #4BAB22",
"z. c #44A62A",
"x. c #4AAC2C",
"c. c #51AE21",
"v. c #51AD2A",
"b. c #4FB222",
"n. c #4CB826",
"m. c #53B625",
"M. c #55B524",
"N. c #5BBC26",
"B. c #4AA136",
"V. c #5AB531",
"C. c #62B623",
"Z. c #64BD23",
"A. c #6CBE22",
"S. c #5EC302",
"D. c #58C00B",
"F. c #59C314",
"G. c #66C201",
"H. c #6BC503",
"J. c #6DC802",
"K. c #65C20B",
"L. c #6BC40B",
"P. c #6BC90E",
"I. c #72C602",
"U. c #79C602",
"Y. c #73CA02",
"T. c #7ACC02",
"R. c #71C40C",
"E. c #7BC60C",
"W. c #72C809",
"Q. c #75CB09",
"!. c #76CC0A",
"~. c #75CB0C",
"^. c #7ACD0A",
"/. c #7AD202",
"(. c #7DD302",
"). c #7CD20B",
"_. c #65C114",
"`. c #6BC313",
"'. c #69C814",
"]. c #65C11D",
"[. c #6AC31C",
"{. c #6DC919",
"}. c #72C513",
"|. c #72C911",
" X c #74C914",
".X c #7ACB13",
"XX c #73C518",
"oX c #79CC1A",
"OX c #7DD112",
"+X c #79D217",
"@X c #5AC720",
"#X c #66C223",
"$X c #6AC222",
"%X c #6CC924",
"&X c #71CB22",
"*X c #7CCE21",
"=X c #71D22D",
"-X c #809F00",
";X c #85A500",
":X c #87A802",
">X c #8AAB04",
",X c #8EB109",
"<X c #82B90C",
"1X c #8EBD0F",
"2X c #93B50B",
"3X c #96B90E",
"4X c #98BA0F",
"5X c #85B616",
"6X c #8ABD11",
"7X c #94BF11",
"8X c #9CBE11",
"9X c #86C10B",
"0X c #86C509",
"qX c #93C20E",
"wX c #82D408",
"eX c #8BC114",
"rX c #96C011",
"tX c #9FC113",
/* pixels */
"-.D.>.] D.K.G._.G.R.|..X^.T.T.T.Y.Y.I.Y.|.I.W.J.H.U.I.U.^.).T.J.J.I.I.I.T.T.U.Q.Y.Y.Y.Y.J.J.Y.J.Y./.~.R.H.H.",
"2.2.>.2.].[.#X'.].L.R.I.I.I.T.T.T.T.Q.T.wXT.Q.I.R.I.I.T.T.Q.W.Y.Q.I.I.I.T.Y.T.Y.Y.Y.Q.L.L.H.G.H.J.L.J.J.H.L.",
"{.|.`.R.L.I.J.I.I.Q.J.Y.T.I.U.U.T.U.E.T.T.T.U.Y.I.Q.e.I.U.Q.H.I.I.J.J.J.I.J.I.J.J.G.G.H.G.K.G.G.J.H.G.G.L.L.",
"T q.Z.[.Q.T.T.(.wX(.(.T.T.T.U.T.T.U.T.T.Y.I.Q.~.~.I.Y.Y.I.I.I.I.I.I.I.J.I.I.I.J.J.'.H.G.G.G.G.H.H.H._.L.L.G.",
":.U R ! G. X*XOX).wX(./.T.T.T.T.T.^.^.T.I.T.Y.T.Y.T.Y.Y.J.I.I.I.I.Q.Y.Y.I.Y.Y.J.J.H.G.G.G.G.G.G.H.G.K.G.} L.",
"%X%X#Xq.` ! / ' 8. XY./.oXOX/./..XoXoX|.~.E.U.I.T.Q.J.H.G.H.J.Y.J.!.!.Q.Y.I.J.H.L.H.H.G.G.H.H.G.H.G.H.S.} _.",
"{.S.K.|..X^.I.8.7./ ' 7.q.p.L.W.d.XX XoXoX}.e.R.R.R.L.8.] G.J.J.Y.!.!.!.Y.J.H.H.L.H.H.L.H.H.H.H.G.G.J.G.G.F.",
"'.P.P.L..XwXwXOX+XoX~.W.G.9.8.8.9.9.9.9.9.] ' ' 0.8.8.] ] G.G.J.H.Y.Q.Y.Y.Y.H.L.L.G.G.G.G.L.L.G.G.L.G.G.G.K.",
"P.[.K.9.w.`.}.XXXXOX).).(./.(.).).!.~.L.`.`.[.#X%X8.8.8.8.G.G.G.G.J.J.I.Y.Y.J.H.H.G.G.G.H.L.L.H.H.L.G.G.G.} ",
"K._.G.8.q.G.8.' ~ ;.u.q.`.`.`._.i.2.s.2.i.i.].d.s.8.G.G.G.G.G.G.G.H.H.J.J.J.I.H.L.G.H.G.H.H.H.G.K.G.H.s.{ ;.",
"L.K.H.'.].} ] a.A.<.{ ` ;.;.' [ &.N.#X#X#X_.`.L.L.I.G.G.H.J.J.W.I.G.H.H.H.H.I.I.H.H.8.G.G.G.8.] ] G.'.,. .M.",
"` Z.]._.s.Z.i.' { i.i.`.u.{ { -...+.+.,.[.%X X}.|.J.0XqXrXtXtX8XqXE.W.I.J.H.H.G.H.] 8.8.G.8.i.d.s.` Q #.<.N.",
"`.] ` $X_.] ] G.u.' ] 8.q.u.s.Z.i.-.( Q ( ~ ` ] r.tXtXtXtXtXtXtXtXtXqXT.T.U.I.I.H.+XJ.J.L.L.' ~ U ` p.].;.,.",
"K.G.8.' [._.G.>.A.8.' u.p.w.8.K.q._.q.q.q.q.8.r.tXtXtXtX4XtXtXtXtXtXtXtXU.T.T.T.~.8.] q.{ ~ ` _.%X|.G.8.i.2.",
"W.A.`.w.! [.L.H.w.8.] ' ' { q.w.} 8.} 0.q.9.9.tXtXtXtX>X;X;X,XtXtXtXtXtX9XU.U.U.I.W.H.H.Q.|.&X[.G.8.8.8.{ >.",
"w.w.w.q.w.` G.J.G.G.8.] ~ { u.q.8.8.w.w.8.9.9XtXtXtX3X;X;X;X;X>XtXtXtXtXrXR.w.9.9.w.9.9.8.8.8.G.} 8.8.0.} } ",
"~ 9.7.G.w.d.~ u.`.L. X[.>.` ] 7.q.8.q.p.w.9.qXtXtX3X>X;X;X;X;X;X:X2XtXtX8Xe.H.9.' C.u.w.L.XX$Xw.' p.>.i.F.>.",
"8.u.Y.8.w.d.A.8.9.L.L.U.qX7X6X0._.w.6XtXtXr.3XtX3X:X>X>X;X;X;X4XtX8X8XtXeX9XqXrX1X3.Q M._.8.` 8.8.{ >.>.:.:.",
"8.8.7.8.w.w.H.I.8.9.<XtXtXtXtX3Xq.tXtXtXtXtX8XtX4XtXtXtX2X;X4XtXtXtXtXtXtXtXtXtXtXtXy.j.V.2.S.` -.<.:.:.,.=.",
"q.8.8.0.q.9.9.9.L.e.tXtXtXtXtXtX7XtXtXtXtXtXtXtXtXtXtXtXtX8XtXtX4XtXtXtX4X2X2X4XtXtXtXM < } S.} -.M.b.=.=.=.",
"q.8.8.8.9.8.9.L.R.1XtX3X,X>X2XtXtX8X>X;X:X2XtXtXtX3X2X2X8XtX8X;X;X2X8X4X;X;X;X:X>XtXtX5X| R <.<.V.+.+.+.+.=.",
"Z.q.8.8.8.9.7XrXqX7X3X;X;X;X;X,X2X;X;X;X;X;X3X8X>X;X;X;X;X2X>X;X2X8X4XtX2X;X;X;X;X2XtXeX,.R o.j.v.l.c.l.+.o.",
"{ 0.w.8.e.tXtXtXtXtX>X;X;X;X;X;X:X;X;X;X;X>X8XtX2X,X;X;X;X;X;X;X:X;X;X:X2X2X;X;X;X:X8X5X>.[ W Q +.l.l.l.O.O.",
"' >.u.i.7X4X>X;X>X8X8X8X4X>X;X;X;X;X;X;X>X2X>X>X>X,X2X>X;X;X;X;X;X;X;X;X;X:X;X;X:X,XtXtXtX6Xq.=.| i X.X.k.k.",
"~ [ u.f.3X;X:X;X>X8X>X;X;X;X;X;X;X:X;X;X:X;X;X;X;X;X;X;X;X;X;X;X;X;X;X;X;X;X;X;X:X8XtX2X2X2X8X@.l i i i i i ",
"( ! { 6X>X;X;X;X3X>X;X;X;X;X;X;X;X;X;X;X;X;X;X;X;X;X;X;X;X;X;X;X:X;X;X;X;X;X;X;X;X2X8X;X;X;X:X5Xz.X.i i i i ",
"' ! ' 9X;X;X;X;X>X;X;X;X:X;X;X;X;X;X;X-X-X;X;X;X;X;X;X;X;X:X;X;X;X;X;X;X;X;X;X;X;X>X2X;X;X;X;X6.$.X.X.i i x ",
"~ ` m ,X;X;X;X;X;X;X;X-X;X;X;X;X;X-XI L I I -X:X;X-XI -X;X;X;X;X;X;X;X:X;X;X;X;X;X>X:X;X;X;X;XG %.q i X.i i ",
"~ { Y <X;X;X;X;X;X;X;X-XL L -X-X-X-X;X-XL I L I I L I L -X;X;X;X;X;X;X-XI I -X;X;X:X;X;X;X;XP G ^ | C X.k.X.",
"~ ;.^ 5.;X;X;X:X;X;X-X-XI -X-XL I I I I K L I I L K L I I ;XI I L -X-X;X;X-X-XI ;X;X;X;X;XP G 4.a.+.| O.h.h.",
"~ #.( Y 6.:X;X;X-X;X-XI L I I I L I I L K D K F D F L I I L I I L I -X-XI L I L -X-XI -XI K D H t.{ ( ..O.h.",
"` ( -.Y ! ~ 4.;X-X-X-XL I I I K I I L I L K A A K L I L I L L I L -XL I L I I L I L D L L K b A S 4.0.-.<.&.",
"{ ( -.^ Q ! 6.I L L L I L I I D D L L L L F b D L L L L K S D I I I I L D L L K D S L L L D b b b S 3.} } } ",
"&.( #.@.E #.L L L I F L I L F A b b S A b A b b A D D A b b b A F K F A A L L K S A D F D A b b b b N ` ] ` ",
"^ #.#.&.@.&.K L I I F A A A A - b b b b b b b b b b A b b b b b b b A b b A K D A A - b b b b b b b J { ' ` ",
"Y Q ( Y Y #.S L I L K A b b b A b b b b b b b b b b b b b b b b b b b b b b b b - A A b b b b b A - 0.a.{ 8.",
"( ^ ( ^ Y E N A D D D b b b b b b b b b b b b b b b b b b b b b b b b b b b b b b b b b b b / N 4.;.8.8.] ] ",
"E E m E #...m n A b b b b b A b b b b b b b b b b b b b b b b b b b b b b b b A b b b b b b n <.2.i.8.' } 0.",
"..#.^ @. .& = - b b b b b b b - - b b b b b b b b b b b b b = b b b b b b b b - b b b b b b @ h.:.i.0.' { u.",
"@.( ( #.+ * - A b b b b b * * O b b b b b = b b b b b b b * = b b b b b b b - * b b b b b = . 2 R >.} } { ;.",
" .@.| m . X - b b b b b b . . X - A = * X = b b b = = b = . - b b b b b A b O = b b b b b O   V h R [ ] ` [ ",
"o.C O.O.. . . * b b b b =   . .     . .   # b b b b O     * A b b b = # # X # b b b b b #     $.j 4 X.Q ` ,.",
"+.x.x.k.%       X * * # .   .             . b A b b A #   # b b b b b b #     @ * * # X       @.,.h k i W ,.",
"x.k.i | 5 X     . .     .                   # - b b = .   . * b b b b b X       . . . .     . { ~ x.j 7 q _ ",
"l.x.x 8 % + .                               . . O .           o * * * X             . .     X $ @ $ B g.6 o.",
"z.l.g.      . .                             . .                     . .   .         . .     . .     . & l.&.",
"z.| O . . . . . . . . . . . . . . . . .   . . . . X . . . . . . . . . . . . . . . . . . . . . .     . . -.-.",
"i l.> 3 7 9 Z X.j j j l B.j.8 s d f ; 1.z z.=XF.q 0 i n.F.T m.k.w v r e a p p u u W *.k...R 9 5 8 &.2.;.{ ` ",
"4 k : 1 g 4 6 6 < j.g.9 x.x.z.v r g n.Q @X, 2.[.d.) ) ) F.>.2.@XF.n.y u a a c c t y q i k.b.b.+.O.E ` } { { "
};
