/* XPM */
static char *f636b705b8a14284e3fd8ab49268ef49cQs4aZ8J8eEseStL[] = {
/* columns rows colors chars-per-pixel */
"50 50 235 2 ",
"   c #127C0E",
".  c #1A7D12",
"X  c #167E1B",
"o  c #387217",
"O  c #3D4F36",
"+  c #356924",
"@  c #46742A",
"#  c #486738",
"$  c #4B7332",
"%  c #494E46",
"&  c #4C5645",
"*  c #51564C",
"=  c #595555",
"-  c #625E5E",
";  c #5D7054",
":  c #64745B",
">  c #6C6868",
",  c #726E6E",
"<  c #7D7979",
"1  c #817D7D",
"2  c #1B870B",
"3  c #1B9503",
"4  c #0E8915",
"5  c #1C8516",
"6  c #1E9516",
"7  c #278B0E",
"8  c #34880C",
"9  c #289905",
"0  c #259A0B",
"q  c #389904",
"w  c #34950D",
"e  c #3A960B",
"r  c #3C9B0C",
"t  c #258B14",
"y  c #2A8D13",
"u  c #248719",
"i  c #2C8E1A",
"p  c #348D15",
"a  c #239413",
"s  c #2D9114",
"d  c #23961C",
"f  c #299B18",
"g  c #339314",
"h  c #3A9514",
"j  c #349B14",
"k  c #3D9B13",
"l  c #33931C",
"z  c #3A951B",
"x  c #33991D",
"c  c #3B9B1A",
"v  c #1BA708",
"b  c #0EA718",
"n  c #15AA1A",
"m  c #2CA406",
"M  c #2AA30C",
"N  c #36AD00",
"B  c #3AA608",
"V  c #3AA40C",
"C  c #26B10B",
"Z  c #39B50A",
"A  c #26A615",
"S  c #2DAD14",
"D  c #26A519",
"F  c #2CA41D",
"G  c #2CAB1A",
"H  c #35A314",
"J  c #3CA314",
"K  c #34AB14",
"L  c #38AC15",
"P  c #32A51A",
"I  c #3DA21B",
"U  c #36AC1A",
"Y  c #3BAA1B",
"T  c #27B117",
"R  c #2CB31B",
"E  c #37B71B",
"W  c #3BB31B",
"Q  c #1B8824",
"!  c #139728",
"~  c #258A23",
"^  c #298823",
"/  c #289625",
"(  c #339422",
")  c #399424",
"_  c #3B9B23",
"`  c #34952A",
"'  c #3C922A",
"]  c #3C9D2B",
"[  c #2BAD22",
"{  c #3CA323",
"}  c #36A827",
"|  c #2AB323",
" . c #35B522",
".. c #468B03",
"X. c #4D9705",
"o. c #439D06",
"O. c #449E0B",
"+. c #4F881E",
"@. c #439E14",
"#. c #4B9A17",
"$. c #419E1C",
"%. c #44A403",
"&. c #4CA504",
"*. c #43AA05",
"=. c #4CAB03",
"-. c #44A40C",
";. c #4BA40B",
":. c #45AC0C",
">. c #4DAA0C",
",. c #54AC03",
"<. c #56AA07",
"1. c #53AC0D",
"2. c #59AD0C",
"3. c #48B904",
"4. c #4EB20B",
"5. c #4DBB09",
"6. c #55B103",
"7. c #5BB403",
"8. c #5DBA01",
"9. c #55B30B",
"0. c #5CB40C",
"q. c #54BD09",
"w. c #5DB90A",
"e. c #43A315",
"r. c #4BA514",
"t. c #44AC13",
"y. c #4CAB13",
"u. c #43A31C",
"i. c #4AA41B",
"p. c #45A91C",
"a. c #4CAB1B",
"s. c #53A914",
"d. c #52AB14",
"f. c #54AD1B",
"g. c #4DBB14",
"h. c #46B718",
"j. c #4CB11C",
"k. c #55B313",
"l. c #5BB413",
"z. c #54BC17",
"x. c #5DBB14",
"c. c #54B21C",
"v. c #5AB41B",
"b. c #5DBB1A",
"n. c #62B400",
"m. c #64BC03",
"M. c #6ABE03",
"N. c #62B60C",
"B. c #63BB0C",
"V. c #6ABD0B",
"C. c #61B710",
"Z. c #63BB13",
"A. c #69BD11",
"S. c #62B71B",
"D. c #64BC1A",
"F. c #68BB1A",
"G. c #419B25",
"H. c #58922F",
"J. c #43A423",
"K. c #4AA423",
"L. c #44AA21",
"P. c #4CAB23",
"I. c #44A62A",
"U. c #4BAD2C",
"Y. c #51AC20",
"T. c #51AD29",
"R. c #43B423",
"E. c #4DB122",
"W. c #4AB928",
"Q. c #55B323",
"!. c #5BB524",
"~. c #51BC24",
"^. c #5ABB25",
"/. c #51B129",
"(. c #47A236",
"). c #4AB73A",
"_. c #57B331",
"`. c #64BC24",
"'. c #6BBE21",
"]. c #4DC103",
"[. c #59C209",
"{. c #4CC417",
"}. c #59C217",
"|. c #66C202",
" X c #6BC403",
".X c #6DC902",
"XX c #65C20A",
"oX c #6BC30B",
"OX c #6AC80D",
"+X c #72C503",
"@X c #79C600",
"#X c #73CA02",
"$X c #7ACB03",
"%X c #71C40B",
"&X c #76CB0B",
"*X c #7ACD0A",
"=X c #7BD302",
"-X c #7CD20C",
";X c #65C313",
":X c #6AC313",
">X c #69C916",
",X c #65C21C",
"<X c #6AC41C",
"1X c #6BC918",
"2X c #72C512",
"3X c #73CA13",
"4X c #77CA18",
"5X c #75C91A",
"6X c #7DD112",
"7X c #7BD217",
"8X c #5BC422",
"9X c #66C223",
"0X c #6BC525",
"qX c #75CC21",
"wX c #71D22D",
"eX c #5A8447",
"rX c #648D4C",
"tX c #4EB444",
"yX c #798D6D",
"uX c #80D40D",
"iX c #818B79",
"pX c #8E8989",
"aX c #92928A",
"sX c #92938D",
"dX c #9A9594",
"fX c #A49E9E",
"gX c #AAA5A4",
"hX c #ABA6A5",
"jX c #B9B2B2",
"kX c #C3BCBC",
"lX c #CBC4C4",
"zX c #D5CECE",
"xX c #D7D0D0",
"cX c #DCD4D4",
"vX c #E3DBDB",
/* pixels */
";.,.m.3XqXuX*XuXuX=X$X$X$X$X*X*X*X$X$X#X$X$X#X$X#X#X.X.X+X+X+X#X.X#X#X+X#X.X.XXX X[.|.|.|. X X XoX|.",
"9XB.7.,.<.n.V.2X#X#X6X6X=X=X5X5X4X3X&X*X$X@X$X#X+X X|. X.X#X.X&X&X&X&X.X+X|.oX X X X X X|. X.X[. X[.",
"XX&X6X*X+Xm.7.<.7.n.N.oX|.oX2X2X4X4X4X2XV.%X3XoX|.m.m.|. X#X#X&X6X&X#X#X.X XoX X X X XOX X|.|.m..X|.",
"OX:X3X-XuXuX7X7X3X+X Xm.M.m.M.M.M.M.M.n.6.7.N.M.m.8.8.|. X.X.X#X#X#X#X.X.X|.oX|.m.|. X X X X|.oX|.|.",
"oX|.A.A.A.5X5X6X6X-X=X=X=X=X-X&X&XoX:X:X<X9X9Xm.8.m.|.|.|.|.|. X.X#X.X#X.X XXX|.|.|..XoX X X|.oX|.|.",
"|.8.M.M.m.n.<.l.N.V.;X:X:XZ.D.D.x.D.x.D.D.<XD.M.|.|.|.|.|.|.|. X X X.X#X.X.X X X|.|. X.X XXXXX|. XD.",
" X>X,Xq.7.S.'.S.0.7.l.l.q.9.f.^.^.9X9X;XoXoX X.X X X X.X.X.X+X|. X|. X X.X.X.X|.|.|.|.|.8.m.8.|.OXQ.",
",X;X,X`.Z.n.2.Z.Z.Z.Z.0.0.l.y.d.d.c.9XqX5X3X1X.X X.X X X X+X+X&X+X+X+X+XoX|.|.8.m.m.m.m.A.D.D.,.1.d.",
"8.9X;X8.8.|.N.7.7.m.V.Z.D.`.x.k.1.>.,.6.7.7.B.B.B.w.Z.B.V.+X$X+X@X$X$X$X#X+X+X6X#X.XoXV.7.,.&.8.XXD.",
"m.6.<X;X|.w.'.m.7.C.Z.B.m.B.N.;XB.N.B.B.m.m.N.<.l.c.O.&.1X7X$X@X@X@X@X@X$X$X%Xm.m.C.0.,.7.;X0XoX|.XX",
":XZ.<.:X:X XV.m.7.7.7.N.V.B.m.8.B.8.m.V.M.V.V.7.9.x.D.0.6.n.+X$XuX@X@X@X@X@X@X+X X.X#X3XqX:X|.m.m.8.",
"|.B.V.,.|..X X|.m.8.,.7.Z.B.B.V.V.B.m.M.M.M.M..X X|. X XM.n.n.V.M.#X$X%XV.M.M.V.M.M.m.m.|.m.0.m.m.w.",
"n. XV.F.2.Z.2X:X3X<Xx.6.7.8.B.8.B.Z.oXM.M.M.M. X X.X.XM.M.2X5Xn.m.M.M. XM.m.7.`.Z.V.oX2X1XA.7.A.Z.x.",
" Xm.m.F.'.n.M.M. X XXXN.0.0.;XB.N.B.B.M.M.M.M. X X+X#X+X$X%XoX&XoXA.V.+X#XM.7.%.r.!.D.m.7.8.m.9.l.b.",
"m.m.V.V.+X+Xm.M.M.m.V.V.7.6.N.B.w.B.B.m.M.M.V.+X X+X+X#X#X#X+XA.|.+X+XoX%XoX X:.e.K._.D.m.8.9.b.k.k.",
"m.N.B.M.M.M.V.m.m.XXx.D.'.v.7.l.8.8.B.B.M.M.A.M.M.M.+X+X+X+XM.|.#X#X+X@X+X.X|.:Xv.r r q.[.7.v./.Q.E.",
"m.m.m.M.V.+X XM.m.V.D.Z.D.C.9.c.v.9.9.M.M.m.M.M.M.M.+X X+X+XM.m.M. X+X%X+X X XN.0.Q.-.*.v.c._.a.a.P.",
"m.m.m.m.V.V..Xm.7.N.D.m.N.D.l.=.k.k.6.w.D.S.A.V.M.M. X+X X%X+XA.7.6.A.5Xm.7.7.N.l.,Xc.-.y.P.U.a.P.a.",
"m.m.8.m.m.M. Xm.7.7.Z.8.B.,Xl.,.c.c.4.6.l.F.oXM.M.M.M. X+X+X%XV.yXdXiXX.B.8.,.0.9.k.k.9.y.>.a.P.P.P.",
"Z.D.V.m.m.M.M.Z.m.7.7.V.Z.Z.7.f.a.Y.c.9.7.m.m.m.M.m.M.m.M.+XM.aXvXvXvX, ..l.f.<.v.y.y.k.9.j.e.u.p.{ ",
"l.D.V.m.m.m.B.Z.XX7.7.B.D.C.0.S.&.;.v.v.6.6.7.m.m.m.m.|.m.m.H.xXvXvXhX, @ &.f.1.y._.e.e.Q.e.] c I I ",
"0.N.B.w.B.B.N.B.m.w.7.7.C.rXgXfX; -.y.c.7.,.7.m.m.7.,.&...yXhXvXvXkX, * <.6.=.-.k u.J.G.i.] I.p.I I ",
"7.m.m.N.Z.Z.Z.M.m.D.2.=.H.zXvXvXzX: B >.1.X...eXiXdXjXlXvXvXvXvXvXvXhX$ M.m.Z.E.J j { c _ I.I $.u.I ",
"%.D.b.9.D.,XZ.Z.7.8.l.2.sXvXvXvXvXcXiXaXhXlXxXvXvXvXvXcXlXjXfXcXvXvXvXfX+.%XM.V.D.d.#.e.e.e.J.V J Y ",
"&.l.x.0.w.N.w.C.7.7.0.6.aXvXvXvXvXvXvXvXvXvXvXcXkXhXpX, , > - 1 vXvXcXpX% M.M.V.M.S.x.0.6.r.r.e.p.u.",
"<.1.Z.7.7.7.N.0.7.7.7.7.o lXvXvXvXvXcXlXjXdX< , , - = # o ..2...1 gX1 , # M.M.V.B.m.V. Xm.0.D.y.e.$.",
">.&.0.7.7.7.0.7.0.<.7.7.r.; xXvXvXkX, , > = & + o #.k.0.6.7.C.N.X.& = $ n.M.M.:XF.m.B.m.B.B.D.x.d.a.",
"k.&.<.,.6.9.2.7.l.1.2.l.s.dXvXvXvXdX- + 8 #.k.>.4.>.k.9.7.7.N.N.m.N.M. X.XM.M.C.V.'.;XN.m.Z.7.|.B.l.",
"l.;.&.<.<.2.1.,.f.s.s.s.+.kXvXvXkX, & P.r y.d.k.y.r.k.9.7.7.7.B.N.M.B.m.M.V.m.7.7.Z.<XN.m.XXm.8.8.7.",
"s.s.>.d.d.d.>.y.r.s.s.i.f.O dXpX, - p p.e e.d.a.a.a.y.k.l.l.0.7.m.B.m.m.V.B.N.8.9.7.Z.w.l.|.m.B.w.7.",
"f.f.i.d.1.;.;.r.;.;.s.i.Q.r + % % ) e.k e e i.P.i.a.e.d.f.v.l.7.8.m.m.m.Z.Z.Z.Z.,.,.w.C.N.D.m.D.Z.0.",
"<.&.&.1.s.r.i.y.i.K.e.r.y.Q.e l g k @.z z k o.O.O.i.-.i.k.a.v.,.7.7.m.B.Z.<XZ.x.B.,.%.l.D.S.Z.B.B.D.",
"2.<.;.;.r.s.r.-.r o.O.i.K.Q.e g s g k k h k k h e i.o.k y.p.c.6.8.7.<.Z.,Xw.7.7.|.k.i.e.9.Z.;XZ.m.B.",
"o.O.s.s.O.o.o.%.q q @.i.$.P.e.g g l z g e c z k e $.h q i.e.p.z.l.9.2.l.b.Z.n.7.6.D.f.q o.v.D.D.m.8.",
">.s.y.i.r.a.y.B e h h c @.K.@.w l ) x g g h ) z z k l q c e.J a.1.x.0.=.9.D.;X7.7.0.8.=.c J.k.Z.V.6.",
">.s.f.i.i.i.$.j p ) _ z w k $.i l l p l g l ( p z p g w j p.k B *.9.9.&.>.9.D.6.8.7.7.D.G.l -.l.[.7.",
";.@.i.$.k c { (.i t ( ) p p w y i y y l ( ( l l ) g l j j u.H q *.4.y.v.y.*.x.w.7.7.7.8.l.$.l -.9.6.",
"p.a.p.P.I.{ _ u ` ` i 7 y s g i g y y g ( l l / x x j f f j P m V y.y.Q.Q.-.>.b.6.7.B.7.8.v.) l e.4.",
"U.P.L.L.c a 7 i . . 2 7 s s ( y x x i p t i ( f d _ 0 d 9 a P P 0 t.k.y.Q.t.r 9.w.0.0.7.7.l.k.( ` G.",
"c p.j 7 ( ` ~ u y c z s ( ` s i ' l t ^ ^ X 6 6 6 F M 3 d P 3 S m 9 t.J t.j.:.=.!.Q.k.6.7.0.7.T.) i ",
"I I I I { { _ (.(.u u ^ ^ ) ) h ( ~ 6 4 ~ t f d } 3 U } a d [ D G Y p.U H p.p.y.y.y.Q.>.,.8.7.9.Y.I.",
"U.P.J.U.J.p.I h 7 u u . u t   ` ] 5 / d 5 / Q /  .m f ).U 3 f D [ [ } W 0 L L.y.P.%.J./.9.y.7.6.k.a.",
"I I h c c z l l x ] ) $.i / ! 4 / W.5 tXq 9 f d f W.H R.~.m 9 G D F G R S L p.:./.B r e.r ' Q.!.b.2.",
"s y s z $.$.c ) ( ] (.G.x Q ! ! 3 z.{ I.wXz.:.m Y W.}.=.W.j.N  .A D T T S U K t.h.L.>.-.k h ) f.z.l.",
"5 u ( p J @.e K._ _ U.U.J.W D / ~.t.}.q b.<X,X3.3.q.[.}.z.^.z.W.H G R R T [ G H V k J./.E.y.a.;.6.7.",
"/ / { j r r e k I a.V j.8X*.5.h.[.x.[.5.=. XXXOX8.[.w.1X:X,X`.^.>.3.Z | | [ R Y R.Z I J.*.a.k.f.9.7.",
"/ 5 { I 9 e c } Y >.v.9.9.z.5.{.}.|.Z.1X|.[.8X XXX;X>X|.oX;X:XD.7.].N E T C C U P 3.g.c.a.P.:.f.c.k.",
"/ / / } Y 9 x L R.~.4.}.~.5.].].[.}.[.XXXX;X9X>X>X;X;X:X:X:X:X9X|.z.h.R.| T T R G G E V y.Q.e.*.r a.",
"Q ^ { f H H 0 M K h.h.g.g.{.].3.].[.[.;X;X;X1X1X>X;X:X1X:X:X:X:XXX;X}.~.U S R n b b b |  .n 6 e.{ _ ",
"~ k H R.N L  .W h.Z Z {.].3.].].[.[.;X>X>X>X9X1X>X:X:X:X:X:X<XoX:XoX,X}.3.h.h.C v T R E m 9 E I.i i "
};
