/* XPM */
static char *c69cb89047ca4ef497aa8cf94ac21968pQezKmVn5R3QjYkm[] = {
/* columns rows colors chars-per-pixel */
"54 48 256 2 ",
"   c #190B05",
".  c #150F08",
"X  c #181817",
"o  c #2B0803",
"O  c #370201",
"+  c #380804",
"@  c #2C1709",
"#  c #381709",
"$  c #3A1E0D",
"%  c #321F12",
"&  c #1A2A12",
"*  c #30200D",
"=  c #3E210F",
"-  c #373210",
";  c gray14",
":  c #2D2522",
">  c #282828",
",  c #3A2C26",
"<  c #2F3535",
"1  c #490100",
"2  c #5A0200",
"3  c #451308",
"4  c #6A0200",
"5  c #740300",
"6  c #7D0500",
"7  c #4A2C0F",
"8  c #432411",
"9  c #472815",
"0  c #4C2A14",
"q  c #522D16",
"w  c #543219",
"e  c #5A3319",
"r  c #593619",
"t  c #682203",
"y  c #62381D",
"u  c #63381D",
"i  c #4B362B",
"p  c #693736",
"a  c #2F510D",
"s  c #197E15",
"d  c #356F10",
"f  c #315624",
"g  c #4F5826",
"h  c #6C4323",
"j  c #784B25",
"k  c #754D30",
"l  c #3B474B",
"z  c #464B4B",
"x  c #5A6750",
"c  c #596A6E",
"v  c #68746C",
"b  c #8A0600",
"n  c #9A0800",
"m  c #A50900",
"M  c #AD0B00",
"N  c #B10B00",
"B  c #88552B",
"V  c #925C2E",
"C  c #8F5A31",
"Z  c #9B6233",
"A  c #A86B37",
"S  c #B6743C",
"D  c #837D7D",
"F  c #0F8D0F",
"G  c #1A8818",
"H  c #1B9617",
"J  c #289708",
"K  c #359707",
"L  c #3B9C03",
"P  c #3B9C0C",
"I  c #288B1A",
"U  c #318D11",
"Y  c #29971A",
"T  c #359817",
"R  c #3B9C13",
"E  c #33941C",
"W  c #3B9D1C",
"Q  c #0CA618",
"!  c #16AC1A",
"~  c #2AA70A",
"^  c #38A807",
"/  c #3CA30C",
"(  c #27B10B",
")  c #38B409",
"_  c #29A817",
"`  c #3CA314",
"'  c #36A916",
"]  c #35A21B",
"[  c #3CA31C",
"{  c #3BAB1B",
"}  c #2AB319",
"|  c #3CB31B",
" . c #38B418",
".. c #198923",
"X. c #089827",
"o. c #1A9625",
"O. c #288C25",
"+. c #289625",
"@. c #339B24",
"#. c #389827",
"$. c #37922D",
"%. c #10A528",
"&. c #2AA926",
"*. c #37A727",
"=. c #3CA323",
"-. c #3BAC22",
";. c #31AF2A",
":. c #3AB523",
">. c #459C08",
",. c #459B16",
"<. c #429D1D",
"1. c #509312",
"2. c #44A403",
"3. c #4BA502",
"4. c #45AB02",
"5. c #4DAB03",
"6. c #43A40C",
"7. c #4BA50B",
"8. c #44AB0C",
"9. c #4CAB0C",
"0. c #52A607",
"q. c #53AD03",
"w. c #5AAE02",
"e. c #53AD0C",
"r. c #59AD0D",
"t. c #47B705",
"y. c #4CB30C",
"u. c #4DBA0B",
"i. c #55B202",
"p. c #5BB403",
"a. c #55BA04",
"s. c #5CBA03",
"d. c #54B20C",
"f. c #5BB40B",
"g. c #54BB0C",
"h. c #5CBA0C",
"j. c #43A414",
"k. c #4BA614",
"l. c #44AA14",
"z. c #4DAB14",
"x. c #42A41C",
"c. c #4BA61C",
"v. c #44AB1C",
"b. c #4CAC1C",
"n. c #57AB16",
"m. c #53AD14",
"M. c #53AD1C",
"N. c #44B414",
"B. c #4CB313",
"V. c #4ABA17",
"C. c #43B21B",
"Z. c #4DB31C",
"A. c #55B314",
"S. c #5BB413",
"D. c #54BB14",
"F. c #5CBA13",
"G. c #54B31B",
"H. c #5AB41B",
"J. c #54BA1B",
"K. c #5CBA1B",
"L. c #63B503",
"P. c #69B706",
"I. c #63BC03",
"U. c #6ABD03",
"Y. c #67B20C",
"T. c #62B50C",
"R. c #63BC0C",
"E. c #6BBC0C",
"W. c #73BE0B",
"Q. c #62B513",
"!. c #63BC13",
"~. c #6BBC13",
"^. c #64B51A",
"/. c #64BC1A",
"(. c #6ABD1B",
"). c #439C26",
"_. c #4F932C",
"`. c #43A522",
"'. c #4AA523",
"]. c #44AA23",
"[. c #4BAB23",
"{. c #44A42A",
"}. c #46A82B",
"|. c #4AAC2B",
" X c #53AD23",
".X c #53AC29",
"XX c #43B423",
"oX c #4DB223",
"OX c #48B727",
"+X c #54B323",
"@X c #5AB522",
"#X c #53BA22",
"$X c #5BBB24",
"%X c #57B62A",
"&X c #4AAC35",
"*X c #57B534",
"=X c #64BD23",
"-X c #68BB24",
";X c #63BB30",
":X c #4BC208",
">X c #5AC207",
",X c #5BC116",
"<X c #65C202",
"1X c #6BC403",
"2X c #6DC902",
"3X c #65C20B",
"4X c #6BC40B",
"5X c #6DC90C",
"6X c #72C603",
"7X c #79C601",
"8X c #74C902",
"9X c #7ACB02",
"0X c #72C50B",
"qX c #79C70C",
"wX c #74CA0A",
"eX c #7BCC0A",
"rX c #7CD207",
"tX c #65C213",
"yX c #6BC413",
"uX c #6DC913",
"iX c #64C21B",
"pX c #6AC41B",
"aX c #6AC919",
"sX c #73C513",
"dX c #73C913",
"fX c #7BCC13",
"gX c #72C41A",
"hX c #73CA1C",
"jX c #7BCB1B",
"kX c #7BD114",
"lX c #46C128",
"zX c #57C423",
"xX c #6BC322",
"cX c #68C525",
"vX c #73C924",
"bX c #72CE2D",
"nX c #4EB444",
"mX c #7A8875",
"MX c #84D206",
"NX c #83CF13",
"BX c #81CF25",
"VX c #84947C",
"CX c #779095",
"ZX c #8E908E",
"AX c #9AA9AC",
"SX c #ACB0B1",
"DX c #CFB7B6",
"FX c #A5BDC3",
"GX c #B5C9CE",
"HX c #CDD4D6",
"JX c #E4CBCB",
"KX c #CDDDE1",
"LX c #D4E5E8",
"PX c #E9ECEC",
"IX c #F4F6F7",
"UX c #FCFDFD",
/* pixels */
"pXxXcXcXR.p.w.0.p.I.0X9X8XfXeXrXrXfXjXjXdX0XqX7X7X7X8X2X1X<X2X2X2X2XwXeXwXwX6X6X4X4X1X1X<X1X1X1X<X1X<X<X>Xs.",
"iXaX>X3XuXeX9X6XI.L.r.i.s.R.~.4X4XsXgXgXjXfXsX4X0XdX4X1XI.s.<X2X8X8XwXwXwX8X8X2X1X3X1X2X1X1X1X1X1X1X<X1X<X<X",
"yXaX5X5XsXdXNXrXkXkXjXdX6X1XU.<XU.I.<XU.1XU.L.w.p.h.R.I.p.I.I.<X1X2X2XwX8X8X2X1X1X3X<X<X<X<X1X1X1X<X4X1X<X<X",
"3XuXaX3X<X~.yXsXgXjXkXeXrX9XrXrXrXrXwX0X0XuXyXpXpXcXI.I.I.I.<XU.<X<X2X2X8X8X8X2X1X1X<X<X<X2X1X4X<X1X3X<X<X<X",
"3X<X4X<X>XI.I.I.i.w.!.Q.E.yXyXyXtX/.!.K.K./.!././.iXU.U.<X<X1X<X<X<X2X<X6X6X2X6X2X1X<X1X<X2X1X4X<X3XI.1X!.f.",
"4X4XR.1XuXiXh.p.!.-XH.f.p.S.A.p.d.M.%X$XcXiXtXyX4X1X1X2X<X1X2X2X2X2X1X1X<X<X2X2X1X4X<X<X<X<X<Xs.s.s.<XyXG.b.",
"4Xp.-XpXtX/.=XR.f.p.~.F./.R.h.S.A.m.n.z.G.pXvXdXdXkX2X2X2X2X6X6X6X8X0X8XW.7XU.6X<X<Xs.p.I.U.U.~././.i.e.m.H.",
"<XyXp.s.iX/.s.I.<XT.p.p.L.R.1.1.1._.d d d d d f a a a g _.mXv mXmXVXZXZXz n.9X7X6X6XkX8X2X4XR.s.i.3.p.R.iXS.",
"0X3X<XI.p.aXyX<XT.-XI.p.Q.1.ZXSXDXDXDXDXDXJXJXJXJXJXJXJXHXJXJXJXJXJXJXZXHXZX1.MX9XqXI.I.T.S.i.p.!.cX4X<XI./.",
"E.6XxXyX/.w.yX3X1XR.I.s.n.t N N N M N N N N N N N N N N N N N N N N 5 HXUXUXAXw.6X6X6X1X4X8XdXvXyX<XI.I.I.h.",
"U.E.E.U.R.E.w.<X2X1XI.L.r N N N N N N N N N N N N N N N N N N N N b SXUXIXGXIXZXY.P.T.U.U.U.I.U.U.R.I.R.I.s.",
"E.w.U.p.<XE.(.p.!.sX4X_.n N N N N N N N N N N N N N N N N N N N m ZXUXIXCX. SXIXZX1.-X~.U.4XyXaX~.p.3XQ.F.,X",
"~.L.Q.1XI.E.(.-XU.W. X6 N N N N N N N N N N N N N N N N N N N m D UXUXFX. > X SXUXZXK >.@X/.s.p.p.s.f.!.K.A.",
"I.I.U.I.I.T.U.U.1XY.7 N N N N N N N N N N N N N N N N N N N m v PXUXGX, q X > X GXIXZXE '.%XiXI.p.f.H.A.A.A.",
"R.T.I.I.R.I.U.<XW.d m N N N N N N N N N N N N N N N N N M M p PXUXGXl B h 0 X > < GXUXmX#.P f.>Xs.J.oX+XZ.Z.",
"T.E.R.I.I.U.U.U._.6 N N N N N N N N N N N N N N N N N N M 5 HXUXLXc j S S h 8 X > < GXIXv P 2.H.H.*X[.b.[.oX",
"i.=XR.I.I.I.U.Q.7 N N N N N N N N N N N N N N N N N N N b DXUXPXv k S S S A u 8 X > l GXIXc ,.8.'..X[. Xb.c.",
"n.f.R.I.I.I.I.d n M N N N N N N N N N N N N N N N N N n AXUXPXCXu S S S S S A u $ ; > z GXPXx c.9.v.[.[.[.v.",
"p.i.Q.!.!.R.>.4 M N N N N N N N N N N N N N N N N N m D IXIXAXi A S S S A S S A u @ ; ; z KXLXx [.{ j.x.`.].",
"f.w.f.S.^.Q.a n N N N N N N N N N M N N N N N N N M v IXUXFXi A S S S S h Z S S Z u @ ; > c KXLXf #.W ] [ [ ",
"f.q.q.f.E.d 4 m n m M M m m m M m m M M M N N N N p PXUXGX, Z S S S S S Z A S S S B u @ ; ; v KXHXd `.[ [ [ ",
"i.w.w.p.U.& O O O + O O O O O O 1 1 1 1 1 1 1 1 O HXUXKXz h S S S S S C > p S S S S j = . ; ; v HXx c.x.[ x.",
"i.w.i.3.F.d 4 5 5 5 5 5 5 5 5 5 5 5 5 4 5 4 4 4 9 IXKXc C k S S S S S A j C S S S S S = 0 . ; X < $.j.` [ x.",
"i.w.f.7.f.n.1 5 5 5 5 5 5 4 5 5 5 5 5 5 5 6 5 5 2 FXv C A j S S S S S S S S S S S S S = h 9 d 1.,.l.j.j.x.`.",
"T.w.H.9.e.S.d a   o o + O + O O O 1 1 1 1 1 1 2 2 > . Z Z j S S S S A B h B A S S S S 8 A B w.I.h.^.z.j.x.`.",
"w.w.n.e.3.f.r.0.8 u # , i , , , , , , , : : ; X 8 q 9 V A j S S S A X X o # o h S S S # S C w.R.I.^.F.n.k.'.",
"w.p.e.n.3.0.i.n.# u 8 w u u u u u u y u u u u 8 e u 0 V A j S S S w ; > ; o 3 o Z S S $ S B n.R.!.s.I.R.A.S.",
"q.r.e.A.7.0.e.r.% u 9 % = 3 8 8 8 8 9 9 0 0 0 $ q u q V A j S S V X > > > X + 3 = S S $ S B 0.I.3XI.I.p.R.s.",
"9.M.0.n.m.0.m.e.a u r = e e e e e e e w q w q $ 0 u w B S j S S y > > > > >   3 + B S $ S j 0.Q.I.I.R.h.p.p.",
"3.7.m.n.M.c.n.9.a u e = u u u u u u u u u u u w 0 u e j S j S S r > > > > > . 3 # j S # S B r.T.!.I./.Q.h.i.",
"e.0.9.9.3.0.e.9.d u u % u u u u u u u u u u u e 9 u r j S h S S w > > > > > X 3 + j S = S j m././.Q.R.!.!.f.",
"0.e.0.e.0.7.7.e.d r u @ 0 0 q e e e e u u u u e = u h h S u S S 9 > > > > > X # 3 j A = S j <.d.Q.tX!.I.I.s.",
"7.9.7.>.>.n.k.>.d q u @ 0 0 0 8 8 = = $ @ @ # @ $ u u r S r S S w > > > > > X 3 3 B A = S j ,.>.H.!.!.s.p.I.",
"7.k.n.0.k.n.k.k.).9 u # u u u u u u u u u u u u @ u u r S r S S w > > > > > X # + C S * S h 5.W `.A./.R.p.S.",
"m.m.e.k.n.H.c.c.).= u 3 e y u u u u u u u u u r $ u u 7 S r S S r > > > > > X 3 # C S = S r !.).E 6.S.R.s.f.",
"m.k.m.6.>.x.<.R W % u 9 0 e q q 0 9 8 8 = # @ @ o u u @ S u S S w > > > > > . 3 + V A # S r L.r.<.E 6.d.a.a.",
"z.k.j.c.[.`.].{.*.a u q @ 8 9 0 q e e e r u u u @ u y = S 0 S S , > > > > > . 3 + Z A = S g i.s.+X#.T ` 5.i.",
"l.v.&X|.[.].-.T I a u w 9 u u u u u u u u u u u = e y - A 0 Z Z * > > > > > o 3 o Z A # S g L.p.S.m.+.$.x.8.",
"&X|.].[ x.R U @.@.a y e 3 y y y u u u u u u u u = w y = A w y y @ > ; > > >   3 o r u # u a i.s.i.p..X#.U / ",
"}.|.|.x.j.W { @.*.O.f a & i i < , % % @ @ @ @ @   @ @   % . @ @ . X X X ; X > , , z z f a d 7.q.I.p.d. X).W ",
"P {.|.|.[.x.'.'.{.W U G I I I I G s $.$.G o.Y G +...+.:.~ Y &X' J _ _ &.;.&.:.~ [ c.M.[.2.c..Xe.m.i.i.H.b.'.",
"` }.v.[ [ T W W T E E W #.$.T E I o.F &.|.G nXL J _ Y _ OX] OXV.~ J _ _ _ _ } _ ' v.6..X^ >.j.P ).+X@XH.d.A.",
"$.T |.U I U T ).<.<.#.#.$.&X'.E ..X.o.F J.=.[.bXD.8.^ { OX,Xt.%XC.) | _ _ } } }  ._ N.C.].z.j.T T E M.H.f.f.",
"I K @.G I @.U ` P R '.).W |.&X`.| _ +.#XN.zX^ K.yXiXt.t.:X,XF.K.J.J.oX' ' } } } ;._ / ^ [ `..XoXG.c.7.i.d.h.",
"J {.O.O.@.#.T K P P R R z.6.Z.#X4.u.V.,Xg.g.t.5.1X>X<Xa.>X>XpXtXiXcX#X9.N.) } &.} } ' XX^ [ `.2.z.A.G.f.p.i.",
"T `.G +.G *.] K K ,.*.{ l.D.d.d.,Xa.:X,X5XR.yX<X,XcX<X4XtX3X3X4XtXtXQ.a.:X) | ! ( ( ' { t.B.J.k..X8.M.G.S.f.",
"*XO.G Y +.Y *.{ J Y ' oXOXy.zX#X:X:X:X>X,X,X>X3XyXcXaXtXtXuXyXyXyXyXpX3Xg.B.OX} } } } } '  .' l.#Xj.4./ b.A.",
"T I &X..O.-.Y ] ' J _ ) V.V.u.J.,X:X:X:X>X>X3XtXaXaXaXuXtXtXpXyXtXyXpX3XtXzXlX' ' } ! Q Q Q } ;._ J [ #.).b."
};
