/* XPM */
static char *_1a8fdf8d79949b58495ce2ddde79bf3mrMbwrt7NnjUH8IQ[] = {
/* columns rows colors chars-per-pixel */
"50 50 225 2 ",
"   c #127C0E",
".  c #1A7D12",
"X  c #167E1B",
"o  c #6C3C4A",
"O  c #354048",
"+  c #7D5643",
"@  c #1D870A",
"#  c #0E8915",
"$  c #1B8415",
"%  c #1C861A",
"&  c #2A8F0E",
"*  c #2B9602",
"=  c #219A02",
"-  c #249A0D",
";  c #389706",
":  c #339E01",
">  c #3D9C05",
",  c #3B9B0B",
"<  c #218515",
"1  c #248B13",
"2  c #2B8D12",
"3  c #24851C",
"4  c #258B1B",
"5  c #2B8D1C",
"6  c #348F16",
"7  c #2C9014",
"8  c #2D9A17",
"9  c #25961D",
"0  c #259D1B",
"q  c #349415",
"w  c #379C13",
"e  c #3D9B14",
"r  c #34921C",
"t  c #3A9419",
"y  c #3B9B1B",
"u  c #1BA708",
"i  c #0EA718",
"p  c #15AA1A",
"a  c #2BA507",
"s  c #2BA10C",
"d  c #3FA302",
"f  c #36AD00",
"g  c #36A30C",
"h  c #3BA40D",
"j  c #3AAC0C",
"k  c #26B10B",
"l  c #39B50A",
"z  c #27A712",
"x  c #25A315",
"c  c #2DAD14",
"v  c #26A51A",
"b  c #2CA21D",
"n  c #25AC19",
"m  c #2BAC19",
"M  c #35A314",
"N  c #3CA314",
"B  c #34AB14",
"V  c #38AC15",
"C  c #32A218",
"Z  c #3DA21B",
"A  c #36AC1A",
"S  c #3BAA1B",
"D  c #2BB216",
"F  c #22B118",
"G  c #2CB31B",
"H  c #37B71B",
"J  c #3BB31B",
"K  c #198C22",
"L  c #1E8228",
"P  c #0A9424",
"I  c #18992A",
"U  c #268B24",
"Y  c #2B8D28",
"T  c #239727",
"R  c #2A9523",
"E  c #2D9C23",
"W  c #2B912A",
"Q  c #329523",
"!  c #3A9425",
"~  c #3B9C22",
"^  c #31942B",
"/  c #379928",
"(  c #3C9D2B",
")  c #3C9D32",
"_  c #2BAD22",
"`  c #3CA323",
"'  c #37A928",
"]  c #2AB323",
"[  c #33B223",
"{  c #39BA20",
"}  c #439D06",
"|  c #439E0A",
" . c #419E1D",
".. c #44A303",
"X. c #4CA504",
"o. c #44A901",
"O. c #4CAD03",
"+. c #44A40D",
"@. c #4BA50B",
"#. c #45AC0C",
"$. c #4DA90C",
"%. c #54AC03",
"&. c #55AA07",
"*. c #52AC0D",
"=. c #59AD0B",
"-. c #4DB704",
";. c #45B902",
":. c #4CBD00",
">. c #45B60B",
",. c #4DB30A",
"<. c #4DBB09",
"1. c #55B102",
"2. c #5BB402",
"3. c #5DBA01",
"4. c #54B30B",
"5. c #5CB40C",
"6. c #54BD09",
"7. c #5DB90A",
"8. c #43A415",
"9. c #4BA514",
"0. c #44AC14",
"q. c #4CAA13",
"w. c #42A31C",
"e. c #4AA41B",
"r. c #45A91C",
"t. c #4CAB1B",
"y. c #51A614",
"u. c #52AB14",
"i. c #54AD1C",
"p. c #45BA14",
"a. c #4DBB14",
"s. c #46B11C",
"d. c #4CB11C",
"f. c #49BA1D",
"g. c #56B414",
"h. c #5BB513",
"j. c #54BC17",
"k. c #5DBB14",
"l. c #54B21B",
"z. c #5AB41B",
"x. c #5DBB1A",
"c. c #60B500",
"v. c #63BC03",
"b. c #69BE03",
"n. c #61B60D",
"m. c #63BB0C",
"M. c #69BD0B",
"N. c #61B710",
"B. c #63BB14",
"V. c #68BD11",
"C. c #61B71B",
"Z. c #64BC1A",
"A. c #68BB1A",
"S. c #419C23",
"D. c #40982A",
"F. c #43A423",
"G. c #4AA423",
"H. c #44AA21",
"J. c #4CAB23",
"K. c #44A32B",
"L. c #46A92A",
"P. c #4BAD2C",
"I. c #51AC20",
"U. c #51AD29",
"Y. c #43B423",
"T. c #4DB122",
"R. c #4CB826",
"E. c #46B72A",
"W. c #4CBB29",
"Q. c #54B323",
"!. c #5BB425",
"~. c #51BC24",
"^. c #5ABB25",
"/. c #51B129",
"(. c #47A236",
"). c #4AB73A",
"_. c #57B331",
"`. c #64BC24",
"'. c #6BBE21",
"]. c #4CC201",
"[. c #4EC008",
"{. c #5CC304",
"}. c #52C109",
"|. c #5BC20E",
" X c #4CC417",
".X c #5CC212",
"XX c #56C11B",
"oX c #66C201",
"OX c #6BC403",
"+X c #6DC802",
"@X c #65C20A",
"#X c #6BC30B",
"$X c #6BC80E",
"%X c #72C603",
"&X c #79C701",
"*X c #73CA02",
"=X c #7ACC03",
"-X c #71C40E",
";X c #76CB0B",
":X c #7ACD0A",
">X c #7BD302",
",X c #7CD20C",
"<X c #65C313",
"1X c #6AC413",
"2X c #69C916",
"3X c #65C21C",
"4X c #6AC31C",
"5X c #6BC918",
"6X c #72C513",
"7X c #73CA13",
"8X c #79CC13",
"9X c #73C518",
"0X c #76CA1A",
"qX c #79CC1A",
"wX c #7DD112",
"eX c #5AC423",
"rX c #66C223",
"tX c #6BC525",
"yX c #71CB22",
"uX c #7CCE21",
"iX c #71D22D",
"pX c #4EB444",
"aX c #80D40D",
"sX c #CCAA73",
"dX c #ECE98D",
/* pixels */
"@.%.v.7XuX8XaXaX>X>X=X=X>X=X:X=X:X=X&X&X=X=X&X&X*X*X+XOX*X%X%X&X*X*X*X;XOX%X+X#XoXoXoXoXoXoXOXoX#XoX",
"rX7.2.%.&.c.M.-X*X=X8XwX>X>X8XqXqX6X;X;X:X&X&X;X+XOXoXOX+X*X+X;X;X;X*X+X+XOX#X+XOXoXOXOXOXOXOXoXoX{.",
"@X7X,X:X&Xv.2.=.2.c.m.M.#X#XV.9X0XqXqX6XM.-X;X#XoXv.v.oX+X+X*X;X;X*X*X+XOXOX#XOXOXOXOX#XOXOXOXv.+XoX",
"$X-X7X,XaXaX8XqX7X%Xb.v.b.b.b.b.b.oXb.c.2.2.n.v.v.3.3.oXoX+X+X;X;X=X*X*X+XOX@XoXoXoX@XOXoXoXOX#XoXoX",
"#XoXV.M.6X9X9XwX,X,X>X>X>X,X,X;X;X-X1X1X5X4XtXv.v.3.oXoXoXoXoXOX+X*X*X*X+XOXOXoXoXoXOX+X#XOXoX#XoX@X",
"v.v.b.@Xv.2.%.h.k.V.V.1X1X<XZ.C.C.C.x.Z.Z.A.Z.oXv.oXoXOXoXoXoX+XOXOX+X+X+X+XOXoXoXOXOXOXOX@X@X@XOXB.",
"OX2X3X6.2.C.tXz.5.2.h.h.1.4.u.^.eXrXZ.<X1X#X#XOXOXOXOX+X+XOX%XOXOXoXOXOX+X%X+X@XoXoXoXoXv.3.3.oX$Xl.",
"4X<XZ.`.M.=.c.A.B.<Xm.5.5.h.u.t.q.z.rXyX7X7X7X+ + O O O O O O o o %X%X%X#XoXoX3.v.v.v.v.m.A.Z.%.*.l.",
"3.rX<X3.3.oXn.2.3.v.m.N.Z.Z.C.g.*.$.%.%.%.3.v.+ + O O O O O O o o =X=X&X%X%X%X8X*X+X#XM.3.%.X.2.m.Z.",
"3.2.4X<XoXN.A.v.n.N.V.M.v.m.m.<Xm.m.m.m.v.O O o o sXsX+ + sXsXsXsXo o =X=X=X;Xv.v.N.5.1.2.<XtX#XOXoX",
"1XV.&.1X1X+Xb.v.3.2.2.n.m.M.v.v.7.m.M.b.b.O O o o sXsX+ + sXsXsXsXo o &X&X&X%X%XOX+X&X7XyX1XoXv.v.3.",
"M.m.M.%.oX+XoX@Xv.3.2.&.k.M.m.m.m.m.m.O O + + dXdXdXdXsXsXdXdXdXdXsXsXo o b.b.M.b.b.v.v.v.v.n.v.v.7.",
"3.oXM.A.&.A.9X#X5XA.k.2.2.3.7.3.m.M.M.O O + + dXdXdXdXsXsXdXdXdXdXsXsXo o v.%.`.C.#X#X6X5XV.2.<XC.k.",
"OXb.M.A.'.c.b.b.+XOXm.7.5.5.V.m.m.m.m.O O sXsXdXdXdXdX+ + dXdXdXdXdXdXo o v.n...@.!.B.v.2.3.v.=.k.x.",
"c.b.V.b.%X%Xv.b.b.b.M.#X3.2.n.m.m.7.m.O O sXsXdXdXdXdX+ + dXdXdXdXdXdXo o %X+Xq.8.K._.Z.v.2.5.z.h.g.",
"v.m.n.b.b.b.M.v.v.m.N.Z.`.z.2.h.3.3.m.o o dXdXdXdXsXsXsXsXdXdXdXdXdXdXO O OXoX#Xz., , 7.{.6.g./.T.d.",
"v.v.v.b.M.%X%Xv.v.V.Z.N.B.z.4.i.l.4.2.o o dXdXdXdXsXsXsXsXdXdXdXdXdXdXO O OXoXn.5.Q.+...l.z._.t.t.t.",
"v.v.v.v.M.b.OXv.3.m.Z.v.m.Z.h.1.g.g.1.o o dXdXdXdX+ + + + sXsXO O + + O O c.c.n.h.3Xl.8.q.J./.J.J.J.",
"v.v.v.v.b.b.OXm.2.%.B.v.m.Z.5.O.l.Q.,.o o dXdXdXdX+ + + + sXsXO O + + O O n.X.5.2.l.k.4.q.$.t.J.J.J.",
"B.B.m.v.v.b.b.B.v.3.2.O O + + O O I.l.o o sXsXdXdXo o sXsXsXsXo o dXdXsXsXO O O O q.q.,.4.d.8.F.r.` ",
"C.C.m.v.v.v.m.B.M.3.2.O O + + O O @.l.o o sXsXdXdXo o sXsXsXsXo o dXdXsXsXO O O O _. .@.Q.8.` y S Z ",
"5.n.m.v.m.m.m.m.v.O O sXsXdXdX+ + o o O O + + o o O O sXsXdXdXsXsXdXdXdXdXo o O O w.F.S.H.( K.w.Z Z ",
"2.v.v.N.V.B.V.m.v.O O sXsXdXdX+ + o o O O + + o o O O sXsXdXdXsXsXdXdXdXdXo o O O w Z y S.H. .w.w.Z ",
"} x.x.5.B.3XC.N.3.o o dXdXsXsX+ + o o o o + + + + sXsXdXdXsXsXdXdXdXdXdXdXsXsXO O i. .8. .8.w., N Z ",
"X.h.x.2.7.m.n.h.c.o o dXdXsXsX+ + o o o o + + + + sXsXdXdXsXsXdXdXdXdXdXdXsXsXO O Z.C.5.1.e.q.8.w.w.",
"&.=.k.2.2.2.2.n.3.o o dXdXdXdXdXdXdXdXdXdXdXdXdXdXsXsXsXsXsXsXdXdXdXdXsXsX+ + O O v.b.oXv.7.C.q.e.w.",
"*.X.5.2.2.2.n.2.5.o o dXdXdXdXdXdXdXdXdXdXdXdXdXdXsXsXsXsXsXsXdXdXdXdXsXsX+ + O O M.m.v.m.v.C.7.4.q.",
"g.X.&.%.%.=.=.2.h.O O sXsXdXdXsXsXdXdXdXdXdXdXsXsXsXsXo o + + O O O O O O O O B.M.A.B.m.m.B.3.v.5.h.",
"u.&.X.&.*.=.y.1.i.O O sXsXdXdXsXsXdXdXdXdXdXdXsXsXsXsXo o + + O O O O O O O O 2.2.B.3XN.m.@Xv.v.2.7.",
"u.y.$.u.*.y.q.*.y.9.y.O O sXsXsXsXdXdXsXsXsXsXsXsX+ + + + O O O O v.v.n.m.m.m.3.4.3.N.m.h.v.v.m.7.2.",
"i.i.y.i.*.q.@.q.9.@.u.O O sXsXsXsXdXdXsXsXsXsXsXsX+ + + + O O O O v.v.m.M.<Xn.B.%.%.m.N.m.B.v.Z.C.7.",
"&.X.X.*.9.9.e.@.9.G.e.O O + + sXsXsXsX+ + sXsXsXsXsXsX+ + O O O O O O m.Z.A.A.k.m.O...h.rXC.N.M.m.B.",
"=.&.@.@.u.y.9.@.> > | O O + + sXsXsXsX+ + sXsXsXsXsXsX+ + O O O O O O C.Z.7.2.3.v.g. .9.4.N.<XB.m.v.",
"} @.y.9.| } } +.; O O O O O O sXsX+ + O O + + sXsX+ + + + O O O O O O O O O O 2.2.Z.i.> } z.Z.B.v.3.",
"*.u.u.9.9.t.t.> ; O O O O O O sXsX+ + O O + + sXsX+ + + + O O O O O O O O O O 2.1.5.7.O.y F.g.B.m.2.",
"$.u.I.e.e.8.Z e 6 O O O O O O + + sXsXo o O O + + sXsX+ + O O O O O O O O O O 2.3.2.3.C.S.r +.k.7.1.",
"| | 8. .e y ` (.5 O O O O O O + + sXsXo o O O + + sXsX+ + O O O O O O O O O O k.3.2.2.3.h. .6 @.4.3.",
"J.J.t.L.L.K.~ 3 ^ / 5 O O O O O O O O O O O O O O O O O O O O O O O O O O @.$.x.1.2.n.1.3.Q.! q 8.,.",
"P.L.H.r.y & 1 4 . . < O O O O O O O O O O O O O O O O O O O O O O O O O O q., 4.5.5.5.3.2.h.l.Q ^ ~ ",
"Z 8.w & r ^ R % 2 y t 2 E Q 7 O O O O O O O O O O O O O O O O O O : 0.h 0.s.#.O.!.Q.g.1.2.5.2.U.! 6 ",
"F.Z Z w.` ` F.(.(.< < W Y t ! O O O O O O O O O O O O O O O O O O A S r.M S r.q.$.l.Q.$.-.3.3.4.I.K.",
"P.J.w.L.w.F.Z q < 4 3 . 3 <   ^ ) X T 0 $ R K T [ s 8 ).S = b v _ [ ' [ s N H.i.J.d e.P.*.u.2.1.g.t.",
"Z y w y y y 6 r y / ! t 6 T I # b W.% pXg * 0 9 C W.M Y.R.a = v v b n G c V S #.P.d h 8., D./.!.z.4.",
"& 2 5 t  . . .! Q ( (.G.Q K P I @ j.~ L.iX6.#.a S W.XXO.~.H.f { x x c D D B B 0.s.t.q.+.w t t i.x.g.",
"$ 4 r q w | e S.~ ~ P.P.H.r.x I R.#.XX: x.4XZ.:.-.<..X7.l.eX~.R.M B D G ] [ m h h Z H./.I.i.r.@.1.2.",
"W W ' w , e ; e y t.h d.^.;.<.p.|.k.|.<.O.#XoX$X3.{.6.3X1X<X`.^.#.>.l ] ] ] c A s.j y H...t.g.l.4.2.",
"R % ` y * , y ' r.#.h.4.4.j.6. X|.+XB.5XoX|.eX@X@X<X$X@X#X1X1XZ.2.<.f H F u k V B >.a.d.q.P.#.i.i.h.",
"R ^ 9 ' S * 8 V E.~.,.XX~.6.<.].}.XX|.oX@X<XtX2X2X<X<X2X1X1X1X4X@X6.f.E.[ G n G D z J h t.l.8.o.h t.",
"L U ' - C C - 8 j f.f. Xa.XX].[.}.}.|.<X<X<X5X5X2X<X1X1X1X1X1X3X@X|.eX~.V c D p i i i ] { p - w.~ ~ ",
"Y M w s.f J H l H >.l p.].;.;.].}.|.<X$X$X2XrX5X2X2X1X1X1X1X1X1X#X$X3X.X<.p.s.k u F G { s = V L.5 5 "
};
