/* XPM */
static char *_ec60d7c65f24eb1f5bba76ebb83595fPoFb3oPZVkYIgql7[] = {
/* columns rows colors chars-per-pixel */
"50 50 222 2 ",
"   c #127C0E",
".  c #197D14",
"X  c #363F47",
"o  c #6C3C4A",
"O  c #354048",
"+  c #3A4248",
"@  c #4F5153",
"#  c #7D5643",
"$  c #745E56",
"%  c #6A7C5F",
"&  c #676465",
"*  c #717174",
"=  c #86695E",
"-  c #876D65",
";  c #168810",
":  c #1C8518",
">  c #2A8F0E",
",  c #259906",
"<  c #399B04",
"1  c #3B9B0B",
"2  c #218515",
"3  c #268A18",
"4  c #2B8D1C",
"5  c #348F16",
"6  c #299919",
"7  c #389617",
"8  c #379C13",
"9  c #3A9419",
"0  c #3B9B1B",
"q  c #0EA718",
"w  c #18A911",
"e  c #2BA30A",
"r  c #39A905",
"t  c #3BA40D",
"y  c #26B10B",
"u  c #39B50A",
"i  c #29A718",
"p  c #35A616",
"a  c #38AC15",
"s  c #3DA21B",
"d  c #3BAA1B",
"f  c #2BB216",
"g  c #29B21A",
"h  c #39B51B",
"j  c #1B8924",
"k  c #0A9424",
"l  c #18992A",
"z  c #298C27",
"x  c #299526",
"c  c #3A9425",
"v  c #369826",
"b  c #3B9C22",
"n  c #31942B",
"m  c #3C9D32",
"M  c #2BAD22",
"N  c #3CA323",
"B  c #37A928",
"V  c #2AB323",
"C  c #33B223",
"Z  c #39BA20",
"A  c #439D06",
"S  c #439E0A",
"D  c #419E1D",
"F  c #4CA504",
"G  c #4CAD03",
"H  c #44A408",
"J  c #4BA50B",
"K  c #45AC0C",
"L  c #4DA90C",
"P  c #54AB05",
"I  c #52AC0D",
"U  c #59AD0B",
"Y  c #49B607",
"T  c #4DBB09",
"R  c #55B102",
"E  c #5BB402",
"W  c #5DBA01",
"Q  c #54B30B",
"!  c #5CB40C",
"~  c #54BD09",
"^  c #5DB90A",
"/  c #43A415",
"(  c #4BA514",
")  c #44AC14",
"_  c #4CAA13",
"`  c #42A31C",
"'  c #4AA41B",
"]  c #45A91C",
"[  c #4CAB1B",
"{  c #51A614",
"}  c #52AB14",
"|  c #55A61A",
" . c #54AD1C",
".. c #46B11C",
"X. c #4AB719",
"o. c #56B414",
"O. c #5BB513",
"+. c #54BC17",
"@. c #5DBB14",
"#. c #54B21B",
"$. c #5BB41B",
"%. c #5DBB1A",
"&. c #60B500",
"*. c #63BC03",
"=. c #69BE03",
"-. c #61B60D",
";. c #63BB0C",
":. c #69BD0B",
">. c #60AF1A",
",. c #61B710",
"<. c #63BB14",
"1. c #68BD11",
"2. c #61B71B",
"3. c #64BC1A",
"4. c #68BB1A",
"5. c #449926",
"6. c #5B9934",
"7. c #43A423",
"8. c #44AA21",
"9. c #4CAB23",
"0. c #46A328",
"q. c #46A92A",
"w. c #4BAD2C",
"e. c #51AC20",
"r. c #57AB27",
"t. c #4AB827",
"y. c #54B323",
"u. c #51BC24",
"i. c #5BB825",
"p. c #51B129",
"a. c #47A236",
"s. c #4AB73A",
"d. c #57B331",
"f. c #64BB25",
"g. c #6BBE21",
"h. c #63A731",
"j. c #4CC202",
"k. c #5CC304",
"l. c #52C109",
"z. c #5BC20E",
"x. c #4CC417",
"c. c #5CC212",
"v. c #56C11B",
"b. c #66C201",
"n. c #6BC403",
"m. c #6DC802",
"M. c #65C20A",
"N. c #6BC30B",
"B. c #6BC80E",
"V. c #72C603",
"C. c #79C701",
"Z. c #73CA02",
"A. c #7ACC03",
"S. c #76CB0B",
"D. c #76C90C",
"F. c #7BD302",
"G. c #7CD20C",
"H. c #65C313",
"J. c #6AC413",
"K. c #69C916",
"L. c #65C21C",
"P. c #6AC31C",
"I. c #6BC918",
"U. c #73C614",
"Y. c #73CA13",
"T. c #79CC13",
"R. c #73C518",
"E. c #79CC1A",
"W. c #7DD112",
"Q. c #5AC423",
"!. c #66C223",
"~. c #6BC525",
"^. c #75CC22",
"/. c #71D22D",
"(. c #598444",
"). c #649847",
"_. c #6A8A57",
"`. c #4EB444",
"'. c #6FA35A",
"]. c #7A8970",
"[. c #80D40D",
"{. c #828C78",
"}. c #889C7E",
"|. c #B89F7F",
" X c #BAA07D",
".X c #C3A36F",
"XX c #C5A575",
"oX c #CCAA73",
"OX c #8A8585",
"+X c #928481",
"@X c #8D9884",
"#X c #929C88",
"$X c #9C9798",
"%X c #A0928F",
"&X c #A29A99",
"*X c #B9A387",
"=X c #A7A39D",
"-X c #A2B893",
";X c #ABA6A5",
":X c #B7ABA6",
">X c #B2ABAC",
",X c #B1B3A8",
"<X c #BBB4B4",
"1X c #BEB8B7",
"2X c #C8AE8C",
"3X c #C5B7AE",
"4X c #C1B6B5",
"5X c #C3BCBC",
"6X c #DAD78C",
"7X c #E0DD8F",
"8X c #E9E68B",
"9X c #ECE98D",
"0X c #E6E290",
"qX c #C8C4BE",
"wX c #C6BFC0",
"eX c #C7C0C1",
"rX c #CBC3C4",
"tX c #D7CECF",
"yX c #D7D0CF",
"uX c #D8CFD0",
"iX c #DCD4D4",
"pX c #E2D9DA",
/* pixels */
"b.N.b.n.b.b.b.b.b.b.N.m.V.n.S.Z.Z.Z.C.V.V.Z.n.m.Z.Z.C.C.A.A.C.C.A.S.A.S.A.F.A.A.F.F.[.[.T.^.T.*.P J ",
"k.b.b.n.n.n.n.n.b.n.m.N.n.m.m.Z.S.S.S.m.Z.m.n.b.n.m.S.C.C.S.S.S.U.E.E.T.F.F.[.T.A.Z.U.:.&.P P E ^ !.",
"b.m.*.n.n.n.N.n.n.n.n.N.n.n.m.Z.Z.S.S.Z.m.m.b.*.*.b.N.S.D.:.U.E.E.E.R.:.N.N.:.;.E E U E *.C.S.G.T.M.",
"b.b.N.n.b.b.n.M.b.b.b.M.n.m.Z.Z.A.S.S.m.m.b.b.W W *.*.-.E E &.=.b.=.=.*.=.=.*.=.V.T.E.T.[.[.G.T.N.B.",
"M.b.N.b.n.N.m.n.b.b.b.n.n.m.Z.Z.Z.m.n.b.b.b.b.b.W *.*.~.P.I.J.J.U.S.S.G.G.F.F.F.G.G.W.R.R.U.:.1.b.N.",
"<.n.M.M.M.n.n.n.n.b.b.n.m.m.m.m.n.n.m.b.b.b.n.b.b.*.b.3.4.2.3.%.2.2.2.4.H.J.J.1.:.@.O.P E *.M.=.*.*.",
"#.B.b.W W *.b.b.b.b.M.m.V.m.n.n.b.n.n.V.n.m.m.n.n.n.n.N.N.J.H.3.!.Q.i.} Q P O.O.E ! $.~.2.E ~ L.K.n.",
"#.I P 3.4.;.*.*.*.*.W b.b.N.V.V.V.o o O O O O O O # # Y.Y.Y.^.!.%._ [ } o.! ! ;.H.<.4.E U :.f.3.H.P.",
"3.;.E F P W :.N.n.Z.T.m.V.V.C.A.A.o o O O O O O O # # *.W P P P L I o.2.3.3.,.;.*.W E -.b.W W H.!.W ",
"b.n.N.~.H.E R ! ;.*.*.D.A.A.A.o o oXoXoXoX# # oXoXo o O O *.;.;.;.;.H.;.;.*.:.1.,.-.*.4.,.b.H.P.E W ",
"W *.*.b.J.^.Y.C.m.n.V.V.C.C.C.o o oXoXoXoX# # oXoXo o O O =.b.:.;.^ *.*.:.;.;.E E W *.=.m.J.J.P 1.J.",
"^ *.*.-.*.*.*.*.=.=.:.=.=.o o oXoX9X9X9X9XoXoX9X9X9X9X# # O O ;.;.;.;.;.:.@.P E W *.M.b.m.b.P :.;.:.",
"@.2.H.E 1.K.U.N.N.2.f.P *.o o oXoX9X9X9X9XoXoX9X9X9X9X# # O O :.:.;.W ^ W E E @.4.I.N.R.4.P 4.:.b.W ",
"%.@.U *.W E *.<.i.J H -.*.o o 9X9X9X9X9X9X# # 9X9X9X9XoXoXO O ;.;.;.;.1.! ! ^ ;.n.m.=.=.&.g.4.:.=.n.",
"o.O.$.! E *.3.d.0./ ( m.V.o o 9X9X9X9X9X9X# # 9X9X9X9XoXoXO O ;.^ ;.;.-.E W N.:.=.=.=.*.V.V.=.1.=.&.",
"..y.p.o.~ k.^ 1 1 $.N.b.n.O O 9X9X9X9X9X9XoXoXoXoX9X9X9X9Xo o ;.W W O.E $.f.3.,.;.*.*.:.=.=.=.-.;.*.",
"[ [ [ d.$.#.H J y.! -.b.N.O X 9X9X9X9X9X9XoXoXoXoX9X9X9X9Xo o E Q #. .Q $.<.,.3.1.*.*.V.V.:.=.*.*.*.",
"9.9.9.p.9._ / #.L.O.-.&.E X X # # O O oXoX# # # # 9X9X9X9Xo o R o.o.R O.3.;.*.3.;.W *.n.=.:.*.*.*.*.",
"9.9.9.[ L _ Q @.#.E ! F -.O X # # O O oXoX# # # # 9X9X9X9Xo o Y y.#.G ! 3.;.*.<.P E ;.n.=.=.*.*.*.*.",
"N ] 7./ ..Q Y _ _ O O O O oXoX9X9Xo o oXoXoXoXo o 9X9XoXoXo o #.e.O O # # O O E W *.<.=.=.*.*.;.<.<.",
"s d 0 N / y.J 0 d.O O O X oXoX9X9Xo o oXoXoXoXo o 8X8XoXoXo o I J O O # # O O E W :.<.;.*.*.*.;.2.2.",
"s s ` 0.m 8.5.7.` O O o o 9X9X9X9XoXoX9X9XoXoXO X o o # = X X o o # # 9X9XoXoXO O *.;.;.;.;.*.;.-.! ",
"s ` ` D 8.7.0 s 8 O O o o 9X9X9X9XoXoX9X9XoXoXO X o o # # X X o o # # 9X9XoXoXO O *.;.1.<.1.,.*.*.E ",
"s s 1 ` 5.}.=X=X'.+ O oXoX9X9X9X9X9X9XoXoX9X9XoXoX# # # # o o o o # # oXoX9X9Xo o W ,.2.L.<.! %.%.A ",
"` ` / _ (.#X1XeX-X& X oXoX9X9X9X9X9X8XoXoX8X9XoXoX# # # # o o o o # # oXoX9X9Xo o &.O.-.;.^ E %.O.F ",
"` ' _ 2.6.OX1XiXqX$X* - = XX.X7X9X9X8XXX2X2X2XoXoX9X9X9X9X9X9X9X9X9X9X9X9X9X9Xo o W -.E E E E @.U P ",
"_ Q ^ 2.6.}.1XiXuXwX>X&X%X*X*X6X7X0X7X*X3X5X3X*XoX9X9X9X9X9X9X9X9X9X9X9X9X9X9Xo o ! E -.E E E ! F I ",
"O.! *.W _.,XyXiXwX>X<XwXwXwXwX1X>X&X&X4XtXpX5X:XoXoXoX9X9X9X9X9X9XoXoX9X9XoXoXO O O.E U U P P U F O.",
"^ E *.*._.;X5X1X=X@X#X$X;X>X<X<X<X4XrXiXpXpXrX:XoXoXoX9X9X9X9X9X9XoXoX9X9XoXoXO O  .R { U I P F P } ",
"E ! ;.*.(.OX#X#X).5.6.6.% ].{.@X&X>X5XiXpXpX5X+X# oXoXoXoXoXoX9X9XoXoXoXoXO O { ( { I _ { I } J { } ",
"^ 2.4.*.r.).).h.| P 2.>.f.r.6.)._.& OX>XiXiX<X= # oXoXoXoXoXoX9X9XoXoXoXoXO X } J ( _ J _ I  .{  .e.",
"<.;.:.-.2.f. .1 G ;.,.4.4.2.E X X @ @ OXwXtX<X|.oXoXoXoXoX# # oXoXoXoX# # O + ' 7.( J ' ( ( } F F P ",
"*.;.<.H.,.Q ( D o.*.W E ^ 3.2.O O O + & $X,X%X XoXoXoXoXoX# # oXoXoXoX# # O O S < < J ( { } J J P U ",
"W *.<.3.#.H <  .3.E E O O O O O O O + @ & & $ # # oXoX# # O O # # oXoXO O O O O + < H A A S ( { J A ",
"E ;.<.o.7.0 G ^ ! R E O O O O O O O O O X # # # # oXoX# # O O # # oXoXO O O O O X < < [ [ ( ( } } I ",
"R ^ @.J 5 5.2.W E W E O O O O O O O O O X # # .XoX# # + O o o oXoX# # O O O O O X 5 0 ` / ' ' e.} L ",
"W Q J 5 s O.W E E W @.O O O O O O O O O O # # oXoX# # O O o o oXoX# # O O O O O O z a.N 0 0 D / S S ",
"Y / 5 c y.W R -.E R %.L J O O O O O O O O O O O O O O O O O O O O O O O O O O 4 v n 2 b 0.0.q.[ 9.9.",
"b n n #.O.E W ! ! ! Q 1 _ O O O O O O O O O O O O O O O O O O O O O O O O + O 2 . . 3 3 > 0 ] 8.q.w.",
"5 c r.E ! E R o.y.i.G K ..) t ) < O O O O O O O O O O O O O O O O O O > v x > 9 0 > : x n 9 > 8 / s ",
"0.e.Q W W Y L y.#.L _ ] d p ] p d X X O O O O O O O O O O O O O O O O n c z n 2 2 a.a.7.N N ` s s 7.",
"[ o.P E } I w.' H 9. .8.t 8 C B M M i 6 , B s.6 e C x k x : 6 x : m n   2 2 . 2 3 2 5 s 7.` q.` 9.w.",
"Q $.i.p.5.1 s t r w.K d a f g g i i w , e t.Z p t.p 6 6 , t `.: t.6 ; l x 5 9 c v 0 5 5 0 0 0 8 0 s ",
"o.%. .7 7 8 J _ ( ..) a p f f i i i Z r ] v.L v.t.d e K ~ /.q.b v.; l k : n 9.a.m v c ` D D 7 4 3 > ",
"E R J ]  .e.p.8.s t t i C V f f a p t.u.Q.#.^ c.T Y T <.P.%.r +.K t.l i ] ] w.w.b 0 5.0 S 8 7 9 z ; ",
"E Q #.o.( H 8.0 r ..a f V V V u Y K i.f.H.J.L.l.k.W B.b.N.G Y z.@.z.X.T Y i...t [ 0 8 < 8 1 8 B z n ",
"O.#. .K w._ [ +.Y f a y w g h r T E 3.J.J.N.M.B.H.M.M.Q.z.b.I.<.m.z.x.l.+.o.Q O.K ] B 0 1 , 0 N : x ",
"[ t H / #.[ t h i g g g f V t.X.~ M.P.J.J.J.K.H.H.K.K.~.H.M.b.z.v.l.j.Y ~ u.+.Y u.t.a 5 , d B 6 n x ",
"b b ` , q Z V q q q w g f a u.Q.z.M.L.J.J.J.J.J.H.K.K.I.H.H.H.z.l.l.j.j.v.x.x.X.x.a 6 , p i , B z j ",
"4 4 q.a , e Z g g w y ..X.T z.L.B.N.J.J.J.J.J.J.K.K.I.!.K.B.B.H.z.l.j.Y Y j.X.u Y f u h h r ..8 8 z "
};
