/* XPM */
static char *_45123b20a534da9c1fc3d86491ffd97XXm4330VoGWGQkEI[] = {
/* columns rows colors chars-per-pixel */
"47 45 203 2 ",
"   c #1A7D12",
".  c #354048",
"X  c #505558",
"o  c #4A6578",
"O  c #198E01",
"+  c #1F830E",
"@  c #21820E",
"#  c #298E0E",
"$  c #328F0A",
"%  c #2E9402",
"&  c #289901",
"*  c #379600",
"=  c #389600",
"-  c #3E9B04",
";  c #33950E",
":  c #39950B",
">  c #3B9B0B",
",  c #218515",
"<  c #248B13",
"1  c #24851C",
"2  c #268D1A",
"3  c #2C8E1A",
"4  c #348F16",
"5  c #2C9014",
"6  c #2B981B",
"7  c #339314",
"8  c #3A9416",
"9  c #369B13",
"0  c #3D9C13",
"q  c #34921C",
"w  c #39961B",
"e  c #3B9B1A",
"r  c #3FA302",
"t  c #35AE00",
"y  c #3BA40D",
"u  c #39A90C",
"i  c #23B107",
"p  c #34B10D",
"a  c #27A216",
"s  c #21AE11",
"d  c #2CAD16",
"f  c #22AC18",
"g  c #36A717",
"h  c #3BA215",
"j  c #37AB16",
"k  c #3DA21B",
"l  c #34AF18",
"z  c #3BAB1B",
"x  c #2CB116",
"c  c #22B01C",
"v  c #2DB41B",
"b  c #38B51C",
"n  c #1A8E23",
"m  c #0A9424",
"M  c #189827",
"N  c #278C22",
"B  c #229427",
"V  c #2A902D",
"C  c #339423",
"Z  c #399424",
"A  c #3B9A23",
"S  c #32942A",
"D  c #379928",
"F  c #3C9D2B",
"G  c #26AF21",
"H  c #3CA223",
"J  c #3CA52C",
"K  c #37A92C",
"L  c #2AB220",
"P  c #30B121",
"I  c #419D06",
"U  c #439E0A",
"Y  c #429E13",
"T  c #419E1C",
"R  c #43A403",
"E  c #4CA505",
"W  c #44A901",
"Q  c #4CAA03",
"!  c #44A40D",
"~  c #4BA50C",
"^  c #47AC0C",
"/  c #4DAA0C",
"(  c #54AD03",
")  c #58AD00",
"_  c #53AC0D",
"`  c #59AE0C",
"'  c #45B103",
"]  c #4EB705",
"[  c #45B60B",
"{  c #4DB40A",
"}  c #4EBC0C",
"|  c #55B102",
" . c #5BB402",
".. c #53BD04",
"X. c #5DBA01",
"o. c #54B30B",
"O. c #5CB40C",
"+. c #56BD0D",
"@. c #5CB90B",
"#. c #43A315",
"$. c #4BA514",
"%. c #44AF13",
"&. c #4CAA13",
"*. c #43A31C",
"=. c #4AA41B",
"-. c #47A81E",
";. c #4CAB1B",
":. c #50A516",
">. c #52AB14",
",. c #58AE15",
"<. c #54AD1C",
"1. c #45BA13",
"2. c #4EB914",
"3. c #47B018",
"4. c #4DB11C",
"5. c #55B515",
"6. c #5BB413",
"7. c #5DBA14",
"8. c #53B21A",
"9. c #5BB51B",
"0. c #5FBE18",
"q. c #60B400",
"w. c #63BC03",
"e. c #6ABE03",
"r. c #60B60C",
"t. c #63BB0C",
"y. c #6ABD0B",
"u. c #61B710",
"i. c #63BB14",
"p. c #69BE11",
"a. c #61B71B",
"s. c #64BC1A",
"d. c #68BC1B",
"f. c #419C23",
"g. c #40982A",
"h. c #43A423",
"j. c #4AA423",
"k. c #43A921",
"l. c #4CAB23",
"z. c #42A42D",
"x. c #47AA29",
"c. c #4AAC2D",
"v. c #51AD29",
"b. c #43B423",
"n. c #4FB222",
"m. c #48B926",
"M. c #55B324",
"N. c #5CB325",
"B. c #52BB25",
"V. c #5ABA25",
"C. c #51B129",
"Z. c #44A237",
"A. c #4AA334",
"S. c #51B030",
"D. c #5AB531",
"F. c #62B623",
"G. c #66BE22",
"H. c #6CBE22",
"J. c #62BF29",
"K. c #4BC300",
"L. c #5EC402",
"P. c #53C20B",
"I. c #5CC20F",
"U. c #4CC417",
"Y. c #5CC212",
"T. c #5AC01E",
"R. c #66C202",
"E. c #6BC403",
"W. c #6DC802",
"Q. c #65C20A",
"!. c #6BC30B",
"~. c #6AC80F",
"^. c #72C404",
"/. c #79C600",
"(. c #73C903",
"). c #7ACA02",
"_. c #72C50B",
"`. c #75CB0B",
"'. c #7BD403",
"]. c #7CD20C",
"[. c #66C214",
"{. c #6AC212",
"}. c #6BC312",
"|. c #68C917",
" X c #65C21C",
".X c #6BC31C",
"XX c #6DC919",
"oX c #70C413",
"OX c #73CA14",
"+X c #78C912",
"@X c #74C61A",
"#X c #71C819",
"$X c #7BCE1A",
"%X c #77D215",
"&X c #7DD212",
"*X c #7DD219",
"=X c #5EC826",
"-X c #65C323",
";X c #6AC523",
":X c #71CB22",
">X c #80D40D",
",X c #879289",
"<X c #C0BDB1",
/* pixels */
"+X].>X&X*X$X`._.E.e.w.e.w.e.e.e.w.w.|  .@.y.w.X.X.R.E.W.W.(.(.`.(.(.W.E.!.R.R.R.R.Q.E.R.R.!.E.",
"p.p.oX@XOX&X].].'.'.'.].'.`.`._.}.}..X.X;Xw.X.w.w.R.w.R.R.W.W.W.(.^.W.E.E.R.R.R.E.E.E.E.E.Q.R.",
"e.R.w. .) a.r.t.}.}.}.i.s.a.a.7.a.a.s..X. . . . R.R.R.R.R.W.E.E.^.W.W.E.E.R.R.W.W.W.Q.R.Q.R.R.",
"-X@.| a.H.9.O. .6.6. .o.<.V.=XG. X[.}.!.. . . . W.W.W.W.W.W.R.E.E.E.W.W.W.Q.R.R.R.R.w.X.X.R.~.",
"s.-Xi. .` i.i.d.s.O.O.6._ ;.;.9. X#X#XOX. . ,X,X. . E._.^.^.^.^.W.W.W.E.E.X.q.w.w.w.y.d.s.( _ ",
"[.X.X.R.r. . .w.t.u.a.s.0.5._ / ( | | X.. . ,X,X. . y._.)._.(.).)././.^.W.%X`.(.~.!.X.( E  .t.",
".X[.R.O.H.w.q.u.p.y.w.t.t.[.t.@.X X . . . . o o o o .X>X).)././././.).(.`.w.q.r.O.|  .i.;X~.E.",
"( .X~.E.y.w.X. . .t.t.r.w.w.r.w.X X . . . . o o o o ( w.(.).)./.)./././.^.(.E.W.^.OX:X.XR.w.w.",
"t.| E.W.E.Q.w.X.| O.7.t.Q.w.X X ,X,X,X,X,X,Xo o <X<X. . q.e.e./.(._.y.e.e.y.e.e.w.w.w.R.O.w.y.",
"y.d.) i.}.!.XX.XO. . .X.t.r.X X ,X,X,X,X,X,Xo o <X<X. . @Xq.w.y.e.E.E.e.) F.i.t.!.@X#Xt.w.t.7.",
"y.d.H.w.e.E.W.E.Q.r.O.O.X X ,X,X<X<X<X<Xo o <X<X<X<X. . !.`.!.p.y.(.^.w.q.R $.N.i.w. .X. .o.7.",
"r.y.E.E.w.e.y.w.y.Q. . .X X ,X,X<X<X<X<Xo o <X<X<X<X. . W.p.E.^.W._._.W.E.^ #.j.D.s.w. .O.9.5.",
"y.e.e.e._.w.w.y.u.s.d.6.X X <X<X<X<X<X<X,X,X<X<X,X,XX X e.E.(./././.E.E.E.}.9.> > @.L.o.9.B.M.",
"w.e.y.E._.e.w.i.s.i.s.9.X X <X<X<X<X<X<X,X,X<X<X,X,XX X e.w.e.E._._.^.e.y.X.6.M.! R 9.9.D.;.-.",
"w.e.y.e.E.w.q.r.s.w.r.s.. . <X<X<X<X<X<X<X<X,X,X,X,XX X _.y.|  .}.#XE. . . .6. X9.#.&.j.v.l.l.",
"q.w.w.e.e.w.q. .t.w.t. X. . <X<X<X<X<X<X<X<X,X,X,X,XX X ^.!.w. .o.O.@.O.( O.o.5.5.o.&.^ -.l.l.",
"t.w.w.R.y.t.y. . .r.i.s.. . o o . . ,X,X<X<X<X<X,X,XX X ^._.W.Q. .E _ 6.6.) 9.8.&.o.o.;.$.k k ",
"t.w.w.w.w.i.Q. . .y.i.i.. . o o . . ,X,X<X<X<X<X,X,XX X ^.(.W._.#Xu.) E ,./ ;.v.#.! M.#.J 9 k ",
"t.w.t.t.r.t.w.@.. . . . ,X,X<X<XX X <X<X<X<X<X<Xo o . . E.E.^.(._.p.w.| E ! 9 -.h.f.k.F z.-.*.",
"w.t.i.i.i.Q.w.s.. . . . ,X,X<X<XX X <X<X<X<X<X<Xo o . . w.E.E.^.y._.E.X.i.M.h 9 k e f.k.k k -.",
"7.6.i. Xi.i.q.w.. . X X <X<X<X<X<X<X<X<X<X<X<X<Xo o . . | e.^.^.. . o o . . a.<.T $.*.h *.y h ",
"7.O.O.r.O.u.X. .. . X X <X<X<X<X<X<X<X<X<X<X<X<Xo o . .  .q.e._.. . o o . . y.s.u.6.| $.~ #.#.",
"u.O.X. . .r. .| . . ,X,X<X<X<X<X<X<X<X<X<X<X,X,X,X,Xo o . . . . o o <X<X,X,X. . t.e.w.@.7.&.=.",
"O. . . .r.X.r.( . . ,X,X<X<X<X<X<X<X<X<X<X<X,X,X,X,Xo o . . . . o o <X<X,X,X. . y.w.t.y.a.7.>.",
"( ( ) o.`  .6._ . . o o ,X,X<X<X<X<X<X<X,X,Xo o ,X,X<X<X,X,Xo o . . o o <X<XX X .Xt.w.i.X.w.@.",
"Q _ _ ` >.( ,.:.. . o o ,X,X<X<X<X<X<X<X,X,Xo o ,X,X<X<X,X,Xo o . . o o <X<XX X [.r.r.Q.w.w.X.",
"~ _ _ >.~ _ :.:.:.:.. . . . . . . . o o X X o o <X<X<X<X<X<X<X<X<X<X<X<X<X<XX X u.r.u.R.w.t.X.",
":.<.>.~ ~ :.$.~ :.Y . . . . . . . . o o X X o o <X<X<X<X<X<X<X<X<X<X<X<X<X<XX X r.u.r.s.w.s.a.",
"E _ :.$.=.~ =.=.=.$.$.M.; q 8 h . . X X o o o o ,X,X<X<X<X<X<X<X,X,X<X<X,X,X. . W 6.s.s.i.t.t.",
"E ~ :.$.$.~ - I U =.l.N.: 7 7 7 . . X X o o o o ,X,X<X<X<X<X<X<X,X,X<X<X,X,X. . *.$.o.a.[.u.w.",
">.>.R I U R = = Y T T l.Y ; 7 q . . . . o o o o ,X,X,X,X,X,X<X<X,X,X,X,X. .  .i.<.- U 9.s.s.w.",
"$.$.$.<.;.- > w w Y Y l.Y 7 q Z . . . . o o o o ,X,X,X,X,X,X<X<X,X,X,X,X. . | @.@.E e j.2.s.t.",
"<.=.=.-.e 0 7 Z A w $ 0 T 7 . . . . . . o o ,X,X,X,X,X,Xo o ,X,X,X,Xo o . . Q. . .7.j.q #.6.r.",
"=.T 8 e z.F 3 1 C A 4 ; ; 3 . . . . . . o o ,X,X,X,X,X,Xo o ,X,X,X,Xo o . . X.|  .X.o.T q ! o.",
"k.k.x.H e N S D 3   . . . . . . . . . . o o o o ,X,Xo o . . o o ,X,X. . . . . . r.| X.M.A q h ",
"k.k.h 5 < <     , # . . . . . . . . . . o o o o ,X,Xo o . . o o ,X,X. . . . . . O.q.X.6.8.C S ",
"9 # C S 2 1 < f.w # . . . . . . . . . . o o X X ,X,X. . X X ,X,Xo o . . . . . . +.|  .o. .v.w ",
"k -.H H H A.Z., , V . . . . . . . . . . o o X X ,X,X. . X X ,X,Xo o . . . . . . M./ ( X. .o.l.",
"h.l.h.h.k 7 @ 2 <   1 @ . . . . . . . . . . . . . . . . . . . . . . . . . . ;.r h.v.` >. .o.6.",
"7 e e e 7 q e J Z w 4 B . . . . . . . . . . . . . . . . . . . . . . . . . . c.r > #.> g.M.N.9.",
"5 e k.T f.Z C F A.f.w n m M O 0.. . . . . . . . . . . . . . . . . . x l g %.3.l.%.! 7 e w $.9.",
"C 5 0 Y Y A A e c.S.k.b a B m.%.. . . . . . . . . . . . . . . . . . L L d j u h h.C.M.8.-.~ o.",
"J 9 > > : > #.;.#.4.B.' } 1.Y.+.P.] Q R.Q.Q.L.L.+. X[.|.J.M.[ [ p P G v d j b.u e k.W ;.5.8.o.",
"J h % : e K z &.6.o.o.7...U.Y.E.t.|.W.I.=Xw.Q.[.[.R.}.}.}.s.( ..t b f s i j g [ 2.8.$.l.Q <.8.",
"6 K g & 6 j m.B.o.T.m.} } K.P.Y.I.Q.Q.[.;X|.|.[.[.}.}.}.[.;XQ.+.2.m.L v f x x d z j &.M.$.W y "
};
