/* XPM */
static char *c99f0979463049059df56cfbfb69072djz3S81r26XodBJEa[] = {
/* columns rows colors chars-per-pixel */
"47 45 197 2 ",
"   c #1A7D12",
".  c #354048",
"X  c #505558",
"o  c #4A6578",
"O  c #198E01",
"+  c #21820E",
"@  c #298E0E",
"#  c #328F0A",
"$  c #2E9402",
"%  c #289901",
"&  c #389600",
"*  c #3E9B04",
"=  c #33950E",
"-  c #39950B",
";  c #3B9B0B",
":  c #218515",
">  c #248B13",
",  c #24851C",
"<  c #268D1A",
"1  c #2C8E1A",
"2  c #348F16",
"3  c #2C9014",
"4  c #2B981B",
"5  c #339314",
"6  c #3A9416",
"7  c #369B13",
"8  c #3D9C13",
"9  c #34921C",
"0  c #39961B",
"q  c #3B9B1A",
"w  c #3FA302",
"e  c #35AE00",
"r  c #3BA40D",
"t  c #39A90C",
"y  c #23B107",
"u  c #34B10D",
"i  c #27A216",
"p  c #21AE11",
"a  c #2CAD16",
"s  c #22AC18",
"d  c #36A717",
"f  c #3BA215",
"g  c #37AB16",
"h  c #3DA21B",
"j  c #34AF18",
"k  c #3BAB1B",
"l  c #2CB116",
"z  c #2DB41B",
"x  c #38B51C",
"c  c #1A8E23",
"v  c #0A9424",
"b  c #189827",
"n  c #278C22",
"m  c #229427",
"M  c #2A902D",
"N  c #339423",
"B  c #399424",
"V  c #3B9A23",
"C  c #32942A",
"Z  c #379928",
"A  c #3C9D2B",
"S  c #26AF21",
"D  c #3CA223",
"F  c #3CA52C",
"G  c #37A92C",
"H  c #2AB220",
"J  c #30B121",
"K  c #419D06",
"L  c #439E0A",
"P  c #429E13",
"I  c #419E1C",
"U  c #43A403",
"Y  c #4CA505",
"T  c #44A901",
"R  c #4CAA03",
"E  c #44A40D",
"W  c #4BA50C",
"Q  c #47AC0C",
"!  c #4DAA0C",
"~  c #54AD03",
"^  c #58AD00",
"/  c #53AC0D",
"(  c #59AE0C",
")  c #45B103",
"_  c #4EB705",
"`  c #45B60B",
"'  c #4EBC0C",
"]  c #55B102",
"[  c #5BB402",
"{  c #53BD04",
"}  c #5DBA01",
"|  c #54B30B",
" . c #5CB40C",
".. c #56BD0D",
"X. c #5CB90B",
"o. c #43A315",
"O. c #4BA514",
"+. c #44AF13",
"@. c #4CAA13",
"#. c #43A31C",
"$. c #4AA41B",
"%. c #47A81E",
"&. c #4CAB1B",
"*. c #50A516",
"=. c #52AB14",
"-. c #58AE15",
";. c #54AD1C",
":. c #45BA13",
">. c #4EB914",
",. c #47B018",
"<. c #4DB11C",
"1. c #55B515",
"2. c #5BB413",
"3. c #5DBA14",
"4. c #53B21A",
"5. c #5BB51B",
"6. c #5FBE18",
"7. c #60B400",
"8. c #63BC03",
"9. c #6ABE03",
"0. c #60B60C",
"q. c #63BB0C",
"w. c #6ABD0B",
"e. c #61B710",
"r. c #63BB14",
"t. c #69BE11",
"y. c #61B71B",
"u. c #64BC1A",
"i. c #68BC1B",
"p. c #419C23",
"a. c #40982A",
"s. c #43A423",
"d. c #4AA423",
"f. c #43A921",
"g. c #4CAB23",
"h. c #42A42D",
"j. c #47AA29",
"k. c #4AAC2D",
"l. c #51AD29",
"z. c #43B423",
"x. c #48B926",
"c. c #55B324",
"v. c #5CB325",
"b. c #52BB25",
"n. c #5ABA25",
"m. c #51B129",
"M. c #44A237",
"N. c #4AA334",
"B. c #51B030",
"V. c #5AB531",
"C. c #62B623",
"Z. c #66BE22",
"A. c #6CBE22",
"S. c #62BF29",
"D. c #4BC300",
"F. c #5EC402",
"G. c #53C20B",
"H. c #5CC20F",
"J. c #4CC417",
"K. c #5CC212",
"L. c #5AC01E",
"P. c #66C202",
"I. c #6BC403",
"U. c #6DC802",
"Y. c #65C20A",
"T. c #6BC30B",
"R. c #6AC80F",
"E. c #72C404",
"W. c #79C600",
"Q. c #73C903",
"!. c #7ACA02",
"~. c #72C50B",
"^. c #75CB0B",
"/. c #7BD403",
"(. c #7CD20C",
"). c #66C214",
"_. c #6BC312",
"`. c #68C917",
"'. c #65C21C",
"]. c #6BC31C",
"[. c #6DC919",
"{. c #70C413",
"}. c #73CA14",
"|. c #78C912",
" X c #74C61A",
".X c #71C819",
"XX c #7BCE1A",
"oX c #77D215",
"OX c #7DD212",
"+X c #7DD219",
"@X c #5EC826",
"#X c #65C323",
"$X c #6AC523",
"%X c #71CB22",
"&X c #80D40D",
"*X c #879289",
"=X c #C0BDB1",
/* pixels */
"I.T.P.P.I.Y.P.P.P.P.T.I.U.Q.Q.^.Q.Q.U.U.I.P.} } 8.w.X.[ ] 8.8.9.9.9.8.9.8.9.I.~.^.XX+XOX&X(.|.",
"P.Y.I.I.I.I.I.P.P.P.I.I.U.E.Q.U.U.U.P.P.8.P.8.8.} 8.$X].]._._.~.^.^./.(./././.(.(.OX}. X{.t.t.",
"P.P.Y.P.Y.U.U.U.P.P.I.I.U.U.E.I.I.U.P.P.P.P.P.. . . . ].u.y.y.3.y.y.u.r._._._.q.0.y.^ [ 8.P.9.",
"R.P.} } 8.P.P.P.P.Y.U.U.U.I.I.I.P.U.U.U.U.U.U.. . . . T._.).'.Z.@Xn.;.| [ 2.2.[  .5.A.y.] X.#X",
"/ ~ u.i.w.8.8.8.7.} I.I.U.U.U.E.E.E.E.~.I.. . *X*X. . }..X.X'.5.&.&./ 2. . .u.i.r.r.( [ r.#Xu.",
"q.[ Y ~ } T.R.Q.^.oXU.E.W.W.!.!.Q.~.!.~.w.. . *X*X. . } ] ] ~ ! / 1.6.u.y.e.q.8.[ [ 0.P.} } ).",
"I.R.$Xr.[ ]  .0.7.8.^.Q.!.W.W.W.W.!.!.&X].o o o o . . . . X X X.q.).q.q.8.w.t.e.7.8.A. .P.).].",
"8.8.P.].%X}.E.U.I.Q.E.W.W.W.!.W.!.!.Q.8.~ o o o o . . . . X X 8.0.8.8.0.q.q.[ [ } 8.w.I.R.].~ ",
"w.8. .P.8.8.8.9.9.w.9.9.w.~.Q.W.9.9.7.. . =X=Xo o *X*X*X*X*X*XX X 8.Y.q.3. .] } 8.Y.I.U.I.] q.",
"3.q.8.q..X XT.q.r.C.^ 9.I.I.9.w.8.7. X. . =X=Xo o *X*X*X*X*X*XX X 0.q.} [ [  .].[.T._.r.^ i.w.",
"3.| [ } [ 8.r.v.O.U 7.8.E.Q.w.t.T.^.T.. . =X=X=X=Xo o =X=X=X=X*X*XX X  . .0.Y.I.U.I.9.8.A.i.w.",
"1.5. .[ 8.u.V.d.o.Q I.U.~.~.U.E.I.t.U.. . =X=X=X=Xo o =X=X=X=X*X*XX X [ [ Y.w.8.w.9.8.I.I.w.0.",
"c.b.5.| F.X.; ; 5._.I.I.I.W.W.W.Q.I.9.X X *X*X=X=X*X*X=X=X=X=X=X=XX X 2.i.u.e.w.8.8.~.9.9.9.w.",
"%.&.V.5.5.U E c.2.} w.9.E.~.~.I.9.8.9.X X *X*X=X=X*X*X=X=X=X=X=X=XX X 5.u.r.u.r.8.9.~.I.w.9.8.",
"g.g.l.d.@.o.5.'.2.[ [ [ I..X_.[ ] w.~.X X *X*X*X*X=X=X=X=X=X=X=X=X. . u.0.8.u.0.7.8.I.9.w.9.8.",
"g.g.%.Q @.| 1.1.|  .~  .X. .| [ 8.T.E.X X *X*X*X*X=X=X=X=X=X=X=X=X. . '.q.8.q.[ 7.8.9.9.8.8.7.",
"h h O.&.| | @.4.5.^ 2.2./ Y [ Y.U.~.E.X X *X*X=X=X=X=X*X*X. . o o . . u.r.0.[ [ w.q.w.P.8.8.q.",
"h 7 F o.c.E o.l.&.! -.Y ^ e..X~.U.Q.E.X X *X*X=X=X=X=X*X*X. . o o . . r.r.w.[ [ Y.r.8.8.8.8.q.",
"#.%.h.A f.p.s.%.7 E Y ] 8.t.~.Q.E.I.I.. . o o =X=X=X=X=X=XX X =X=X*X*X. . . . X.8.q.0.q.q.8.q.",
"%.h h f.p.q h 7 f c.r.} I.~.w.E.I.I.8.. . o o =X=X=X=X=X=XX X =X=X*X*X. . . . u.8.Y.r.r.r.q.8.",
"f r #.f #.O.I ;.y.. . o o . . E.E.9.] . . o o =X=X=X=X=X=X=X=X=X=X=X=XX X . . 8.7.r.r.'.r.2.3.",
"o.o.W O.] 2.e.u.w.. . o o . . ~.9.7.[ . . o o =X=X=X=X=X=X=X=X=X=X=X=XX X . . [ } e. .0. . .3.",
"$.@.3.X.8.9.q.. . *X*X=X=Xo o . . . . o o *X*X*X*X=X=X=X=X=X=X=X=X=X=X*X*X. . ] [ 0.[ [ }  .e.",
"=.3.y.w.q.8.w.. . *X*X=X=Xo o . . . . o o *X*X*X*X=X=X=X=X=X=X=X=X=X=X*X*X. . ~ 0.} 0.[ [ [  .",
"X.8.} r.8.q.].X X =X=Xo o . . o o *X*X=X=X*X*Xo o *X*X=X=X=X=X=X=X*X*Xo o . . / 2.[ ( | ^ ~ ~ ",
"} 8.8.Y.0.0.).X X =X=Xo o . . o o *X*X=X=X*X*Xo o *X*X=X=X=X=X=X=X*X*Xo o . . *.-.~ =.( / / R ",
"} q.8.P.e.0.e.X X =X=X=X=X=X=X=X=X=X=X=X=X=X=Xo o X X o o . . . . . . . . *.*.*.*./ W =./ / W ",
"y.u.8.u.0.e.0.X X =X=X=X=X=X=X=X=X=X=X=X=X=X=Xo o X X o o . . . . . . . . P *.W O.*.W W =.;.*.",
"q.q.r.u.u.2.T . . *X*X=X=X*X*X=X=X=X=X=X=X*X*Xo o o o X X . . f 6 9 = c.O.O.$.$.$.W $.O.*./ Y ",
"8.e.).y.| O.#.. . *X*X=X=X*X*X=X=X=X=X=X=X*X*Xo o o o X X . . 5 5 5 - v.g.$.L K * W O.O.*.W Y ",
"8.u.u.5.L * ;.r.[ . . *X*X*X*X=X=X*X*X*X*X*X*Xo o o o . . . . 9 5 = P g.I I P & & U L K U =.=.",
"q.u.>.d.q Y X.X.] . . *X*X*X*X=X=X*X*X*X*X*X*Xo o o o . . . . B 9 5 P g.P P 0 0 ; * &.;.O.O.O.",
"0.2.o.9 d.3.[ [ Y.. . o o *X*X*X*Xo o *X*X*X*X*X*Xo o . . . . . . 5 I 8 # 0 V B 5 8 q %.$.$.;.",
"| E 9 I | } [ ] } . . o o *X*X*X*Xo o *X*X*X*X*X*Xo o . . . . . . 1 = = 2 V N , 1 A h.q 6 I $.",
"f 9 V c.} ] 0.. . . . . . *X*Xo o . . o o *X*Xo o o o . . . . . . . . . .   1 Z C n q D j.f.f.",
"C N 4.2.} 7. .. . . . . . *X*Xo o . . o o *X*Xo o o o . . . . . . . . . . @ :     > > 3 f f.f.",
"0 l.[ | [ ] ... . . . . . o o *X*XX X . . *X*XX X o o . . . . . . . . . . @ 0 p.> , < C N @ 7 ",
"g.| [ } ~ ! c.. . . . . . o o *X*XX X . . *X*XX X o o . . . . . . . . . . M : : M.N.D D D %.h ",
"2.| [ =.( l.s.w &.. . . . . . . . . . . . . . . . . . . . . . . . . . + ,   > < + 5 h s.s.g.s.",
"5.v.c.a.; o.; w k.. . . . . . . . . . . . . . . . . . . . . . . . . . m 2 0 B F q 9 5 q q q 5 ",
"5.O.0 q 5 E +.g.,.+.d j l . . . . . . . . . . . . . . . . . . 6.O b v c 0 p.N.A N B p.I f.q 3 ",
"| W %.4.c.m.s.f t g a H H . . . . . . . . . . . . . . . . . . +.x.m i x f.B.k.q V V P P 8 3 N ",
"| 4.1.&.T f.q t z.g a z S J u ` ` c.S.`.).'...F.F.Y.Y.P.R _ G...K.:.' ) b.<.o.&.o.; - ; ; 7 F ",
"4.;.R g.O.4.>.` d g y p s x e { ~ u._._._.P.).).Y.8.@XH.U.`.q.I.K.J.{ 3.| | 2.@.k G q - $ f F ",
"r T O.c.@.g k a l l s z H x.>...Y.$X)._._._.).).`.`.$X).Y.Y.H.K.G.D.' ' x.L.| b.x.g 4 % d G 4 "
};
